<mxfile host="65bd71144e">
    <diagram id="uDx9K-Hz0Ov9fUKJUd65" name="ページ1">
        <mxGraphModel dx="183" dy="794" grid="0" gridSize="10" guides="1" tooltips="1" connect="0" arrows="1" fold="1" page="1" pageScale="1" pageWidth="827" pageHeight="1169" background="#333333" math="0" shadow="0">
            <root>
                <mxCell id="0"/>
                <mxCell id="1" parent="0"/>
                <mxCell id="53" value="" style="edgeStyle=none;orthogonalLoop=1;jettySize=auto;html=1;shape=link;elbow=vertical;entryX=0.45;entryY=0.1;entryDx=0;entryDy=0;entryPerimeter=0;strokeColor=#FFFFFF;" parent="1" target="18" edge="1">
                    <mxGeometry width="80" relative="1" as="geometry">
                        <mxPoint x="1017" y="585" as="sourcePoint"/>
                        <mxPoint x="1200" y="430" as="targetPoint"/>
                        <Array as="points">
                            <mxPoint x="1017" y="470"/>
                            <mxPoint x="1318" y="470"/>
                        </Array>
                    </mxGeometry>
                </mxCell>
                <mxCell id="4" value="" style="whiteSpace=wrap;html=1;fillColor=none;strokeColor=#00FFFF;" parent="1" vertex="1">
                    <mxGeometry x="1180" y="570" width="280" height="370" as="geometry"/>
                </mxCell>
                <mxCell id="10" value="" style="whiteSpace=wrap;html=1;fillColor=none;strokeColor=#00FFFF;" parent="1" vertex="1">
                    <mxGeometry x="1190" y="820" width="260" height="70" as="geometry"/>
                </mxCell>
                <mxCell id="15" value="&lt;font color=&quot;#ffffff&quot;&gt;PrivateEndpointSubnet&lt;/font&gt;" style="text;strokeColor=none;align=left;fillColor=none;html=1;verticalAlign=middle;whiteSpace=wrap;rounded=0;" parent="1" vertex="1">
                    <mxGeometry x="1240" y="865" width="60" height="30" as="geometry"/>
                </mxCell>
                <mxCell id="2" value="" style="shape=image;verticalLabelPosition=bottom;verticalAlign=top;imageAspect=0;aspect=fixed;image=data:image/svg+xml,PHN2ZyB4bWxucz0iaHR0cDovL3d3dy53My5vcmcvMjAwMC9zdmciIGlkPSJhMTYwNmE1Mi1mYjE0LTQ2MzctODdkZS00ZDUyNGJiYTE4MjkiIHdpZHRoPSIxOCIgaGVpZ2h0PSIxOCIgdmlld0JveD0iMCAwIDE4IDE4Ij4mI3hhOyAgICA8ZGVmcz4mI3hhOyAgICAgICAgPGxpbmVhckdyYWRpZW50IGlkPSJmMDIwZmI3ZS0yMjQzLTQ1MDEtODE1My01ZDY5YmQzYzM0ZjciIHgxPSI5Ljg4IiB5MT0iOC41OSIgeDI9IjExLjUyIiB5Mj0iMTAuMjMiIGdyYWRpZW50VHJhbnNmb3JtPSJ0cmFuc2xhdGUoMi4wMyAtMC40KSByb3RhdGUoLTAuMDgpIiBncmFkaWVudFVuaXRzPSJ1c2VyU3BhY2VPblVzZSI+JiN4YTsgICAgICAgICAgICA8c3RvcCBvZmZzZXQ9IjAiIHN0b3AtY29sb3I9IiM4NmQ2MzMiLz4mI3hhOzxzdG9wIG9mZnNldD0iMSIgc3RvcC1jb2xvcj0iIzVlOTYyNCIvPiYjeGE7ICAgICAgICA8L2xpbmVhckdyYWRpZW50PiYjeGE7ICAgICAgICA8bGluZWFyR3JhZGllbnQgaWQ9ImIzYzJiYzk0LThjN2MtNDhhMi05NzE5LTZlZTg5OWE0M2E5NyIgeDE9IjYuMTgiIHkxPSI4LjU5IiB4Mj0iNy44MSIgeTI9IjEwLjIzIiBncmFkaWVudFVuaXRzPSJ1c2VyU3BhY2VPblVzZSI+JiN4YTsgICAgICAgICAgICAgICAgICAgIDxzdG9wIG9mZnNldD0iMCIgc3RvcC1jb2xvcj0iIzg2ZDYzMyIvPiYjeGE7PHN0b3Agb2Zmc2V0PSIxIiBzdG9wLWNvbG9yPSIjNWU5NjI0Ii8+JiN4YTsgICAgICAgIDwvbGluZWFyR3JhZGllbnQ+JiN4YTsgICAgICAgIDxsaW5lYXJHcmFkaWVudCBpZD0iZTkwMGMzNWQtMDk1OC00ZDRmLWIyOGYtMzAyZWVhYWY1MmY1IiB4MT0iMi40OCIgeTE9IjguNTkiIHgyPSI0LjExIiB5Mj0iMTAuMjMiIGdyYWRpZW50VW5pdHM9InVzZXJTcGFjZU9uVXNlIj4mI3hhOyAgICAgICAgICAgICAgICAgICAgPHN0b3Agb2Zmc2V0PSIwIiBzdG9wLWNvbG9yPSIjODZkNjMzIi8+JiN4YTs8c3RvcCBvZmZzZXQ9IjEiIHN0b3AtY29sb3I9IiM1ZTk2MjQiLz4mI3hhOyAgICAgICAgPC9saW5lYXJHcmFkaWVudD4mI3hhOyAgICA8L2RlZnM+JiN4YTsgICAgPHRpdGxlPkljb24tbmV0d29ya2luZy02MTwvdGl0bGU+JiN4YTsgICAgPGNpcmNsZSBjeD0iMTIuNzQiIGN5PSI4Ljk5IiByPSIxLjE2IiBmaWxsPSJ1cmwoI2YwMjBmYjdlLTIyNDMtNDUwMS04MTUzLTVkNjliZDNjMzRmNykiLz4mI3hhOyAgICA8Y2lyY2xlIGN4PSI5LjA0IiBjeT0iOSIgcj0iMS4xNiIgZmlsbD0idXJsKCNiM2MyYmM5NC04YzdjLTQ4YTItOTcxOS02ZWU4OTlhNDNhOTcpIi8+JiN4YTsgICAgPGNpcmNsZSBjeD0iNS4zNCIgY3k9IjkiIHI9IjEuMTYiIGZpbGw9InVybCgjZTkwMGMzNWQtMDk1OC00ZDRmLWIyOGYtMzAyZWVhYWY1MmY1KSIvPiYjeGE7ICAgIDxwYXRoIGQ9Ik0yLjYxLDcuMjhoLjk0YS4zLjMsMCwwLDEsLjMuM3Y2Ljk0YS42LjYsMCwwLDEtLjYuNkgyLjMxYTAsMCwwLDAsMSwwLDBWNy41OGEuMy4zLDAsMCwxLC4zLS4zWiIgdHJhbnNmb3JtPSJ0cmFuc2xhdGUoMTMuMTggMTYuOTMpIHJvdGF0ZSgxMzQuOTIpIiBmaWxsPSIjNTBlNmZmIi8+JiN4YTsgICAgPHBhdGggZD0iTTIuNTYsMi45MUgzLjVhLjMuMywwLDAsMSwuMy4zdjcuNDNhMCwwLDAsMCwxLDAsMEgyLjg2YS42LjYsMCwwLDEtLjYtLjZWMy4yMWEuMy4zLDAsMCwxLC4zLS4zWiIgdHJhbnNmb3JtPSJ0cmFuc2xhdGUoNS42NiAtMC4xNikgcm90YXRlKDQ0LjkyKSIgZmlsbD0iIzE0OTBkZiIvPiYjeGE7ICAgIDxwYXRoIGQ9Ik0xNC4xNSw3LjI4aC45NGEuNi42LDAsMCwxLC42LjZ2Ni45NGEuMy4zLDAsMCwxLS4zLjNoLS45NGEuMy4zLDAsMCwxLS4zLS4zVjcuMjhhMCwwLDAsMCwxLDAsMFoiIHRyYW5zZm9ybT0idHJhbnNsYXRlKDEyLjMyIC03LjI4KSByb3RhdGUoNDUuMDgpIiBmaWxsPSIjNTBlNmZmIi8+JiN4YTsgICAgPHBhdGggZD0iTTE0LjgxLDIuOTFoLjk0YTAsMCwwLDAsMSwwLDB2Ny40M2EuMy4zLDAsMCwxLS4zLjNIMTQuNWEuMy4zLDAsMCwxLS4zLS4zVjMuNTFhLjYuNiwwLDAsMSwuNi0uNloiIHRyYW5zZm9ybT0idHJhbnNsYXRlKDMwLjM2IDAuOTkpIHJvdGF0ZSgxMzUuMDgpIiBmaWxsPSIjMTQ5MGRmIi8+JiN4YTs8L3N2Zz4=" parent="1" vertex="1">
                    <mxGeometry x="1190" y="900" width="40" height="40" as="geometry"/>
                </mxCell>
                <mxCell id="5" value="" style="whiteSpace=wrap;html=1;fillColor=none;strokeColor=#00FFFF;" parent="1" vertex="1">
                    <mxGeometry x="1190" y="580" width="260" height="70" as="geometry"/>
                </mxCell>
                <mxCell id="3" value="" style="shape=image;verticalLabelPosition=bottom;labelBackgroundColor=default;verticalAlign=top;aspect=fixed;imageAspect=0;image=data:image/svg+xml,PHN2ZyB4bWxucz0iaHR0cDovL3d3dy53My5vcmcvMjAwMC9zdmciIHZpZXdCb3g9IjAgMCAxOCAxOCIgaGVpZ2h0PSIxOCIgd2lkdGg9IjE4Ij48ZGVmcz48bGluZWFyR3JhZGllbnQgZ3JhZGllbnRVbml0cz0idXNlclNwYWNlT25Vc2UiIHkyPSI3LjY5NSIgeDI9IjkuMDMzIiB5MT0iMTAuMzA1IiB4MT0iOS4wMzMiIGlkPSJiY2ViNjBkZC04YjhjLTQwOTgtOTRmOC1hZWI0ZGIyZWRhZWYiPjxzdG9wIHN0b3AtY29sb3I9IiM1ZTk2MjQiIG9mZnNldD0iMCIvPjxzdG9wIHN0b3AtY29sb3I9IiM2ZmIwMmEiIG9mZnNldD0iMC4yNDEiLz48c3RvcCBzdG9wLWNvbG9yPSIjN2NjNTJmIiBvZmZzZXQ9IjAuNTAxIi8+PHN0b3Agc3RvcC1jb2xvcj0iIzgzZDIzMiIgb2Zmc2V0PSIwLjc1NiIvPjxzdG9wIHN0b3AtY29sb3I9IiM4NmQ2MzMiIG9mZnNldD0iMSIvPjwvbGluZWFyR3JhZGllbnQ+PC9kZWZzPjxnIGlkPSJhYzc1YzIxZS0yYTkzLTQ2NGYtODA0OC1mMTUxOGRhYjhiNzUiPjxnPjxwYXRoIGZpbGw9InVybCgjYmNlYjYwZGQtOGI4Yy00MDk4LTk0ZjgtYWViNGRiMmVkYWVmKSIgZD0iTTkuMDMxLDcuN0ExLjMwNSwxLjMwNSwwLDEsMCwxMC4zMzgsOSwxLjMwNSwxLjMwNSwwLDAsMCw5LjAzMSw3LjdaIi8+PGc+PHBhdGggZmlsbD0iIzUwZTZmZiIgdHJhbnNmb3JtPSJ0cmFuc2xhdGUoMTMuNjUzIDE2LjQ4NSkgcm90YXRlKDEzNC45MTkpIiBkPSJNMi45NjEsNy4zNzRoLjg4OGEuMjg0LjI4NCwwLDAsMSwuMjg0LjI4NHY2LjU1MWEuNTY4LjU2OCwwLDAsMS0uNTY4LjU2OEgyLjY3N2EwLDAsMCwwLDEsMCwwVjcuNjU5QS4yODQuMjg0LDAsMCwxLDIuOTYxLDcuMzc0WiIvPjxwYXRoIGZpbGw9IiMxNDkwZGYiIHRyYW5zZm9ybT0idHJhbnNsYXRlKDUuODQ3IC0wLjM1OCkgcm90YXRlKDQ0LjkxOSkiIGQ9Ik0yLjkxMywzLjI0NEgzLjhhLjI4NC4yODQsMCwwLDEsLjI4NC4yODR2Ny4wMTVhMCwwLDAsMCwxLDAsMEgzLjJhLjU2OC41NjgsMCwwLDEtLjU2OC0uNTY4VjMuNTI4YS4yODQuMjg0LDAsMCwxLC4yODQtLjI4NFoiLz48cGF0aCBmaWxsPSIjNTBlNmZmIiB0cmFuc2Zvcm09InRyYW5zbGF0ZSgxMi4xMzIgLTcuMDc5KSByb3RhdGUoNDUuMDgxKSIgZD0iTTEzLjg2Nyw3LjM3NGguODg4YS41NjguNTY4LDAsMCwxLC41NjguNTY4djYuNTUxYS4yODQuMjg0LDAsMCwxLS4yODQuMjg0aC0uODg4YS4yODQuMjg0LDAsMCwxLS4yODQtLjI4NFY3LjM3NGEwLDAsMCwwLDEsMCwwWiIvPjxwYXRoIGZpbGw9IiMxNDkwZGYiIHRyYW5zZm9ybT0idHJhbnNsYXRlKDI5Ljg3OSAxLjQzNSkgcm90YXRlKDEzNS4wODEpIiBkPSJNMTQuNDgzLDMuMjQ0aC44ODhhMCwwLDAsMCwxLDAsMHY3LjAxNWEuMjg0LjI4NCwwLDAsMS0uMjg0LjI4NEgxNC4yYS4yODQuMjg0LDAsMCwxLS4yODQtLjI4NFYzLjgxMmEuNTY4LjU2OCwwLDAsMSwuNTY4LS41NjhaIi8+PC9nPjwvZz48L2c+PC9zdmc+;" parent="1" vertex="1">
                    <mxGeometry x="1200" y="610" width="40" height="40" as="geometry"/>
                </mxCell>
                <mxCell id="6" value="" style="whiteSpace=wrap;html=1;fillColor=none;strokeColor=#00FFFF;" parent="1" vertex="1">
                    <mxGeometry x="1190" y="660" width="260" height="70" as="geometry"/>
                </mxCell>
                <mxCell id="7" value="" style="shape=image;verticalLabelPosition=bottom;labelBackgroundColor=default;verticalAlign=top;aspect=fixed;imageAspect=0;image=data:image/svg+xml,PHN2ZyB4bWxucz0iaHR0cDovL3d3dy53My5vcmcvMjAwMC9zdmciIHZpZXdCb3g9IjAgMCAxOCAxOCIgaGVpZ2h0PSIxOCIgd2lkdGg9IjE4Ij48ZGVmcz48bGluZWFyR3JhZGllbnQgZ3JhZGllbnRVbml0cz0idXNlclNwYWNlT25Vc2UiIHkyPSI3LjY5NSIgeDI9IjkuMDMzIiB5MT0iMTAuMzA1IiB4MT0iOS4wMzMiIGlkPSJiY2ViNjBkZC04YjhjLTQwOTgtOTRmOC1hZWI0ZGIyZWRhZWYiPjxzdG9wIHN0b3AtY29sb3I9IiM1ZTk2MjQiIG9mZnNldD0iMCIvPjxzdG9wIHN0b3AtY29sb3I9IiM2ZmIwMmEiIG9mZnNldD0iMC4yNDEiLz48c3RvcCBzdG9wLWNvbG9yPSIjN2NjNTJmIiBvZmZzZXQ9IjAuNTAxIi8+PHN0b3Agc3RvcC1jb2xvcj0iIzgzZDIzMiIgb2Zmc2V0PSIwLjc1NiIvPjxzdG9wIHN0b3AtY29sb3I9IiM4NmQ2MzMiIG9mZnNldD0iMSIvPjwvbGluZWFyR3JhZGllbnQ+PC9kZWZzPjxnIGlkPSJhYzc1YzIxZS0yYTkzLTQ2NGYtODA0OC1mMTUxOGRhYjhiNzUiPjxnPjxwYXRoIGZpbGw9InVybCgjYmNlYjYwZGQtOGI4Yy00MDk4LTk0ZjgtYWViNGRiMmVkYWVmKSIgZD0iTTkuMDMxLDcuN0ExLjMwNSwxLjMwNSwwLDEsMCwxMC4zMzgsOSwxLjMwNSwxLjMwNSwwLDAsMCw5LjAzMSw3LjdaIi8+PGc+PHBhdGggZmlsbD0iIzUwZTZmZiIgdHJhbnNmb3JtPSJ0cmFuc2xhdGUoMTMuNjUzIDE2LjQ4NSkgcm90YXRlKDEzNC45MTkpIiBkPSJNMi45NjEsNy4zNzRoLjg4OGEuMjg0LjI4NCwwLDAsMSwuMjg0LjI4NHY2LjU1MWEuNTY4LjU2OCwwLDAsMS0uNTY4LjU2OEgyLjY3N2EwLDAsMCwwLDEsMCwwVjcuNjU5QS4yODQuMjg0LDAsMCwxLDIuOTYxLDcuMzc0WiIvPjxwYXRoIGZpbGw9IiMxNDkwZGYiIHRyYW5zZm9ybT0idHJhbnNsYXRlKDUuODQ3IC0wLjM1OCkgcm90YXRlKDQ0LjkxOSkiIGQ9Ik0yLjkxMywzLjI0NEgzLjhhLjI4NC4yODQsMCwwLDEsLjI4NC4yODR2Ny4wMTVhMCwwLDAsMCwxLDAsMEgzLjJhLjU2OC41NjgsMCwwLDEtLjU2OC0uNTY4VjMuNTI4YS4yODQuMjg0LDAsMCwxLC4yODQtLjI4NFoiLz48cGF0aCBmaWxsPSIjNTBlNmZmIiB0cmFuc2Zvcm09InRyYW5zbGF0ZSgxMi4xMzIgLTcuMDc5KSByb3RhdGUoNDUuMDgxKSIgZD0iTTEzLjg2Nyw3LjM3NGguODg4YS41NjguNTY4LDAsMCwxLC41NjguNTY4djYuNTUxYS4yODQuMjg0LDAsMCwxLS4yODQuMjg0aC0uODg4YS4yODQuMjg0LDAsMCwxLS4yODQtLjI4NFY3LjM3NGEwLDAsMCwwLDEsMCwwWiIvPjxwYXRoIGZpbGw9IiMxNDkwZGYiIHRyYW5zZm9ybT0idHJhbnNsYXRlKDI5Ljg3OSAxLjQzNSkgcm90YXRlKDEzNS4wODEpIiBkPSJNMTQuNDgzLDMuMjQ0aC44ODhhMCwwLDAsMCwxLDAsMHY3LjAxNWEuMjg0LjI4NCwwLDAsMS0uMjg0LjI4NEgxNC4yYS4yODQuMjg0LDAsMCwxLS4yODQtLjI4NFYzLjgxMmEuNTY4LjU2OCwwLDAsMSwuNTY4LS41NjhaIi8+PC9nPjwvZz48L2c+PC9zdmc+;" parent="1" vertex="1">
                    <mxGeometry x="1200" y="690" width="40" height="40" as="geometry"/>
                </mxCell>
                <mxCell id="8" value="" style="whiteSpace=wrap;html=1;fillColor=none;strokeColor=#00FFFF;" parent="1" vertex="1">
                    <mxGeometry x="1190" y="740" width="260" height="70" as="geometry"/>
                </mxCell>
                <mxCell id="9" value="" style="shape=image;verticalLabelPosition=bottom;labelBackgroundColor=default;verticalAlign=top;aspect=fixed;imageAspect=0;image=data:image/svg+xml,PHN2ZyB4bWxucz0iaHR0cDovL3d3dy53My5vcmcvMjAwMC9zdmciIHZpZXdCb3g9IjAgMCAxOCAxOCIgaGVpZ2h0PSIxOCIgd2lkdGg9IjE4Ij48ZGVmcz48bGluZWFyR3JhZGllbnQgZ3JhZGllbnRVbml0cz0idXNlclNwYWNlT25Vc2UiIHkyPSI3LjY5NSIgeDI9IjkuMDMzIiB5MT0iMTAuMzA1IiB4MT0iOS4wMzMiIGlkPSJiY2ViNjBkZC04YjhjLTQwOTgtOTRmOC1hZWI0ZGIyZWRhZWYiPjxzdG9wIHN0b3AtY29sb3I9IiM1ZTk2MjQiIG9mZnNldD0iMCIvPjxzdG9wIHN0b3AtY29sb3I9IiM2ZmIwMmEiIG9mZnNldD0iMC4yNDEiLz48c3RvcCBzdG9wLWNvbG9yPSIjN2NjNTJmIiBvZmZzZXQ9IjAuNTAxIi8+PHN0b3Agc3RvcC1jb2xvcj0iIzgzZDIzMiIgb2Zmc2V0PSIwLjc1NiIvPjxzdG9wIHN0b3AtY29sb3I9IiM4NmQ2MzMiIG9mZnNldD0iMSIvPjwvbGluZWFyR3JhZGllbnQ+PC9kZWZzPjxnIGlkPSJhYzc1YzIxZS0yYTkzLTQ2NGYtODA0OC1mMTUxOGRhYjhiNzUiPjxnPjxwYXRoIGZpbGw9InVybCgjYmNlYjYwZGQtOGI4Yy00MDk4LTk0ZjgtYWViNGRiMmVkYWVmKSIgZD0iTTkuMDMxLDcuN0ExLjMwNSwxLjMwNSwwLDEsMCwxMC4zMzgsOSwxLjMwNSwxLjMwNSwwLDAsMCw5LjAzMSw3LjdaIi8+PGc+PHBhdGggZmlsbD0iIzUwZTZmZiIgdHJhbnNmb3JtPSJ0cmFuc2xhdGUoMTMuNjUzIDE2LjQ4NSkgcm90YXRlKDEzNC45MTkpIiBkPSJNMi45NjEsNy4zNzRoLjg4OGEuMjg0LjI4NCwwLDAsMSwuMjg0LjI4NHY2LjU1MWEuNTY4LjU2OCwwLDAsMS0uNTY4LjU2OEgyLjY3N2EwLDAsMCwwLDEsMCwwVjcuNjU5QS4yODQuMjg0LDAsMCwxLDIuOTYxLDcuMzc0WiIvPjxwYXRoIGZpbGw9IiMxNDkwZGYiIHRyYW5zZm9ybT0idHJhbnNsYXRlKDUuODQ3IC0wLjM1OCkgcm90YXRlKDQ0LjkxOSkiIGQ9Ik0yLjkxMywzLjI0NEgzLjhhLjI4NC4yODQsMCwwLDEsLjI4NC4yODR2Ny4wMTVhMCwwLDAsMCwxLDAsMEgzLjJhLjU2OC41NjgsMCwwLDEtLjU2OC0uNTY4VjMuNTI4YS4yODQuMjg0LDAsMCwxLC4yODQtLjI4NFoiLz48cGF0aCBmaWxsPSIjNTBlNmZmIiB0cmFuc2Zvcm09InRyYW5zbGF0ZSgxMi4xMzIgLTcuMDc5KSByb3RhdGUoNDUuMDgxKSIgZD0iTTEzLjg2Nyw3LjM3NGguODg4YS41NjguNTY4LDAsMCwxLC41NjguNTY4djYuNTUxYS4yODQuMjg0LDAsMCwxLS4yODQuMjg0aC0uODg4YS4yODQuMjg0LDAsMCwxLS4yODQtLjI4NFY3LjM3NGEwLDAsMCwwLDEsMCwwWiIvPjxwYXRoIGZpbGw9IiMxNDkwZGYiIHRyYW5zZm9ybT0idHJhbnNsYXRlKDI5Ljg3OSAxLjQzNSkgcm90YXRlKDEzNS4wODEpIiBkPSJNMTQuNDgzLDMuMjQ0aC44ODhhMCwwLDAsMCwxLDAsMHY3LjAxNWEuMjg0LjI4NCwwLDAsMS0uMjg0LjI4NEgxNC4yYS4yODQuMjg0LDAsMCwxLS4yODQtLjI4NFYzLjgxMmEuNTY4LjU2OCwwLDAsMSwuNTY4LS41NjhaIi8+PC9nPjwvZz48L2c+PC9zdmc+;" parent="1" vertex="1">
                    <mxGeometry x="1200" y="770" width="40" height="40" as="geometry"/>
                </mxCell>
                <mxCell id="11" value="" style="shape=image;verticalLabelPosition=bottom;labelBackgroundColor=default;verticalAlign=top;aspect=fixed;imageAspect=0;image=data:image/svg+xml,PHN2ZyB4bWxucz0iaHR0cDovL3d3dy53My5vcmcvMjAwMC9zdmciIHZpZXdCb3g9IjAgMCAxOCAxOCIgaGVpZ2h0PSIxOCIgd2lkdGg9IjE4Ij48ZGVmcz48bGluZWFyR3JhZGllbnQgZ3JhZGllbnRVbml0cz0idXNlclNwYWNlT25Vc2UiIHkyPSI3LjY5NSIgeDI9IjkuMDMzIiB5MT0iMTAuMzA1IiB4MT0iOS4wMzMiIGlkPSJiY2ViNjBkZC04YjhjLTQwOTgtOTRmOC1hZWI0ZGIyZWRhZWYiPjxzdG9wIHN0b3AtY29sb3I9IiM1ZTk2MjQiIG9mZnNldD0iMCIvPjxzdG9wIHN0b3AtY29sb3I9IiM2ZmIwMmEiIG9mZnNldD0iMC4yNDEiLz48c3RvcCBzdG9wLWNvbG9yPSIjN2NjNTJmIiBvZmZzZXQ9IjAuNTAxIi8+PHN0b3Agc3RvcC1jb2xvcj0iIzgzZDIzMiIgb2Zmc2V0PSIwLjc1NiIvPjxzdG9wIHN0b3AtY29sb3I9IiM4NmQ2MzMiIG9mZnNldD0iMSIvPjwvbGluZWFyR3JhZGllbnQ+PC9kZWZzPjxnIGlkPSJhYzc1YzIxZS0yYTkzLTQ2NGYtODA0OC1mMTUxOGRhYjhiNzUiPjxnPjxwYXRoIGZpbGw9InVybCgjYmNlYjYwZGQtOGI4Yy00MDk4LTk0ZjgtYWViNGRiMmVkYWVmKSIgZD0iTTkuMDMxLDcuN0ExLjMwNSwxLjMwNSwwLDEsMCwxMC4zMzgsOSwxLjMwNSwxLjMwNSwwLDAsMCw5LjAzMSw3LjdaIi8+PGc+PHBhdGggZmlsbD0iIzUwZTZmZiIgdHJhbnNmb3JtPSJ0cmFuc2xhdGUoMTMuNjUzIDE2LjQ4NSkgcm90YXRlKDEzNC45MTkpIiBkPSJNMi45NjEsNy4zNzRoLjg4OGEuMjg0LjI4NCwwLDAsMSwuMjg0LjI4NHY2LjU1MWEuNTY4LjU2OCwwLDAsMS0uNTY4LjU2OEgyLjY3N2EwLDAsMCwwLDEsMCwwVjcuNjU5QS4yODQuMjg0LDAsMCwxLDIuOTYxLDcuMzc0WiIvPjxwYXRoIGZpbGw9IiMxNDkwZGYiIHRyYW5zZm9ybT0idHJhbnNsYXRlKDUuODQ3IC0wLjM1OCkgcm90YXRlKDQ0LjkxOSkiIGQ9Ik0yLjkxMywzLjI0NEgzLjhhLjI4NC4yODQsMCwwLDEsLjI4NC4yODR2Ny4wMTVhMCwwLDAsMCwxLDAsMEgzLjJhLjU2OC41NjgsMCwwLDEtLjU2OC0uNTY4VjMuNTI4YS4yODQuMjg0LDAsMCwxLC4yODQtLjI4NFoiLz48cGF0aCBmaWxsPSIjNTBlNmZmIiB0cmFuc2Zvcm09InRyYW5zbGF0ZSgxMi4xMzIgLTcuMDc5KSByb3RhdGUoNDUuMDgxKSIgZD0iTTEzLjg2Nyw3LjM3NGguODg4YS41NjguNTY4LDAsMCwxLC41NjguNTY4djYuNTUxYS4yODQuMjg0LDAsMCwxLS4yODQuMjg0aC0uODg4YS4yODQuMjg0LDAsMCwxLS4yODQtLjI4NFY3LjM3NGEwLDAsMCwwLDEsMCwwWiIvPjxwYXRoIGZpbGw9IiMxNDkwZGYiIHRyYW5zZm9ybT0idHJhbnNsYXRlKDI5Ljg3OSAxLjQzNSkgcm90YXRlKDEzNS4wODEpIiBkPSJNMTQuNDgzLDMuMjQ0aC44ODhhMCwwLDAsMCwxLDAsMHY3LjAxNWEuMjg0LjI4NCwwLDAsMS0uMjg0LjI4NEgxNC4yYS4yODQuMjg0LDAsMCwxLS4yODQtLjI4NFYzLjgxMmEuNTY4LjU2OCwwLDAsMSwuNTY4LS41NjhaIi8+PC9nPjwvZz48L2c+PC9zdmc+;" parent="1" vertex="1">
                    <mxGeometry x="1200" y="850" width="40" height="40" as="geometry"/>
                </mxCell>
                <mxCell id="12" value="&lt;font color=&quot;#ffffff&quot;&gt;GatewaySubnet&lt;/font&gt;" style="text;strokeColor=none;align=left;fillColor=none;html=1;verticalAlign=middle;whiteSpace=wrap;rounded=0;" parent="1" vertex="1">
                    <mxGeometry x="1240" y="624" width="60" height="30" as="geometry"/>
                </mxCell>
                <mxCell id="13" value="&lt;font color=&quot;#ffffff&quot;&gt;AzureFirewallSubnet&lt;/font&gt;" style="text;strokeColor=none;align=left;fillColor=none;html=1;verticalAlign=middle;whiteSpace=wrap;rounded=0;" parent="1" vertex="1">
                    <mxGeometry x="1240" y="706" width="60" height="30" as="geometry"/>
                </mxCell>
                <mxCell id="14" value="&lt;font color=&quot;#ffffff&quot;&gt;AzureBastionSubnet&lt;/font&gt;" style="text;strokeColor=none;align=left;fillColor=none;html=1;verticalAlign=middle;whiteSpace=wrap;rounded=0;" parent="1" vertex="1">
                    <mxGeometry x="1240" y="784" width="60" height="30" as="geometry"/>
                </mxCell>
                <mxCell id="17" value="" style="shape=image;verticalLabelPosition=bottom;verticalAlign=top;imageAspect=0;aspect=fixed;image=data:image/svg+xml,PHN2ZyB4bWxucz0iaHR0cDovL3d3dy53My5vcmcvMjAwMC9zdmciIGlkPSJhZjQ2M2QzMi1lYzEwLTQ0ZDktYTYwNy1lYmFkNjM3OGE1MmIiIHdpZHRoPSIxOCIgaGVpZ2h0PSIxOCIgdmlld0JveD0iMCAwIDE4IDE4Ij48ZGVmcz48bGluZWFyR3JhZGllbnQgaWQ9ImIwMTJkZTdiLTdhMGUtNDYxOC05ZmVjLTcwMzYyMmUzZThjMyIgeDE9IjkiIHkxPSIxNC4xNCIgeDI9IjkiIHkyPSIxLjM4IiBncmFkaWVudFVuaXRzPSJ1c2VyU3BhY2VPblVzZSI+PHN0b3Agb2Zmc2V0PSIwIiBzdG9wLWNvbG9yPSIjMDA3OGQ0Ii8+PHN0b3Agb2Zmc2V0PSIwLjgyIiBzdG9wLWNvbG9yPSIjNWVhMGVmIi8+PC9saW5lYXJHcmFkaWVudD48L2RlZnM+PHRpdGxlPkljb24tbmV0d29ya2luZy04NDwvdGl0bGU+PHBhdGggZD0iTTE4LDEwLjE0YTQuMDYsNC4wNiwwLDAsMC0zLjUxLTMuODlBNS4xLDUuMSwwLDAsMCw5LjI0LDEuMzhhNS4yMyw1LjIzLDAsMCwwLTUsMy40MUE0LjgyLDQuODIsMCwwLDAsMCw5LjQzYTQuOSw0LjksMCwwLDAsNS4wNyw0LjcxbC40NCwwaDguMjFhMS40NiwxLjQ2LDAsMCwwLC4yMiwwQTQuMSw0LjEsMCwwLDAsMTgsMTAuMTRaIiBmaWxsPSJ1cmwoI2IwMTJkZTdiLTdhMGUtNDYxOC05ZmVjLTcwMzYyMmUzZThjMykiLz48cGF0aCBkPSJNMTQuMjksMTEuMTlhLjQyLjQyLDAsMCwwLS40Mi0uNDFINC4xM2EuNDIuNDIsMCwwLDAtLjQyLjQxdjVhLjQyLjQyLDAsMCwwLC40Mi40MWg5Ljc0YS40Mi40MiwwLDAsMCwuNDItLjQxdi01WiIgZmlsbD0iIzgyMTAxMCIvPjxyZWN0IHg9IjQuMyIgeT0iMTEuMzYiIHdpZHRoPSIyLjg3IiBoZWlnaHQ9IjEuMjciIGZpbGw9IiNlNjIzMjMiLz48cmVjdCB4PSI3LjYiIHk9IjExLjM2IiB3aWR0aD0iMi44NyIgaGVpZ2h0PSIxLjI3IiBmaWxsPSIjZmY3MzgxIi8+PHJlY3QgeD0iMTAuOSIgeT0iMTEuMzYiIHdpZHRoPSIyLjg3IiBoZWlnaHQ9IjEuMjciIGZpbGw9IiNlNjIzMjMiLz48cmVjdCB4PSI0LjMiIHk9IjEzLjA2IiB3aWR0aD0iMS4xOSIgaGVpZ2h0PSIxLjI3IiBmaWxsPSIjZTYyMzIzIi8+PHJlY3QgeD0iMTIuNTgiIHk9IjEzLjA2IiB3aWR0aD0iMS4xOSIgaGVpZ2h0PSIxLjI3IiBmaWxsPSIjZmY3MzgxIi8+PHJlY3QgeD0iNS45MiIgeT0iMTMuMDYiIHdpZHRoPSIyLjg3IiBoZWlnaHQ9IjEuMjciIGZpbGw9IiNmZjczODEiLz48cmVjdCB4PSI5LjIzIiB5PSIxMy4wNiIgd2lkdGg9IjIuODciIGhlaWdodD0iMS4yNyIgZmlsbD0iI2U2MjMyMyIvPjxyZWN0IHg9IjQuMyIgeT0iMTQuNzYiIHdpZHRoPSIyLjg3IiBoZWlnaHQ9IjEuMjciIGZpbGw9IiNlNjIzMjMiLz48cmVjdCB4PSI3LjYiIHk9IjE0Ljc2IiB3aWR0aD0iMi44NyIgaGVpZ2h0PSIxLjI3IiBmaWxsPSIjZmY3MzgxIi8+PHJlY3QgeD0iMTAuOSIgeT0iMTQuNzYiIHdpZHRoPSIyLjg3IiBoZWlnaHQ9IjEuMjciIGZpbGw9IiNlNjIzMjMiLz48L3N2Zz4=;strokeColor=#00FFFF;fillColor=none;" parent="1" vertex="1">
                    <mxGeometry x="1300" y="666" width="40" height="40" as="geometry"/>
                </mxCell>
                <mxCell id="18" value="" style="shape=image;verticalLabelPosition=bottom;verticalAlign=top;imageAspect=0;aspect=fixed;image=data:image/svg+xml,PHN2ZyB4bWxucz0iaHR0cDovL3d3dy53My5vcmcvMjAwMC9zdmciIGlkPSJiNmY3NGNhNS0zYWU2LTQyNmYtOWVmMS05ZmY2YmJhYTdmMWMiIHdpZHRoPSIxOCIgaGVpZ2h0PSIxOCIgdmlld0JveD0iMCAwIDE4IDE4Ij48ZGVmcz48bGluZWFyR3JhZGllbnQgaWQ9ImJkNzMwNWY4LTg3ODktNDYwMC1hMWYyLTY1OTRlNjBlZWZjYyIgeDE9IjguNTkiIHkxPSItNy43OSIgeDI9IjkuMTIiIHkyPSIyMC4wNSIgZ3JhZGllbnRVbml0cz0idXNlclNwYWNlT25Vc2UiPjxzdG9wIG9mZnNldD0iMC4yMiIgc3RvcC1jb2xvcj0iIzMyZDRmNSIvPjxzdG9wIG9mZnNldD0iMC40NyIgc3RvcC1jb2xvcj0iIzMxZDFmMyIvPjxzdG9wIG9mZnNldD0iMC42MyIgc3RvcC1jb2xvcj0iIzJlYzllYiIvPjxzdG9wIG9mZnNldD0iMC43NyIgc3RvcC1jb2xvcj0iIzI5YmFkZSIvPjxzdG9wIG9mZnNldD0iMC44OSIgc3RvcC1jb2xvcj0iIzIyYTVjYiIvPjxzdG9wIG9mZnNldD0iMSIgc3RvcC1jb2xvcj0iIzE5OGFiMyIvPjxzdG9wIG9mZnNldD0iMSIgc3RvcC1jb2xvcj0iIzE5OGFiMyIvPjwvbGluZWFyR3JhZGllbnQ+PC9kZWZzPjx0aXRsZT5JY29uLW5ldHdvcmtpbmctNjM8L3RpdGxlPjxwYXRoIGQ9Ik0xNS4wNiw4LjY3aC0xVjUuNTlhNS44MSw1LjgxLDAsMCwwLTEuNDktMy45MkE0Ljc5LDQuNzksMCwwLDAsOC45MSwwYTQuNzksNC43OSwwLDAsMC0zLjcsMS42N0E1LjczLDUuNzMsMCwwLDAsMy43Miw1LjU5VjguNjdIMi45MWEuNy43LDAsMCwwLS42OS42OXY4YS43LjcsMCwwLDAsLjY5LjY5SDE1LjA2YS43MS43MSwwLDAsMCwuNy0uNjlWOS4zNkEuNzEuNzEsMCwwLDAsMTUuMDYsOC42N1ptLTMuMzcsMEg2LjEzVjUuNTRBMy4xOCwzLjE4LDAsMCwxLDcsMy4zOWEyLjUxLDIuNTEsMCwwLDEsMS44OC0uODYsMi41NCwyLjU0LDAsMCwxLDEuODkuODYsMy4xOSwzLjE5LDAsMCwxLC4zMi40M2gwYTMsMywwLDAsMSwuNjEsMS43MVoiIGZpbGw9InVybCgjYmQ3MzA1ZjgtODc4OS00NjAwLWExZjItNjU5NGU2MGVlZmNjKSIvPjxwYXRoIGQ9Ik0xNS4wOSw4LjY3SDIuOTJhLjY2LjY2LDAsMCwwLS40NC4xN2wxMy4wNSw5YS42Ny42NywwLDAsMCwuMjUtLjUydi04QS43MS43MSwwLDAsMCwxNS4wOSw4LjY3WiIgZmlsbD0iIzUwZTZmZiIvPjxwYXRoIGQ9Ik0yLjk0LDguNjdIMTUuMWEuNy43LDAsMCwxLC40NS4xN2wtMTMuMDYsOWEuNy43LDAsMCwxLS4yNS0uNTJ2LThBLjcyLjcyLDAsMCwxLDIuOTQsOC42N1oiIGZpbGw9IiNmZmYiIG9wYWNpdHk9IjAuMiIvPjxwYXRoIGQ9Ik03LjgsMTAuNiw5LDkuNGEuMDcuMDcsMCwwLDEsLjA5LDBsMS4xOSwxLjJhLjA2LjA2LDAsMCwxLDAsLjFoLS43YS4wNi4wNiwwLDAsMC0uMDYuMDZWMTIuM2EuMDYuMDYsMCwwLDEtLjA2LjA2SDguNjdhLjA1LjA1LDAsMCwxLS4wNi0uMDZWMTAuNzZhLjA3LjA3LDAsMCwwLS4wNy0uMDZoLS43QS4wNi4wNiwwLDAsMSw3LjgsMTAuNlptMi40Nyw1LjQ4TDkuMDgsMTcuMjdhLjA2LjA2LDAsMCwxLS4wOSwwTDcuOCwxNi4wOGEuMDYuMDYsMCwwLDEsMC0uMWguN2EuMDcuMDcsMCwwLDAsLjA3LS4wNlYxNC4zN2EuMDYuMDYsMCwwLDEsLjA2LS4wNmguNzRhLjA2LjA2LDAsMCwxLC4wNi4wNnYxLjU1YS4wNi4wNiwwLDAsMCwuMDYuMDZoLjdBLjA2LjA2LDAsMCwxLDEwLjI3LDE2LjA4Wm0tNC43LTEuNTV2LS43YS4wNi4wNiwwLDAsMC0uMDYtLjA2SDRhLjA2LjA2LDAsMCwxLS4wNi0uMDZWMTNBLjA2LjA2LDAsMCwxLDQsMTIuOTFINS41MWEuMDYuMDYsMCwwLDAsLjA2LS4wNnYtLjdhLjA3LjA3LDAsMCwxLC4xMS0uMDVsMS4xOSwxLjJhLjA2LjA2LDAsMCwxLDAsLjA4bC0xLjE5LDEuMkEuMDcuMDcsMCwwLDEsNS41NywxNC41M1ptNi45My0yLjM4di43YS4wNi4wNiwwLDAsMCwuMDYuMDZIMTQuMXMuMDcsMCwuMDcuMDZ2Ljc0YS4wNy4wNywwLDAsMS0uMDcuMDZIMTIuNTZhLjA2LjA2LDAsMCwwLS4wNi4wNnYuN2EuMDYuMDYsMCwwLDEtLjEuMDVsLTEuMTktMS4yYTAsMCwwLDAsMSwwLS4wOGwxLjE5LTEuMlMxMi41LDEyLjA5LDEyLjUsMTIuMTVaIiBmaWxsPSIjZmZmIi8+PC9zdmc+;strokeColor=#00FFFF;fillColor=none;" parent="1" vertex="1">
                    <mxGeometry x="1300" y="584" width="40" height="40" as="geometry"/>
                </mxCell>
                <mxCell id="19" value="" style="shape=image;verticalLabelPosition=bottom;labelBackgroundColor=default;verticalAlign=top;aspect=fixed;imageAspect=0;image=data:image/svg+xml,PHN2ZyB4bWxucz0iaHR0cDovL3d3dy53My5vcmcvMjAwMC9zdmciIHZpZXdCb3g9IjAgMCAxOCAxOCIgaGVpZ2h0PSIxOCIgd2lkdGg9IjE4Ij48ZGVmcz48bGluZWFyR3JhZGllbnQgZ3JhZGllbnRVbml0cz0idXNlclNwYWNlT25Vc2UiIGdyYWRpZW50VHJhbnNmb3JtPSJtYXRyaXgoMSwgMCwgMCwgLTEsIDAsIDc5MS41MTYpIiB5Mj0iNzg3LjQ5MiIgeDI9IjkuMDg0IiB5MT0iNzkwLjk2NyIgeDE9IjkuMDg0IiBpZD0iZjM4NmJiN2EtYmNiMi00YjY3LWI1YjItMDY4MTk2MThmZjUxIj48c3RvcCBzdG9wLWNvbG9yPSIjNTBlNmZmIiBvZmZzZXQ9IjAiLz48c3RvcCBzdG9wLWNvbG9yPSIjMzJiZWRkIiBvZmZzZXQ9IjEiLz48L2xpbmVhckdyYWRpZW50PjxsaW5lYXJHcmFkaWVudCBncmFkaWVudFVuaXRzPSJ1c2VyU3BhY2VPblVzZSIgeTI9IjEwLjM2OCIgeDI9IjkuMDY1IiB5MT0iMTMuODQzIiB4MT0iOS4wNjUiIGlkPSJhNjJhOWNhZC1iMTczLTQ3ODUtYmE4MS04ZWUzMGQ0ZGM2ZWIiPjxzdG9wIHN0b3AtY29sb3I9IiM1ZTk2MjQiIG9mZnNldD0iMCIvPjxzdG9wIHN0b3AtY29sb3I9IiM2MjljMjUiIG9mZnNldD0iMC4xODMiLz48c3RvcCBzdG9wLWNvbG9yPSIjNmRhZTJhIiBvZmZzZXQ9IjAuNDM1Ii8+PHN0b3Agc3RvcC1jb2xvcj0iIzdmY2IzMCIgb2Zmc2V0PSIwLjcyNiIvPjxzdG9wIHN0b3AtY29sb3I9IiM4NmQ2MzMiIG9mZnNldD0iMC44MjIiLz48L2xpbmVhckdyYWRpZW50PjwvZGVmcz48ZyBpZD0iYmRjZDcyNjgtMzFmYy00MTYzLTk1NDQtNjUxZDYxZjE0OThlIj48Zz48cGF0aCBmaWxsPSIjYjNiM2IzIiBkPSJNNy44NSwxMy4zNDJhMS43MzgsMS43MzgsMCwxLDAsMi40MzYtMi40NzksMS43MTUsMS43MTUsMCwwLDAtLjYyNi0uMzg5VjMuMDA5SDguNTQ4djcuNDQ0YTEuNzI5LDEuNzI5LDAsMCwwLS43LDIuODkxWiIvPjxjaXJjbGUgZmlsbD0idXJsKCNmMzg2YmI3YS1iY2IyLTRiNjctYjViMi0wNjgxOTYxOGZmNTEpIiByPSIxLjczOCIgY3k9IjIuMjA5IiBjeD0iOS4wODQiLz48Zz48cGF0aCBmaWxsPSIjNTBlNmZmIiB0cmFuc2Zvcm09InRyYW5zbGF0ZSgxNS40NTIgMjIuMjkyKSByb3RhdGUoMTM0LjkxOSkiIGQ9Ik0yLjYzMiwxMC40NDloLjkzN2EuMy4zLDAsMCwxLC4zLjN2Ni45MDlhLjYuNiwwLDAsMS0uNi42SDIuMzMyYTAsMCwwLDAsMSwwLDBWMTAuNzQ5QS4zLjMsMCwwLDEsMi42MzIsMTAuNDQ5WiIvPjxwYXRoIGZpbGw9IiMxNDkwZGYiIHRyYW5zZm9ybT0idHJhbnNsYXRlKDcuOTEgMC43NDkpIHJvdGF0ZSg0NC45MTkpIiBkPSJNMi41ODEsNi4wOTNoLjkzN2EuMy4zLDAsMCwxLC4zLjN2Ny40YTAsMCwwLDAsMSwwLDBIMi44OGEuNi42LDAsMCwxLS42LS42di02LjhBLjMuMywwLDAsMSwyLjU4MSw2LjA5M1oiLz48cGF0aCBmaWxsPSIjNTBlNmZmIiB0cmFuc2Zvcm09InRyYW5zbGF0ZSgxNC41NDIgLTYuMzMzKSByb3RhdGUoNDUuMDgxKSIgZD0iTTE0LjEzMiwxMC40NDloLjkzN2EuNi42LDAsMCwxLC42LjZ2Ni45MDlhLjMuMywwLDAsMS0uMy4zaC0uOTM3YS4zLjMsMCwwLDEtLjMtLjNWMTAuNDQ5YTAsMCwwLDAsMSwwLDBaIi8+PHBhdGggZmlsbD0iIzE0OTBkZiIgdHJhbnNmb3JtPSJ0cmFuc2xhdGUoMzIuNTU4IDYuNDI0KSByb3RhdGUoMTM1LjA4MSkiIGQ9Ik0xNC43ODIsNi4wOTNoLjkzN2EwLDAsMCwwLDEsMCwwdjcuNGEuMy4zLDAsMCwxLS4zLjNoLS45MzdhLjMuMywwLDAsMS0uMy0uM3YtNi44QS42LjYsMCwwLDEsMTQuNzgyLDYuMDkzWiIvPjwvZz48Y2lyY2xlIGZpbGw9InVybCgjYTYyYTljYWQtYjE3My00Nzg1LWJhODEtOGVlMzBkNGRjNmViKSIgcj0iMS43MzgiIGN5PSIxMi4xMDYiIGN4PSI5LjA2NSIvPjwvZz48L2c+PC9zdmc+;strokeColor=#00FFFF;fillColor=none;" parent="1" vertex="1">
                    <mxGeometry x="1300" y="825" width="40" height="40" as="geometry"/>
                </mxCell>
                <mxCell id="20" value="" style="shape=image;verticalLabelPosition=bottom;labelBackgroundColor=default;verticalAlign=top;aspect=fixed;imageAspect=0;image=data:image/svg+xml,PHN2ZyB4bWxucz0iaHR0cDovL3d3dy53My5vcmcvMjAwMC9zdmciIHZpZXdCb3g9IjAgMCAxOCAxOCIgaGVpZ2h0PSIxOCIgd2lkdGg9IjE4Ij48ZGVmcz48bGluZWFyR3JhZGllbnQgZ3JhZGllbnRVbml0cz0idXNlclNwYWNlT25Vc2UiIGdyYWRpZW50VHJhbnNmb3JtPSJtYXRyaXgoMSwgMCwgMCwgLTEsIDAsIDc5MS41MTYpIiB5Mj0iNzg3LjQ5MiIgeDI9IjkuMDg0IiB5MT0iNzkwLjk2NyIgeDE9IjkuMDg0IiBpZD0iZjM4NmJiN2EtYmNiMi00YjY3LWI1YjItMDY4MTk2MThmZjUxIj48c3RvcCBzdG9wLWNvbG9yPSIjNTBlNmZmIiBvZmZzZXQ9IjAiLz48c3RvcCBzdG9wLWNvbG9yPSIjMzJiZWRkIiBvZmZzZXQ9IjEiLz48L2xpbmVhckdyYWRpZW50PjxsaW5lYXJHcmFkaWVudCBncmFkaWVudFVuaXRzPSJ1c2VyU3BhY2VPblVzZSIgeTI9IjEwLjM2OCIgeDI9IjkuMDY1IiB5MT0iMTMuODQzIiB4MT0iOS4wNjUiIGlkPSJhNjJhOWNhZC1iMTczLTQ3ODUtYmE4MS04ZWUzMGQ0ZGM2ZWIiPjxzdG9wIHN0b3AtY29sb3I9IiM1ZTk2MjQiIG9mZnNldD0iMCIvPjxzdG9wIHN0b3AtY29sb3I9IiM2MjljMjUiIG9mZnNldD0iMC4xODMiLz48c3RvcCBzdG9wLWNvbG9yPSIjNmRhZTJhIiBvZmZzZXQ9IjAuNDM1Ii8+PHN0b3Agc3RvcC1jb2xvcj0iIzdmY2IzMCIgb2Zmc2V0PSIwLjcyNiIvPjxzdG9wIHN0b3AtY29sb3I9IiM4NmQ2MzMiIG9mZnNldD0iMC44MjIiLz48L2xpbmVhckdyYWRpZW50PjwvZGVmcz48ZyBpZD0iYmRjZDcyNjgtMzFmYy00MTYzLTk1NDQtNjUxZDYxZjE0OThlIj48Zz48cGF0aCBmaWxsPSIjYjNiM2IzIiBkPSJNNy44NSwxMy4zNDJhMS43MzgsMS43MzgsMCwxLDAsMi40MzYtMi40NzksMS43MTUsMS43MTUsMCwwLDAtLjYyNi0uMzg5VjMuMDA5SDguNTQ4djcuNDQ0YTEuNzI5LDEuNzI5LDAsMCwwLS43LDIuODkxWiIvPjxjaXJjbGUgZmlsbD0idXJsKCNmMzg2YmI3YS1iY2IyLTRiNjctYjViMi0wNjgxOTYxOGZmNTEpIiByPSIxLjczOCIgY3k9IjIuMjA5IiBjeD0iOS4wODQiLz48Zz48cGF0aCBmaWxsPSIjNTBlNmZmIiB0cmFuc2Zvcm09InRyYW5zbGF0ZSgxNS40NTIgMjIuMjkyKSByb3RhdGUoMTM0LjkxOSkiIGQ9Ik0yLjYzMiwxMC40NDloLjkzN2EuMy4zLDAsMCwxLC4zLjN2Ni45MDlhLjYuNiwwLDAsMS0uNi42SDIuMzMyYTAsMCwwLDAsMSwwLDBWMTAuNzQ5QS4zLjMsMCwwLDEsMi42MzIsMTAuNDQ5WiIvPjxwYXRoIGZpbGw9IiMxNDkwZGYiIHRyYW5zZm9ybT0idHJhbnNsYXRlKDcuOTEgMC43NDkpIHJvdGF0ZSg0NC45MTkpIiBkPSJNMi41ODEsNi4wOTNoLjkzN2EuMy4zLDAsMCwxLC4zLjN2Ny40YTAsMCwwLDAsMSwwLDBIMi44OGEuNi42LDAsMCwxLS42LS42di02LjhBLjMuMywwLDAsMSwyLjU4MSw2LjA5M1oiLz48cGF0aCBmaWxsPSIjNTBlNmZmIiB0cmFuc2Zvcm09InRyYW5zbGF0ZSgxNC41NDIgLTYuMzMzKSByb3RhdGUoNDUuMDgxKSIgZD0iTTE0LjEzMiwxMC40NDloLjkzN2EuNi42LDAsMCwxLC42LjZ2Ni45MDlhLjMuMywwLDAsMS0uMy4zaC0uOTM3YS4zLjMsMCwwLDEtLjMtLjNWMTAuNDQ5YTAsMCwwLDAsMSwwLDBaIi8+PHBhdGggZmlsbD0iIzE0OTBkZiIgdHJhbnNmb3JtPSJ0cmFuc2xhdGUoMzIuNTU4IDYuNDI0KSByb3RhdGUoMTM1LjA4MSkiIGQ9Ik0xNC43ODIsNi4wOTNoLjkzN2EwLDAsMCwwLDEsMCwwdjcuNGEuMy4zLDAsMCwxLS4zLjNoLS45MzdhLjMuMywwLDAsMS0uMy0uM3YtNi44QS42LjYsMCwwLDEsMTQuNzgyLDYuMDkzWiIvPjwvZz48Y2lyY2xlIGZpbGw9InVybCgjYTYyYTljYWQtYjE3My00Nzg1LWJhODEtOGVlMzBkNGRjNmViKSIgcj0iMS43MzgiIGN5PSIxMi4xMDYiIGN4PSI5LjA2NSIvPjwvZz48L2c+PC9zdmc+;strokeColor=#00FFFF;fillColor=none;" parent="1" vertex="1">
                    <mxGeometry x="1360" y="825" width="40" height="40" as="geometry"/>
                </mxCell>
                <mxCell id="21" value="" style="shape=image;verticalLabelPosition=bottom;labelBackgroundColor=#ffffff;verticalAlign=top;aspect=fixed;imageAspect=0;image=data:image/svg+xml,PHN2ZyB4bWxucz0iaHR0cDovL3d3dy53My5vcmcvMjAwMC9zdmciIHZpZXdCb3g9IjAgMCA1MCA1MCI+PHBhdGggZD0iTTQ5IDF2NDhIMVYxaDQ4bTEtMUgwdjUwaDUwVjBoMHoiIG9wYWNpdHk9Ii4wMSIgZmlsbD0ibm9uZSIgc3Ryb2tlPSIjZmZmIiBzdHJva2Utd2lkdGg9Ii4wMDEiIHN0cm9rZS1taXRlcmxpbWl0PSIxMCIvPjxwYXRoIGQ9Ik0yMi4zIDM3LjNDMTUuOCA0MS44IDUuNCA0OC43IDQuNCA0OS41Yy0xLjMuOS0zLjIuNS0zLjgtLjMtLjYtLjktLjYtMi44LjctMy43LjgtLjUgMTQuNS05LjggMTguNy0xMi43bDIuNCAyLjZjMS4xIDEuMS0uMSAxLjktLjEgMS45ek0yMiAzMVMxMCAxOC4xIDguNiAxNi43Yy0xLjMtMS41LS4xLTMuMi42LTMuOC43LS42IDIuOC0xLjUgMy45LS40UzI3LjYgMjggMjguNiAyOS4xcy45IDIuOC0uOCA0Yy0uMy4yLTEuMS44LTIuMyAxLjYtLjEuMS0uNi41LTEuMS44IDAgMCAxLjEtLjguMy0xLjdMMjIgMzF6TTMwLjYgMjIuNWM1LjQgNS44IDEzLjggMTQuOSAxNC43IDE1LjggMS4xIDEuMiAzIDEuMiAzLjguNXMxLjItMi41LjEtMy43Yy0uNi0uNy0xMS45LTEyLjgtMTUuMy0xNi41bC0yLjkgMmMtMS40LjgtLjQgMS45LS40IDEuOXpNMzEuOCAxNi42UzQ2LjMgNi41IDQ3LjkgNS4zcy44LTMuMS4yLTMuOFM0NS43LS42IDQ0LjQuMyAyNyAxMi40IDI1LjggMTMuM3MtMS41IDIuNSAwIDQuMWMuMi4zLjkgMSAxLjkgMi4xLjEuMS41LjYuOSAxIDAgMC0uOS0xIC4xLTEuN2wzLjEtMi4yeiIgZmlsbD0iIzAwNzJjNiIvPjwvc3ZnPg==;strokeColor=#00FFFF;fillColor=none;" parent="1" vertex="1">
                    <mxGeometry x="1300" y="744" width="40" height="40" as="geometry"/>
                </mxCell>
                <mxCell id="22" value="&lt;font color=&quot;#ffffff&quot;&gt;hubVnet&lt;/font&gt;" style="text;strokeColor=none;align=left;fillColor=none;html=1;verticalAlign=middle;whiteSpace=wrap;rounded=0;" parent="1" vertex="1">
                    <mxGeometry x="1230" y="912" width="60" height="30" as="geometry"/>
                </mxCell>
                <mxCell id="23" value="" style="whiteSpace=wrap;html=1;fillColor=none;strokeColor=#00FFFF;" parent="1" vertex="1">
                    <mxGeometry x="880" y="570" width="280" height="370" as="geometry"/>
                </mxCell>
                <mxCell id="24" value="" style="shape=image;verticalLabelPosition=bottom;verticalAlign=top;imageAspect=0;aspect=fixed;image=data:image/svg+xml,PHN2ZyB4bWxucz0iaHR0cDovL3d3dy53My5vcmcvMjAwMC9zdmciIGlkPSJhMTYwNmE1Mi1mYjE0LTQ2MzctODdkZS00ZDUyNGJiYTE4MjkiIHdpZHRoPSIxOCIgaGVpZ2h0PSIxOCIgdmlld0JveD0iMCAwIDE4IDE4Ij4mI3hhOyAgICA8ZGVmcz4mI3hhOyAgICAgICAgPGxpbmVhckdyYWRpZW50IGlkPSJmMDIwZmI3ZS0yMjQzLTQ1MDEtODE1My01ZDY5YmQzYzM0ZjciIHgxPSI5Ljg4IiB5MT0iOC41OSIgeDI9IjExLjUyIiB5Mj0iMTAuMjMiIGdyYWRpZW50VHJhbnNmb3JtPSJ0cmFuc2xhdGUoMi4wMyAtMC40KSByb3RhdGUoLTAuMDgpIiBncmFkaWVudFVuaXRzPSJ1c2VyU3BhY2VPblVzZSI+JiN4YTsgICAgICAgICAgICA8c3RvcCBvZmZzZXQ9IjAiIHN0b3AtY29sb3I9IiM4NmQ2MzMiLz4mI3hhOzxzdG9wIG9mZnNldD0iMSIgc3RvcC1jb2xvcj0iIzVlOTYyNCIvPiYjeGE7ICAgICAgICA8L2xpbmVhckdyYWRpZW50PiYjeGE7ICAgICAgICA8bGluZWFyR3JhZGllbnQgaWQ9ImIzYzJiYzk0LThjN2MtNDhhMi05NzE5LTZlZTg5OWE0M2E5NyIgeDE9IjYuMTgiIHkxPSI4LjU5IiB4Mj0iNy44MSIgeTI9IjEwLjIzIiBncmFkaWVudFVuaXRzPSJ1c2VyU3BhY2VPblVzZSI+JiN4YTsgICAgICAgICAgICAgICAgICAgIDxzdG9wIG9mZnNldD0iMCIgc3RvcC1jb2xvcj0iIzg2ZDYzMyIvPiYjeGE7PHN0b3Agb2Zmc2V0PSIxIiBzdG9wLWNvbG9yPSIjNWU5NjI0Ii8+JiN4YTsgICAgICAgIDwvbGluZWFyR3JhZGllbnQ+JiN4YTsgICAgICAgIDxsaW5lYXJHcmFkaWVudCBpZD0iZTkwMGMzNWQtMDk1OC00ZDRmLWIyOGYtMzAyZWVhYWY1MmY1IiB4MT0iMi40OCIgeTE9IjguNTkiIHgyPSI0LjExIiB5Mj0iMTAuMjMiIGdyYWRpZW50VW5pdHM9InVzZXJTcGFjZU9uVXNlIj4mI3hhOyAgICAgICAgICAgICAgICAgICAgPHN0b3Agb2Zmc2V0PSIwIiBzdG9wLWNvbG9yPSIjODZkNjMzIi8+JiN4YTs8c3RvcCBvZmZzZXQ9IjEiIHN0b3AtY29sb3I9IiM1ZTk2MjQiLz4mI3hhOyAgICAgICAgPC9saW5lYXJHcmFkaWVudD4mI3hhOyAgICA8L2RlZnM+JiN4YTsgICAgPHRpdGxlPkljb24tbmV0d29ya2luZy02MTwvdGl0bGU+JiN4YTsgICAgPGNpcmNsZSBjeD0iMTIuNzQiIGN5PSI4Ljk5IiByPSIxLjE2IiBmaWxsPSJ1cmwoI2YwMjBmYjdlLTIyNDMtNDUwMS04MTUzLTVkNjliZDNjMzRmNykiLz4mI3hhOyAgICA8Y2lyY2xlIGN4PSI5LjA0IiBjeT0iOSIgcj0iMS4xNiIgZmlsbD0idXJsKCNiM2MyYmM5NC04YzdjLTQ4YTItOTcxOS02ZWU4OTlhNDNhOTcpIi8+JiN4YTsgICAgPGNpcmNsZSBjeD0iNS4zNCIgY3k9IjkiIHI9IjEuMTYiIGZpbGw9InVybCgjZTkwMGMzNWQtMDk1OC00ZDRmLWIyOGYtMzAyZWVhYWY1MmY1KSIvPiYjeGE7ICAgIDxwYXRoIGQ9Ik0yLjYxLDcuMjhoLjk0YS4zLjMsMCwwLDEsLjMuM3Y2Ljk0YS42LjYsMCwwLDEtLjYuNkgyLjMxYTAsMCwwLDAsMSwwLDBWNy41OGEuMy4zLDAsMCwxLC4zLS4zWiIgdHJhbnNmb3JtPSJ0cmFuc2xhdGUoMTMuMTggMTYuOTMpIHJvdGF0ZSgxMzQuOTIpIiBmaWxsPSIjNTBlNmZmIi8+JiN4YTsgICAgPHBhdGggZD0iTTIuNTYsMi45MUgzLjVhLjMuMywwLDAsMSwuMy4zdjcuNDNhMCwwLDAsMCwxLDAsMEgyLjg2YS42LjYsMCwwLDEtLjYtLjZWMy4yMWEuMy4zLDAsMCwxLC4zLS4zWiIgdHJhbnNmb3JtPSJ0cmFuc2xhdGUoNS42NiAtMC4xNikgcm90YXRlKDQ0LjkyKSIgZmlsbD0iIzE0OTBkZiIvPiYjeGE7ICAgIDxwYXRoIGQ9Ik0xNC4xNSw3LjI4aC45NGEuNi42LDAsMCwxLC42LjZ2Ni45NGEuMy4zLDAsMCwxLS4zLjNoLS45NGEuMy4zLDAsMCwxLS4zLS4zVjcuMjhhMCwwLDAsMCwxLDAsMFoiIHRyYW5zZm9ybT0idHJhbnNsYXRlKDEyLjMyIC03LjI4KSByb3RhdGUoNDUuMDgpIiBmaWxsPSIjNTBlNmZmIi8+JiN4YTsgICAgPHBhdGggZD0iTTE0LjgxLDIuOTFoLjk0YTAsMCwwLDAsMSwwLDB2Ny40M2EuMy4zLDAsMCwxLS4zLjNIMTQuNWEuMy4zLDAsMCwxLS4zLS4zVjMuNTFhLjYuNiwwLDAsMSwuNi0uNloiIHRyYW5zZm9ybT0idHJhbnNsYXRlKDMwLjM2IDAuOTkpIHJvdGF0ZSgxMzUuMDgpIiBmaWxsPSIjMTQ5MGRmIi8+JiN4YTs8L3N2Zz4=" parent="1" vertex="1">
                    <mxGeometry x="890" y="900" width="40" height="40" as="geometry"/>
                </mxCell>
                <mxCell id="25" value="" style="whiteSpace=wrap;html=1;fillColor=none;strokeColor=#00FFFF;" parent="1" vertex="1">
                    <mxGeometry x="890" y="580" width="260" height="70" as="geometry"/>
                </mxCell>
                <mxCell id="26" value="" style="shape=image;verticalLabelPosition=bottom;labelBackgroundColor=default;verticalAlign=top;aspect=fixed;imageAspect=0;image=data:image/svg+xml,PHN2ZyB4bWxucz0iaHR0cDovL3d3dy53My5vcmcvMjAwMC9zdmciIHZpZXdCb3g9IjAgMCAxOCAxOCIgaGVpZ2h0PSIxOCIgd2lkdGg9IjE4Ij48ZGVmcz48bGluZWFyR3JhZGllbnQgZ3JhZGllbnRVbml0cz0idXNlclNwYWNlT25Vc2UiIHkyPSI3LjY5NSIgeDI9IjkuMDMzIiB5MT0iMTAuMzA1IiB4MT0iOS4wMzMiIGlkPSJiY2ViNjBkZC04YjhjLTQwOTgtOTRmOC1hZWI0ZGIyZWRhZWYiPjxzdG9wIHN0b3AtY29sb3I9IiM1ZTk2MjQiIG9mZnNldD0iMCIvPjxzdG9wIHN0b3AtY29sb3I9IiM2ZmIwMmEiIG9mZnNldD0iMC4yNDEiLz48c3RvcCBzdG9wLWNvbG9yPSIjN2NjNTJmIiBvZmZzZXQ9IjAuNTAxIi8+PHN0b3Agc3RvcC1jb2xvcj0iIzgzZDIzMiIgb2Zmc2V0PSIwLjc1NiIvPjxzdG9wIHN0b3AtY29sb3I9IiM4NmQ2MzMiIG9mZnNldD0iMSIvPjwvbGluZWFyR3JhZGllbnQ+PC9kZWZzPjxnIGlkPSJhYzc1YzIxZS0yYTkzLTQ2NGYtODA0OC1mMTUxOGRhYjhiNzUiPjxnPjxwYXRoIGZpbGw9InVybCgjYmNlYjYwZGQtOGI4Yy00MDk4LTk0ZjgtYWViNGRiMmVkYWVmKSIgZD0iTTkuMDMxLDcuN0ExLjMwNSwxLjMwNSwwLDEsMCwxMC4zMzgsOSwxLjMwNSwxLjMwNSwwLDAsMCw5LjAzMSw3LjdaIi8+PGc+PHBhdGggZmlsbD0iIzUwZTZmZiIgdHJhbnNmb3JtPSJ0cmFuc2xhdGUoMTMuNjUzIDE2LjQ4NSkgcm90YXRlKDEzNC45MTkpIiBkPSJNMi45NjEsNy4zNzRoLjg4OGEuMjg0LjI4NCwwLDAsMSwuMjg0LjI4NHY2LjU1MWEuNTY4LjU2OCwwLDAsMS0uNTY4LjU2OEgyLjY3N2EwLDAsMCwwLDEsMCwwVjcuNjU5QS4yODQuMjg0LDAsMCwxLDIuOTYxLDcuMzc0WiIvPjxwYXRoIGZpbGw9IiMxNDkwZGYiIHRyYW5zZm9ybT0idHJhbnNsYXRlKDUuODQ3IC0wLjM1OCkgcm90YXRlKDQ0LjkxOSkiIGQ9Ik0yLjkxMywzLjI0NEgzLjhhLjI4NC4yODQsMCwwLDEsLjI4NC4yODR2Ny4wMTVhMCwwLDAsMCwxLDAsMEgzLjJhLjU2OC41NjgsMCwwLDEtLjU2OC0uNTY4VjMuNTI4YS4yODQuMjg0LDAsMCwxLC4yODQtLjI4NFoiLz48cGF0aCBmaWxsPSIjNTBlNmZmIiB0cmFuc2Zvcm09InRyYW5zbGF0ZSgxMi4xMzIgLTcuMDc5KSByb3RhdGUoNDUuMDgxKSIgZD0iTTEzLjg2Nyw3LjM3NGguODg4YS41NjguNTY4LDAsMCwxLC41NjguNTY4djYuNTUxYS4yODQuMjg0LDAsMCwxLS4yODQuMjg0aC0uODg4YS4yODQuMjg0LDAsMCwxLS4yODQtLjI4NFY3LjM3NGEwLDAsMCwwLDEsMCwwWiIvPjxwYXRoIGZpbGw9IiMxNDkwZGYiIHRyYW5zZm9ybT0idHJhbnNsYXRlKDI5Ljg3OSAxLjQzNSkgcm90YXRlKDEzNS4wODEpIiBkPSJNMTQuNDgzLDMuMjQ0aC44ODhhMCwwLDAsMCwxLDAsMHY3LjAxNWEuMjg0LjI4NCwwLDAsMS0uMjg0LjI4NEgxNC4yYS4yODQuMjg0LDAsMCwxLS4yODQtLjI4NFYzLjgxMmEuNTY4LjU2OCwwLDAsMSwuNTY4LS41NjhaIi8+PC9nPjwvZz48L2c+PC9zdmc+;" parent="1" vertex="1">
                    <mxGeometry x="900" y="610" width="40" height="40" as="geometry"/>
                </mxCell>
                <mxCell id="27" value="" style="whiteSpace=wrap;html=1;fillColor=none;strokeColor=#00FFFF;" parent="1" vertex="1">
                    <mxGeometry x="890" y="660" width="260" height="70" as="geometry"/>
                </mxCell>
                <mxCell id="28" value="" style="shape=image;verticalLabelPosition=bottom;labelBackgroundColor=default;verticalAlign=top;aspect=fixed;imageAspect=0;image=data:image/svg+xml,PHN2ZyB4bWxucz0iaHR0cDovL3d3dy53My5vcmcvMjAwMC9zdmciIHZpZXdCb3g9IjAgMCAxOCAxOCIgaGVpZ2h0PSIxOCIgd2lkdGg9IjE4Ij48ZGVmcz48bGluZWFyR3JhZGllbnQgZ3JhZGllbnRVbml0cz0idXNlclNwYWNlT25Vc2UiIHkyPSI3LjY5NSIgeDI9IjkuMDMzIiB5MT0iMTAuMzA1IiB4MT0iOS4wMzMiIGlkPSJiY2ViNjBkZC04YjhjLTQwOTgtOTRmOC1hZWI0ZGIyZWRhZWYiPjxzdG9wIHN0b3AtY29sb3I9IiM1ZTk2MjQiIG9mZnNldD0iMCIvPjxzdG9wIHN0b3AtY29sb3I9IiM2ZmIwMmEiIG9mZnNldD0iMC4yNDEiLz48c3RvcCBzdG9wLWNvbG9yPSIjN2NjNTJmIiBvZmZzZXQ9IjAuNTAxIi8+PHN0b3Agc3RvcC1jb2xvcj0iIzgzZDIzMiIgb2Zmc2V0PSIwLjc1NiIvPjxzdG9wIHN0b3AtY29sb3I9IiM4NmQ2MzMiIG9mZnNldD0iMSIvPjwvbGluZWFyR3JhZGllbnQ+PC9kZWZzPjxnIGlkPSJhYzc1YzIxZS0yYTkzLTQ2NGYtODA0OC1mMTUxOGRhYjhiNzUiPjxnPjxwYXRoIGZpbGw9InVybCgjYmNlYjYwZGQtOGI4Yy00MDk4LTk0ZjgtYWViNGRiMmVkYWVmKSIgZD0iTTkuMDMxLDcuN0ExLjMwNSwxLjMwNSwwLDEsMCwxMC4zMzgsOSwxLjMwNSwxLjMwNSwwLDAsMCw5LjAzMSw3LjdaIi8+PGc+PHBhdGggZmlsbD0iIzUwZTZmZiIgdHJhbnNmb3JtPSJ0cmFuc2xhdGUoMTMuNjUzIDE2LjQ4NSkgcm90YXRlKDEzNC45MTkpIiBkPSJNMi45NjEsNy4zNzRoLjg4OGEuMjg0LjI4NCwwLDAsMSwuMjg0LjI4NHY2LjU1MWEuNTY4LjU2OCwwLDAsMS0uNTY4LjU2OEgyLjY3N2EwLDAsMCwwLDEsMCwwVjcuNjU5QS4yODQuMjg0LDAsMCwxLDIuOTYxLDcuMzc0WiIvPjxwYXRoIGZpbGw9IiMxNDkwZGYiIHRyYW5zZm9ybT0idHJhbnNsYXRlKDUuODQ3IC0wLjM1OCkgcm90YXRlKDQ0LjkxOSkiIGQ9Ik0yLjkxMywzLjI0NEgzLjhhLjI4NC4yODQsMCwwLDEsLjI4NC4yODR2Ny4wMTVhMCwwLDAsMCwxLDAsMEgzLjJhLjU2OC41NjgsMCwwLDEtLjU2OC0uNTY4VjMuNTI4YS4yODQuMjg0LDAsMCwxLC4yODQtLjI4NFoiLz48cGF0aCBmaWxsPSIjNTBlNmZmIiB0cmFuc2Zvcm09InRyYW5zbGF0ZSgxMi4xMzIgLTcuMDc5KSByb3RhdGUoNDUuMDgxKSIgZD0iTTEzLjg2Nyw3LjM3NGguODg4YS41NjguNTY4LDAsMCwxLC41NjguNTY4djYuNTUxYS4yODQuMjg0LDAsMCwxLS4yODQuMjg0aC0uODg4YS4yODQuMjg0LDAsMCwxLS4yODQtLjI4NFY3LjM3NGEwLDAsMCwwLDEsMCwwWiIvPjxwYXRoIGZpbGw9IiMxNDkwZGYiIHRyYW5zZm9ybT0idHJhbnNsYXRlKDI5Ljg3OSAxLjQzNSkgcm90YXRlKDEzNS4wODEpIiBkPSJNMTQuNDgzLDMuMjQ0aC44ODhhMCwwLDAsMCwxLDAsMHY3LjAxNWEuMjg0LjI4NCwwLDAsMS0uMjg0LjI4NEgxNC4yYS4yODQuMjg0LDAsMCwxLS4yODQtLjI4NFYzLjgxMmEuNTY4LjU2OCwwLDAsMSwuNTY4LS41NjhaIi8+PC9nPjwvZz48L2c+PC9zdmc+;" parent="1" vertex="1">
                    <mxGeometry x="900" y="690" width="40" height="40" as="geometry"/>
                </mxCell>
                <mxCell id="33" value="&lt;font color=&quot;#ffffff&quot;&gt;GatewaySubnet&lt;/font&gt;" style="text;strokeColor=none;align=left;fillColor=none;html=1;verticalAlign=middle;whiteSpace=wrap;rounded=0;" parent="1" vertex="1">
                    <mxGeometry x="940" y="624" width="60" height="30" as="geometry"/>
                </mxCell>
                <mxCell id="34" value="&lt;font color=&quot;#ffffff&quot;&gt;remoteClientSubnet&lt;/font&gt;" style="text;strokeColor=none;align=left;fillColor=none;html=1;verticalAlign=middle;whiteSpace=wrap;rounded=0;" parent="1" vertex="1">
                    <mxGeometry x="940" y="706" width="60" height="30" as="geometry"/>
                </mxCell>
                <mxCell id="36" style="edgeStyle=none;html=1;" parent="1" edge="1">
                    <mxGeometry relative="1" as="geometry">
                        <mxPoint x="995.5" y="890" as="sourcePoint"/>
                        <mxPoint x="995.5" y="890" as="targetPoint"/>
                    </mxGeometry>
                </mxCell>
                <mxCell id="39" value="" style="shape=image;verticalLabelPosition=bottom;verticalAlign=top;imageAspect=0;aspect=fixed;image=data:image/svg+xml,PHN2ZyB4bWxucz0iaHR0cDovL3d3dy53My5vcmcvMjAwMC9zdmciIGlkPSJiNmY3NGNhNS0zYWU2LTQyNmYtOWVmMS05ZmY2YmJhYTdmMWMiIHdpZHRoPSIxOCIgaGVpZ2h0PSIxOCIgdmlld0JveD0iMCAwIDE4IDE4Ij48ZGVmcz48bGluZWFyR3JhZGllbnQgaWQ9ImJkNzMwNWY4LTg3ODktNDYwMC1hMWYyLTY1OTRlNjBlZWZjYyIgeDE9IjguNTkiIHkxPSItNy43OSIgeDI9IjkuMTIiIHkyPSIyMC4wNSIgZ3JhZGllbnRVbml0cz0idXNlclNwYWNlT25Vc2UiPjxzdG9wIG9mZnNldD0iMC4yMiIgc3RvcC1jb2xvcj0iIzMyZDRmNSIvPjxzdG9wIG9mZnNldD0iMC40NyIgc3RvcC1jb2xvcj0iIzMxZDFmMyIvPjxzdG9wIG9mZnNldD0iMC42MyIgc3RvcC1jb2xvcj0iIzJlYzllYiIvPjxzdG9wIG9mZnNldD0iMC43NyIgc3RvcC1jb2xvcj0iIzI5YmFkZSIvPjxzdG9wIG9mZnNldD0iMC44OSIgc3RvcC1jb2xvcj0iIzIyYTVjYiIvPjxzdG9wIG9mZnNldD0iMSIgc3RvcC1jb2xvcj0iIzE5OGFiMyIvPjxzdG9wIG9mZnNldD0iMSIgc3RvcC1jb2xvcj0iIzE5OGFiMyIvPjwvbGluZWFyR3JhZGllbnQ+PC9kZWZzPjx0aXRsZT5JY29uLW5ldHdvcmtpbmctNjM8L3RpdGxlPjxwYXRoIGQ9Ik0xNS4wNiw4LjY3aC0xVjUuNTlhNS44MSw1LjgxLDAsMCwwLTEuNDktMy45MkE0Ljc5LDQuNzksMCwwLDAsOC45MSwwYTQuNzksNC43OSwwLDAsMC0zLjcsMS42N0E1LjczLDUuNzMsMCwwLDAsMy43Miw1LjU5VjguNjdIMi45MWEuNy43LDAsMCwwLS42OS42OXY4YS43LjcsMCwwLDAsLjY5LjY5SDE1LjA2YS43MS43MSwwLDAsMCwuNy0uNjlWOS4zNkEuNzEuNzEsMCwwLDAsMTUuMDYsOC42N1ptLTMuMzcsMEg2LjEzVjUuNTRBMy4xOCwzLjE4LDAsMCwxLDcsMy4zOWEyLjUxLDIuNTEsMCwwLDEsMS44OC0uODYsMi41NCwyLjU0LDAsMCwxLDEuODkuODYsMy4xOSwzLjE5LDAsMCwxLC4zMi40M2gwYTMsMywwLDAsMSwuNjEsMS43MVoiIGZpbGw9InVybCgjYmQ3MzA1ZjgtODc4OS00NjAwLWExZjItNjU5NGU2MGVlZmNjKSIvPjxwYXRoIGQ9Ik0xNS4wOSw4LjY3SDIuOTJhLjY2LjY2LDAsMCwwLS40NC4xN2wxMy4wNSw5YS42Ny42NywwLDAsMCwuMjUtLjUydi04QS43MS43MSwwLDAsMCwxNS4wOSw4LjY3WiIgZmlsbD0iIzUwZTZmZiIvPjxwYXRoIGQ9Ik0yLjk0LDguNjdIMTUuMWEuNy43LDAsMCwxLC40NS4xN2wtMTMuMDYsOWEuNy43LDAsMCwxLS4yNS0uNTJ2LThBLjcyLjcyLDAsMCwxLDIuOTQsOC42N1oiIGZpbGw9IiNmZmYiIG9wYWNpdHk9IjAuMiIvPjxwYXRoIGQ9Ik03LjgsMTAuNiw5LDkuNGEuMDcuMDcsMCwwLDEsLjA5LDBsMS4xOSwxLjJhLjA2LjA2LDAsMCwxLDAsLjFoLS43YS4wNi4wNiwwLDAsMC0uMDYuMDZWMTIuM2EuMDYuMDYsMCwwLDEtLjA2LjA2SDguNjdhLjA1LjA1LDAsMCwxLS4wNi0uMDZWMTAuNzZhLjA3LjA3LDAsMCwwLS4wNy0uMDZoLS43QS4wNi4wNiwwLDAsMSw3LjgsMTAuNlptMi40Nyw1LjQ4TDkuMDgsMTcuMjdhLjA2LjA2LDAsMCwxLS4wOSwwTDcuOCwxNi4wOGEuMDYuMDYsMCwwLDEsMC0uMWguN2EuMDcuMDcsMCwwLDAsLjA3LS4wNlYxNC4zN2EuMDYuMDYsMCwwLDEsLjA2LS4wNmguNzRhLjA2LjA2LDAsMCwxLC4wNi4wNnYxLjU1YS4wNi4wNiwwLDAsMCwuMDYuMDZoLjdBLjA2LjA2LDAsMCwxLDEwLjI3LDE2LjA4Wm0tNC43LTEuNTV2LS43YS4wNi4wNiwwLDAsMC0uMDYtLjA2SDRhLjA2LjA2LDAsMCwxLS4wNi0uMDZWMTNBLjA2LjA2LDAsMCwxLDQsMTIuOTFINS41MWEuMDYuMDYsMCwwLDAsLjA2LS4wNnYtLjdhLjA3LjA3LDAsMCwxLC4xMS0uMDVsMS4xOSwxLjJhLjA2LjA2LDAsMCwxLDAsLjA4bC0xLjE5LDEuMkEuMDcuMDcsMCwwLDEsNS41NywxNC41M1ptNi45My0yLjM4di43YS4wNi4wNiwwLDAsMCwuMDYuMDZIMTQuMXMuMDcsMCwuMDcuMDZ2Ljc0YS4wNy4wNywwLDAsMS0uMDcuMDZIMTIuNTZhLjA2LjA2LDAsMCwwLS4wNi4wNnYuN2EuMDYuMDYsMCwwLDEtLjEuMDVsLTEuMTktMS4yYTAsMCwwLDAsMSwwLS4wOGwxLjE5LTEuMlMxMi41LDEyLjA5LDEyLjUsMTIuMTVaIiBmaWxsPSIjZmZmIi8+PC9zdmc+;strokeColor=#00FFFF;fillColor=none;" parent="1" vertex="1">
                    <mxGeometry x="1000" y="584" width="40" height="40" as="geometry"/>
                </mxCell>
                <mxCell id="43" value="&lt;font color=&quot;#ffffff&quot;&gt;remoteVnet&lt;/font&gt;" style="text;strokeColor=none;align=left;fillColor=none;html=1;verticalAlign=middle;whiteSpace=wrap;rounded=0;" parent="1" vertex="1">
                    <mxGeometry x="930" y="912" width="60" height="30" as="geometry"/>
                </mxCell>
                <mxCell id="44" value="" style="shape=image;verticalLabelPosition=bottom;verticalAlign=top;imageAspect=0;aspect=fixed;image=data:image/svg+xml,PHN2ZyB4bWxucz0iaHR0cDovL3d3dy53My5vcmcvMjAwMC9zdmciIGlkPSJmOGNjNjdiNi04OGQyLTRkNjUtYjlkNC0wODg3ZTA0ZDFmMzgiIHdpZHRoPSIxOCIgaGVpZ2h0PSIxOCIgdmlld0JveD0iMCAwIDE4IDE4Ij48ZGVmcz48cmFkaWFsR3JhZGllbnQgaWQ9ImIxY2Q0NGYyLWQ2MmItNDc1My1hODU5LWFhNjhmMDg5Y2RjYSIgY3g9IjQ2LjQyIiBjeT0iNDMuMjEiIHI9IjkiIGdyYWRpZW50VHJhbnNmb3JtPSJ0cmFuc2xhdGUoLTM0Ljg0IC0zMS44MSkgc2NhbGUoMC45NCAwLjk0KSIgZ3JhZGllbnRVbml0cz0idXNlclNwYWNlT25Vc2UiPjxzdG9wIG9mZnNldD0iMC4xOCIgc3RvcC1jb2xvcj0iIzVlYTBlZiIvPjxzdG9wIG9mZnNldD0iMC41NiIgc3RvcC1jb2xvcj0iIzVjOWZlZSIvPjxzdG9wIG9mZnNldD0iMC42OSIgc3RvcC1jb2xvcj0iIzU1OWNlZCIvPjxzdG9wIG9mZnNldD0iMC43OCIgc3RvcC1jb2xvcj0iIzRhOTdlOSIvPjxzdG9wIG9mZnNldD0iMC44NiIgc3RvcC1jb2xvcj0iIzM5OTBlNCIvPjxzdG9wIG9mZnNldD0iMC45MyIgc3RvcC1jb2xvcj0iIzIzODdkZSIvPjxzdG9wIG9mZnNldD0iMC45OSIgc3RvcC1jb2xvcj0iIzA4N2JkNiIvPjxzdG9wIG9mZnNldD0iMSIgc3RvcC1jb2xvcj0iIzAwNzhkNCIvPjwvcmFkaWFsR3JhZGllbnQ+PGNsaXBQYXRoIGlkPSJmMGM2OGRlNy04YWFjLTQwMzgtYmQ0Yi04ZTBmYjhmYWI1ZmMiPjxwYXRoIGQ9Ik0xMC41OCw4LjM0LDEzLDEwLjkyYS4yMi4yMiwwLDAsMSwwLC4zbC0uNDcuNDlhLjIuMiwwLDAsMS0uMywwaDBMOSw4LjM0QS4yMi4yMiwwLDAsMSw5LDhsMy4xNS0zLjMyYS4yLjIsMCwwLDEsLjMsMGgwbC40Ny40OWEuMjMuMjMsMCwwLDEsMCwuMzFMMTAuNTgsOEEuMjIuMjIsMCwwLDAsMTAuNTgsOC4zNFoiIGZpbGw9Im5vbmUiLz48L2NsaXBQYXRoPjxjbGlwUGF0aCBpZD0iZTFlYjAzNzQtZWFiNi00MGI5LTkxZDgtZThhNWYxYzliNThhIj48cGF0aCBkPSJNNy4xMSw5LjkxLDQuNjgsMTIuNDhhLjIzLjIzLDAsMCwwLDAsLjMxbC40Ny40OWEuMi4yLDAsMCwwLC4zLDBoMGwzLjItMy4zN2EuMjIuMjIsMCwwLDAsMC0uM0w1LjUsNi4yOWEuMi4yLDAsMCwwLS4zLDBoMGwtLjQ3LjQ5YS4yMi4yMiwwLDAsMCwwLC4zTDcuMTEsOS42MUEuMi4yLDAsMCwxLDcuMTEsOS45MVoiIGZpbGw9Im5vbmUiLz48L2NsaXBQYXRoPjwvZGVmcz48dGl0bGU+SWNvbi1uZXR3b3JraW5nLTgxPC90aXRsZT48Y2lyY2xlIGN4PSI5IiBjeT0iOSIgcj0iOC41IiBmaWxsPSJ1cmwoI2IxY2Q0NGYyLWQ2MmItNDc1My1hODU5LWFhNjhmMDg5Y2RjYSkiLz48Y2lyY2xlIGN4PSI5IiBjeT0iOSIgcj0iNy40IiBmaWxsPSIjZmZmIi8+PGcgY2xpcC1wYXRoPSJ1cmwoI2YwYzY4ZGU3LThhYWMtNDAzOC1iZDRiLThlMGZiOGZhYjVmYykiPjxwb2x5Z29uIHBvaW50cz0iMTAuNDMgOC4xOSAxMy4xNiAxMS4wNyAxMi4zOSAxMS44NyA4Ljg5IDguMTkgMTIuMzQgNC41NiAxMy4xMSA1LjM2IDEwLjQzIDguMTkiIGZpbGw9IiM1ZTk2MjQiLz48cG9seWdvbiBwb2ludHM9IjEzLjE2IDExLjA3IDEwLjQzIDguMTkgOS42NyA4Ljk5IDEyLjM5IDExLjg3IDEzLjE2IDExLjA3IiBmaWxsPSIjODZkNjMzIi8+PC9nPjxnIGNsaXAtcGF0aD0idXJsKCNlMWViMDM3NC1lYWI2LTQwYjktOTFkOC1lOGE1ZjFjOWI1OGEpIj48cG9seWdvbiBwb2ludHM9IjcuMjYgOS43NiA0LjU0IDEyLjY0IDUuMyAxMy40NCA4LjggOS43NiA1LjM1IDYuMTMgNC41OCA2LjkzIDcuMjYgOS43NiIgZmlsbD0iIzVlOTYyNCIvPjxwb2x5Z29uIHBvaW50cz0iNC41NCAxMi42NCA3LjI2IDkuNzYgOC4wMiAxMC41NiA1LjMgMTMuNDQgNC41NCAxMi42NCIgZmlsbD0iIzg2ZDYzMyIvPjwvZz48L3N2Zz4=;strokeColor=#00FFFF;fillColor=none;" parent="1" vertex="1">
                    <mxGeometry x="1000" y="510" width="40" height="40" as="geometry"/>
                </mxCell>
                <mxCell id="45" value="" style="shape=image;verticalLabelPosition=bottom;verticalAlign=top;imageAspect=0;aspect=fixed;image=data:image/svg+xml,PHN2ZyB4bWxucz0iaHR0cDovL3d3dy53My5vcmcvMjAwMC9zdmciIGlkPSJmOGNjNjdiNi04OGQyLTRkNjUtYjlkNC0wODg3ZTA0ZDFmMzgiIHdpZHRoPSIxOCIgaGVpZ2h0PSIxOCIgdmlld0JveD0iMCAwIDE4IDE4Ij48ZGVmcz48cmFkaWFsR3JhZGllbnQgaWQ9ImIxY2Q0NGYyLWQ2MmItNDc1My1hODU5LWFhNjhmMDg5Y2RjYSIgY3g9IjQ2LjQyIiBjeT0iNDMuMjEiIHI9IjkiIGdyYWRpZW50VHJhbnNmb3JtPSJ0cmFuc2xhdGUoLTM0Ljg0IC0zMS44MSkgc2NhbGUoMC45NCAwLjk0KSIgZ3JhZGllbnRVbml0cz0idXNlclNwYWNlT25Vc2UiPjxzdG9wIG9mZnNldD0iMC4xOCIgc3RvcC1jb2xvcj0iIzVlYTBlZiIvPjxzdG9wIG9mZnNldD0iMC41NiIgc3RvcC1jb2xvcj0iIzVjOWZlZSIvPjxzdG9wIG9mZnNldD0iMC42OSIgc3RvcC1jb2xvcj0iIzU1OWNlZCIvPjxzdG9wIG9mZnNldD0iMC43OCIgc3RvcC1jb2xvcj0iIzRhOTdlOSIvPjxzdG9wIG9mZnNldD0iMC44NiIgc3RvcC1jb2xvcj0iIzM5OTBlNCIvPjxzdG9wIG9mZnNldD0iMC45MyIgc3RvcC1jb2xvcj0iIzIzODdkZSIvPjxzdG9wIG9mZnNldD0iMC45OSIgc3RvcC1jb2xvcj0iIzA4N2JkNiIvPjxzdG9wIG9mZnNldD0iMSIgc3RvcC1jb2xvcj0iIzAwNzhkNCIvPjwvcmFkaWFsR3JhZGllbnQ+PGNsaXBQYXRoIGlkPSJmMGM2OGRlNy04YWFjLTQwMzgtYmQ0Yi04ZTBmYjhmYWI1ZmMiPjxwYXRoIGQ9Ik0xMC41OCw4LjM0LDEzLDEwLjkyYS4yMi4yMiwwLDAsMSwwLC4zbC0uNDcuNDlhLjIuMiwwLDAsMS0uMywwaDBMOSw4LjM0QS4yMi4yMiwwLDAsMSw5LDhsMy4xNS0zLjMyYS4yLjIsMCwwLDEsLjMsMGgwbC40Ny40OWEuMjMuMjMsMCwwLDEsMCwuMzFMMTAuNTgsOEEuMjIuMjIsMCwwLDAsMTAuNTgsOC4zNFoiIGZpbGw9Im5vbmUiLz48L2NsaXBQYXRoPjxjbGlwUGF0aCBpZD0iZTFlYjAzNzQtZWFiNi00MGI5LTkxZDgtZThhNWYxYzliNThhIj48cGF0aCBkPSJNNy4xMSw5LjkxLDQuNjgsMTIuNDhhLjIzLjIzLDAsMCwwLDAsLjMxbC40Ny40OWEuMi4yLDAsMCwwLC4zLDBoMGwzLjItMy4zN2EuMjIuMjIsMCwwLDAsMC0uM0w1LjUsNi4yOWEuMi4yLDAsMCwwLS4zLDBoMGwtLjQ3LjQ5YS4yMi4yMiwwLDAsMCwwLC4zTDcuMTEsOS42MUEuMi4yLDAsMCwxLDcuMTEsOS45MVoiIGZpbGw9Im5vbmUiLz48L2NsaXBQYXRoPjwvZGVmcz48dGl0bGU+SWNvbi1uZXR3b3JraW5nLTgxPC90aXRsZT48Y2lyY2xlIGN4PSI5IiBjeT0iOSIgcj0iOC41IiBmaWxsPSJ1cmwoI2IxY2Q0NGYyLWQ2MmItNDc1My1hODU5LWFhNjhmMDg5Y2RjYSkiLz48Y2lyY2xlIGN4PSI5IiBjeT0iOSIgcj0iNy40IiBmaWxsPSIjZmZmIi8+PGcgY2xpcC1wYXRoPSJ1cmwoI2YwYzY4ZGU3LThhYWMtNDAzOC1iZDRiLThlMGZiOGZhYjVmYykiPjxwb2x5Z29uIHBvaW50cz0iMTAuNDMgOC4xOSAxMy4xNiAxMS4wNyAxMi4zOSAxMS44NyA4Ljg5IDguMTkgMTIuMzQgNC41NiAxMy4xMSA1LjM2IDEwLjQzIDguMTkiIGZpbGw9IiM1ZTk2MjQiLz48cG9seWdvbiBwb2ludHM9IjEzLjE2IDExLjA3IDEwLjQzIDguMTkgOS42NyA4Ljk5IDEyLjM5IDExLjg3IDEzLjE2IDExLjA3IiBmaWxsPSIjODZkNjMzIi8+PC9nPjxnIGNsaXAtcGF0aD0idXJsKCNlMWViMDM3NC1lYWI2LTQwYjktOTFkOC1lOGE1ZjFjOWI1OGEpIj48cG9seWdvbiBwb2ludHM9IjcuMjYgOS43NiA0LjU0IDEyLjY0IDUuMyAxMy40NCA4LjggOS43NiA1LjM1IDYuMTMgNC41OCA2LjkzIDcuMjYgOS43NiIgZmlsbD0iIzVlOTYyNCIvPjxwb2x5Z29uIHBvaW50cz0iNC41NCAxMi42NCA3LjI2IDkuNzYgOC4wMiAxMC41NiA1LjMgMTMuNDQgNC41NCAxMi42NCIgZmlsbD0iIzg2ZDYzMyIvPjwvZz48L3N2Zz4=;strokeColor=#00FFFF;fillColor=none;" parent="1" vertex="1">
                    <mxGeometry x="1300" y="510" width="40" height="40" as="geometry"/>
                </mxCell>
                <mxCell id="46" value="" style="shape=image;verticalLabelPosition=bottom;verticalAlign=top;imageAspect=0;aspect=fixed;image=data:image/svg+xml,PHN2ZyB4bWxucz0iaHR0cDovL3d3dy53My5vcmcvMjAwMC9zdmciIGlkPSJiMjI2NzhmMi02MDRkLTQ3YmMtYjQxOS0xMTZiOTYxZTBkMDciIHdpZHRoPSIxOCIgaGVpZ2h0PSIxOCIgdmlld0JveD0iMCAwIDE4IDE4Ij4mI3hhOyAgPGRlZnM+JiN4YTsgICAgPGxpbmVhckdyYWRpZW50IGlkPSJiMWE0OTdiYy0yODg2LTRlMjItYjIzMC05MThhMzY0NDRjM2UiIHgxPSI5IiB5MT0iMTcuNzkiIHgyPSI5IiB5Mj0iMS44MiIgZ3JhZGllbnRUcmFuc2Zvcm09InRyYW5zbGF0ZSg5IC0zLjczKSByb3RhdGUoNDUpIiBncmFkaWVudFVuaXRzPSJ1c2VyU3BhY2VPblVzZSI+JiN4YTsgICAgICA8c3RvcCBvZmZzZXQ9IjAiIHN0b3AtY29sb3I9IiMyNTgyNzciLz4mI3hhOyAgICAgIDxzdG9wIG9mZnNldD0iMC40MiIgc3RvcC1jb2xvcj0iIzQ5YTQ5OCIvPiYjeGE7ICAgICAgPHN0b3Agb2Zmc2V0PSIwLjc4IiBzdG9wLWNvbG9yPSIjNjBiYWFkIi8+JiN4YTsgICAgICA8c3RvcCBvZmZzZXQ9IjEiIHN0b3AtY29sb3I9IiM2OGMyYjUiLz4mI3hhOyAgICA8L2xpbmVhckdyYWRpZW50PiYjeGE7ICA8L2RlZnM+JiN4YTsgIDx0aXRsZT5JY29uLW5ldHdvcmtpbmctNzc8L3RpdGxlPiYjeGE7ICA8cmVjdCB4PSIyLjgyIiB5PSIyLjgyIiB3aWR0aD0iMTIuMzUiIGhlaWdodD0iMTIuMzUiIHJ4PSIwLjU3IiB0cmFuc2Zvcm09InRyYW5zbGF0ZSgtMy43MyA5KSByb3RhdGUoLTQ1KSIgZmlsbD0idXJsKCNiMWE0OTdiYy0yODg2LTRlMjItYjIzMC05MThhMzY0NDRjM2UpIi8+JiN4YTsgIDxwYXRoIGQ9Ik03LjA1LDQuNjgsOC45MywyLjhhLjEuMSwwLDAsMSwuMTQsMEwxMSw0LjY4YS4wOS4wOSwwLDAsMS0uMDcuMTZIOS43OGEuMS4xLDAsMCwwLS4xLjFWNy4zN2EuMDkuMDksMCwwLDEtLjA5LjA5SDguNDJhLjA5LjA5LDAsMCwxLS4xLS4wOVY0Ljk0YS4xLjEsMCwwLDAtLjA5LS4xSDcuMTJBLjEuMSwwLDAsMSw3LjA1LDQuNjhaTTExLDEzLjMyLDkuMDcsMTUuMmEuMS4xLDAsMCwxLS4xNCwwTDcuMDUsMTMuMzJhLjEuMSwwLDAsMSwuMDctLjE2SDguMjNhLjEuMSwwLDAsMCwuMDktLjFWMTAuNjNhLjA5LjA5LDAsMCwxLC4xLS4wOUg5LjU5YS4wOS4wOSwwLDAsMSwuMDkuMDl2Mi40M2EuMS4xLDAsMCwwLC4xLjFoMS4xQS4wOS4wOSwwLDAsMSwxMSwxMy4zMlpNNS4zNCwxMC44NFY5Ljc0YS4xMS4xMSwwLDAsMC0uMS0uMUgyLjgxYS4xLjEsMCwwLDEtLjEtLjA5VjguMzhhLjExLjExLDAsMCwxLC4xLS4xSDUuMjRhLjEuMSwwLDAsMCwuMS0uMDlWNy4wOEEuMDkuMDksMCwwLDEsNS41LDdMNy4zOCw4LjlhLjA5LjA5LDAsMCwxLDAsLjEzTDUuNSwxMC45MUEuMDkuMDksMCwwLDEsNS4zNCwxMC44NFptNy4zMi0zLjc2VjguMTlhLjEuMSwwLDAsMCwuMS4wOWgyLjQzYS4xMS4xMSwwLDAsMSwuMS4xVjkuNTVhLjEuMSwwLDAsMS0uMS4wOUgxMi43NmEuMTEuMTEsMCwwLDAtLjEuMXYxLjFhLjA5LjA5LDAsMCwxLS4xNi4wN0wxMC42Miw5YS4wOS4wOSwwLDAsMSwwLS4xM0wxMi41LDdBLjA5LjA5LDAsMCwxLDEyLjY2LDcuMDhaIiBmaWxsPSIjZmZmIi8+JiN4YTs8L3N2Zz4=;strokeColor=#00FFFF;fillColor=none;" parent="1" vertex="1">
                    <mxGeometry x="950" y="510" width="40" height="40" as="geometry"/>
                </mxCell>
                <mxCell id="47" value="" style="shape=image;verticalLabelPosition=bottom;verticalAlign=top;imageAspect=0;aspect=fixed;image=data:image/svg+xml,PHN2ZyB4bWxucz0iaHR0cDovL3d3dy53My5vcmcvMjAwMC9zdmciIGlkPSJiMjI2NzhmMi02MDRkLTQ3YmMtYjQxOS0xMTZiOTYxZTBkMDciIHdpZHRoPSIxOCIgaGVpZ2h0PSIxOCIgdmlld0JveD0iMCAwIDE4IDE4Ij4mI3hhOyAgPGRlZnM+JiN4YTsgICAgPGxpbmVhckdyYWRpZW50IGlkPSJiMWE0OTdiYy0yODg2LTRlMjItYjIzMC05MThhMzY0NDRjM2UiIHgxPSI5IiB5MT0iMTcuNzkiIHgyPSI5IiB5Mj0iMS44MiIgZ3JhZGllbnRUcmFuc2Zvcm09InRyYW5zbGF0ZSg5IC0zLjczKSByb3RhdGUoNDUpIiBncmFkaWVudFVuaXRzPSJ1c2VyU3BhY2VPblVzZSI+JiN4YTsgICAgICA8c3RvcCBvZmZzZXQ9IjAiIHN0b3AtY29sb3I9IiMyNTgyNzciLz4mI3hhOyAgICAgIDxzdG9wIG9mZnNldD0iMC40MiIgc3RvcC1jb2xvcj0iIzQ5YTQ5OCIvPiYjeGE7ICAgICAgPHN0b3Agb2Zmc2V0PSIwLjc4IiBzdG9wLWNvbG9yPSIjNjBiYWFkIi8+JiN4YTsgICAgICA8c3RvcCBvZmZzZXQ9IjEiIHN0b3AtY29sb3I9IiM2OGMyYjUiLz4mI3hhOyAgICA8L2xpbmVhckdyYWRpZW50PiYjeGE7ICA8L2RlZnM+JiN4YTsgIDx0aXRsZT5JY29uLW5ldHdvcmtpbmctNzc8L3RpdGxlPiYjeGE7ICA8cmVjdCB4PSIyLjgyIiB5PSIyLjgyIiB3aWR0aD0iMTIuMzUiIGhlaWdodD0iMTIuMzUiIHJ4PSIwLjU3IiB0cmFuc2Zvcm09InRyYW5zbGF0ZSgtMy43MyA5KSByb3RhdGUoLTQ1KSIgZmlsbD0idXJsKCNiMWE0OTdiYy0yODg2LTRlMjItYjIzMC05MThhMzY0NDRjM2UpIi8+JiN4YTsgIDxwYXRoIGQ9Ik03LjA1LDQuNjgsOC45MywyLjhhLjEuMSwwLDAsMSwuMTQsMEwxMSw0LjY4YS4wOS4wOSwwLDAsMS0uMDcuMTZIOS43OGEuMS4xLDAsMCwwLS4xLjFWNy4zN2EuMDkuMDksMCwwLDEtLjA5LjA5SDguNDJhLjA5LjA5LDAsMCwxLS4xLS4wOVY0Ljk0YS4xLjEsMCwwLDAtLjA5LS4xSDcuMTJBLjEuMSwwLDAsMSw3LjA1LDQuNjhaTTExLDEzLjMyLDkuMDcsMTUuMmEuMS4xLDAsMCwxLS4xNCwwTDcuMDUsMTMuMzJhLjEuMSwwLDAsMSwuMDctLjE2SDguMjNhLjEuMSwwLDAsMCwuMDktLjFWMTAuNjNhLjA5LjA5LDAsMCwxLC4xLS4wOUg5LjU5YS4wOS4wOSwwLDAsMSwuMDkuMDl2Mi40M2EuMS4xLDAsMCwwLC4xLjFoMS4xQS4wOS4wOSwwLDAsMSwxMSwxMy4zMlpNNS4zNCwxMC44NFY5Ljc0YS4xMS4xMSwwLDAsMC0uMS0uMUgyLjgxYS4xLjEsMCwwLDEtLjEtLjA5VjguMzhhLjExLjExLDAsMCwxLC4xLS4xSDUuMjRhLjEuMSwwLDAsMCwuMS0uMDlWNy4wOEEuMDkuMDksMCwwLDEsNS41LDdMNy4zOCw4LjlhLjA5LjA5LDAsMCwxLDAsLjEzTDUuNSwxMC45MUEuMDkuMDksMCwwLDEsNS4zNCwxMC44NFptNy4zMi0zLjc2VjguMTlhLjEuMSwwLDAsMCwuMS4wOWgyLjQzYS4xMS4xMSwwLDAsMSwuMS4xVjkuNTVhLjEuMSwwLDAsMS0uMS4wOUgxMi43NmEuMTEuMTEsMCwwLDAtLjEuMXYxLjFhLjA5LjA5LDAsMCwxLS4xNi4wN0wxMC42Miw5YS4wOS4wOSwwLDAsMSwwLS4xM0wxMi41LDdBLjA5LjA5LDAsMCwxLDEyLjY2LDcuMDhaIiBmaWxsPSIjZmZmIi8+JiN4YTs8L3N2Zz4=;strokeColor=#00FFFF;fillColor=none;" parent="1" vertex="1">
                    <mxGeometry x="1350" y="510" width="40" height="40" as="geometry"/>
                </mxCell>
                <mxCell id="48" value="" style="shape=image;verticalLabelPosition=bottom;verticalAlign=top;imageAspect=0;aspect=fixed;image=data:image/svg+xml,PHN2ZyB4bWxucz0iaHR0cDovL3d3dy53My5vcmcvMjAwMC9zdmciIGlkPSJmZDQ1NGYxYy01NTA2LTQ0YjgtODc0ZS04ODE0YjhiMmY3MGIiIHdpZHRoPSIxOCIgaGVpZ2h0PSIxOCIgdmlld0JveD0iMCAwIDE4IDE4Ij48ZGVmcz48bGluZWFyR3JhZGllbnQgaWQ9ImYzNGQ5NTY5LTJiZDAtNDAwMi04ZjE2LTNkMDFkODEwNmNiNSIgeDE9IjguODgiIHkxPSIxMi4yMSIgeDI9IjguODgiIHkyPSIwLjIxIiBncmFkaWVudFVuaXRzPSJ1c2VyU3BhY2VPblVzZSI+PHN0b3Agb2Zmc2V0PSIwIiBzdG9wLWNvbG9yPSIjMDA3OGQ0Ii8+PHN0b3Agb2Zmc2V0PSIwLjgyIiBzdG9wLWNvbG9yPSIjNWVhMGVmIi8+PC9saW5lYXJHcmFkaWVudD48bGluZWFyR3JhZGllbnQgaWQ9ImJkYjQ1YTBiLWViNTgtNDk3MC1hNjBhLWZiMmNlMzE0Zjg2NiIgeDE9IjguODgiIHkxPSIxNi44NCIgeDI9IjguODgiIHkyPSIxMi4yMSIgZ3JhZGllbnRVbml0cz0idXNlclNwYWNlT25Vc2UiPjxzdG9wIG9mZnNldD0iMC4xNSIgc3RvcC1jb2xvcj0iI2NjYyIvPjxzdG9wIG9mZnNldD0iMSIgc3RvcC1jb2xvcj0iIzcwNzA3MCIvPjwvbGluZWFyR3JhZGllbnQ+PC9kZWZzPjx0aXRsZT5JY29uLWNvbXB1dGUtMjE8L3RpdGxlPjxyZWN0IHg9Ii0wLjEyIiB5PSIwLjIxIiB3aWR0aD0iMTgiIGhlaWdodD0iMTIiIHJ4PSIwLjYiIGZpbGw9InVybCgjZjM0ZDk1NjktMmJkMC00MDAyLThmMTYtM2QwMWQ4MTA2Y2I1KSIvPjxwb2x5Z29uIHBvaW50cz0iMTEuODggNC40NiAxMS44OCA3Ljk1IDguODggOS43MSA4Ljg4IDYuMjEgMTEuODggNC40NiIgZmlsbD0iIzUwZTZmZiIvPjxwb2x5Z29uIHBvaW50cz0iMTEuODggNC40NiA4Ljg4IDYuMjIgNS44OCA0LjQ2IDguODggMi43MSAxMS44OCA0LjQ2IiBmaWxsPSIjYzNmMWZmIi8+PHBvbHlnb24gcG9pbnRzPSI4Ljg4IDYuMjIgOC44OCA5LjcxIDUuODggNy45NSA1Ljg4IDQuNDYgOC44OCA2LjIyIiBmaWxsPSIjOWNlYmZmIi8+PHBvbHlnb24gcG9pbnRzPSI1Ljg4IDcuOTUgOC44OCA2LjIxIDguODggOS43MSA1Ljg4IDcuOTUiIGZpbGw9IiNjM2YxZmYiLz48cG9seWdvbiBwb2ludHM9IjExLjg4IDcuOTUgOC44OCA2LjIxIDguODggOS43MSAxMS44OCA3Ljk1IiBmaWxsPSIjOWNlYmZmIi8+PHBhdGggZD0iTTEyLjQ5LDE1Ljg0Yy0xLjc4LS4yOC0xLjg1LTEuNTYtMS44NS0zLjYzSDcuMTFjMCwyLjA3LS4wNiwzLjM1LTEuODQsMy42M2ExLDEsMCwwLDAtLjg5LDFoOUExLDEsMCwwLDAsMTIuNDksMTUuODRaIiBmaWxsPSJ1cmwoI2JkYjQ1YTBiLWViNTgtNDk3MC1hNjBhLWZiMmNlMzE0Zjg2NikiLz48L3N2Zz4=;strokeColor=#00FFFF;fillColor=none;" parent="1" vertex="1">
                    <mxGeometry x="1000" y="666" width="40" height="40" as="geometry"/>
                </mxCell>
                <mxCell id="58" value="" style="edgeStyle=none;orthogonalLoop=1;jettySize=auto;html=1;elbow=vertical;exitX=0.95;exitY=0.5;exitDx=0;exitDy=0;exitPerimeter=0;endArrow=none;endFill=0;" parent="1" source="46" target="44" edge="1">
                    <mxGeometry width="80" relative="1" as="geometry">
                        <mxPoint x="1270" y="730" as="sourcePoint"/>
                        <mxPoint x="1000" y="530" as="targetPoint"/>
                        <Array as="points"/>
                    </mxGeometry>
                </mxCell>
                <mxCell id="59" value="" style="edgeStyle=none;orthogonalLoop=1;jettySize=auto;html=1;elbow=vertical;exitX=0.033;exitY=0.533;exitDx=0;exitDy=0;exitPerimeter=0;endArrow=none;endFill=0;entryX=1.05;entryY=0.533;entryDx=0;entryDy=0;entryPerimeter=0;" parent="1" source="47" target="45" edge="1">
                    <mxGeometry width="80" relative="1" as="geometry">
                        <mxPoint x="998" y="540" as="sourcePoint"/>
                        <mxPoint x="1010" y="540" as="targetPoint"/>
                        <Array as="points"/>
                    </mxGeometry>
                </mxCell>
                <mxCell id="60" value="" style="shape=image;verticalLabelPosition=bottom;verticalAlign=top;imageAspect=0;aspect=fixed;image=data:image/svg+xml,PHN2ZyB4bWxucz0iaHR0cDovL3d3dy53My5vcmcvMjAwMC9zdmciIGlkPSJiNzU5NDNiYS0xYTNmLTQ4NWQtYjQ1ZC0zZmVlMDBlZDdlNWUiIHdpZHRoPSIxOCIgaGVpZ2h0PSIxOCIgdmlld0JveD0iMCAwIDE4IDE4Ij48ZGVmcz48bGluZWFyR3JhZGllbnQgaWQ9ImZlNWNlNDNmLTI4MjMtNDYxNy1iYjU0LTU3ZGY5ZTc3ODM3MiIgeDE9IjkuMDEiIHkxPSIwLjc1IiB4Mj0iOS4wMSIgeTI9IjE3LjI1IiBncmFkaWVudFVuaXRzPSJ1c2VyU3BhY2VPblVzZSI+PHN0b3Agb2Zmc2V0PSIwIiBzdG9wLWNvbG9yPSIjNWVhMGVmIi8+PHN0b3Agb2Zmc2V0PSIwLjE4IiBzdG9wLWNvbG9yPSIjNTU5Y2VjIi8+PHN0b3Agb2Zmc2V0PSIwLjQ3IiBzdG9wLWNvbG9yPSIjM2M5MWU1Ii8+PHN0b3Agb2Zmc2V0PSIwLjg0IiBzdG9wLWNvbG9yPSIjMTM4MGRhIi8+PHN0b3Agb2Zmc2V0PSIxIiBzdG9wLWNvbG9yPSIjMDA3OGQ0Ii8+PC9saW5lYXJHcmFkaWVudD48L2RlZnM+PHRpdGxlPkljb24tbmV0d29ya2luZy02NzwvdGl0bGU+PHBhdGggZD0iTTE2LjM2LDguNGMwLDQuODQtNS44NSw4Ljc0LTcuMTIsOS41M2EuNDYuNDYsMCwwLDEtLjQ4LDBjLTEuMjctLjc5LTcuMTItNC42OS03LjEyLTkuNTNWMi41OGEuNDYuNDYsMCwwLDEsLjQ1LS40NkM2LjY0LDIsNS41OSwwLDksMHMyLjM2LDIsNi45MSwyLjEyYS40Ni40NiwwLDAsMSwuNDUuNDZaIiBmaWxsPSIjMDA3OGQ0Ii8+PHBhdGggZD0iTTE1Ljc1LDguNDVjMCw0LjQ0LTUuMzYsOC02LjUzLDguNzRhLjQzLjQzLDAsMCwxLS40NCwwYy0xLjE3LS43Mi02LjUzLTQuMy02LjUzLTguNzRWMy4xMWEuNDIuNDIsMCwwLDEsLjQxLS40MkM2LjgzLDIuNTgsNS44Ny43NSw5LC43NXMyLjE3LDEuODMsNi4zNCwxLjk0YS40Mi40MiwwLDAsMSwuNDEuNDJaIiBmaWxsPSIjNmJiOWYyIi8+PHBhdGggZD0iTTksOVYuNzVjMy4xMywwLDIuMTcsMS44Myw2LjM0LDEuOTRhLjQzLjQzLDAsMCwxLC40MS40M1Y4LjQ2YTQuODksNC44OSwwLDAsMSwwLC41NFpNOSw5SDIuMjhjLjQsNC4xOCw1LjM4LDcuNSw2LjUsOC4xOWEuMzkuMzksMCwwLDAsLjE4LjA2SDlaIiBmaWxsPSJ1cmwoI2ZlNWNlNDNmLTI4MjMtNDYxNy1iYjU0LTU3ZGY5ZTc3ODM3MikiLz48cGF0aCBkPSJNMi42NiwyLjY5QzYuODMsMi41OCw1Ljg3Ljc1LDksLjc1VjlIMi4yOGE0Ljg5LDQuODksMCwwLDEsMC0uNTRWMy4xMkEuNDMuNDMsMCwwLDEsMi42NiwyLjY5WiIgZmlsbD0iIzUwZTZmZiIvPjxwYXRoIGQ9Ik0xNS43Miw5SDl2OC4yNUg5YS4zOS4zOSwwLDAsMCwuMTgtLjA2QzEwLjM0LDE2LjUsMTUuMzIsMTMuMTgsMTUuNzIsOVoiIGZpbGw9IiM1MGU2ZmYiLz48L3N2Zz4=;strokeColor=#00FFFF;fillColor=none;" parent="1" vertex="1">
                    <mxGeometry x="1130" y="675" width="40" height="40" as="geometry"/>
                </mxCell>
                <mxCell id="61" value="" style="shape=image;verticalLabelPosition=bottom;verticalAlign=top;imageAspect=0;aspect=fixed;image=data:image/svg+xml,PHN2ZyB4bWxucz0iaHR0cDovL3d3dy53My5vcmcvMjAwMC9zdmciIGlkPSJiNzU5NDNiYS0xYTNmLTQ4NWQtYjQ1ZC0zZmVlMDBlZDdlNWUiIHdpZHRoPSIxOCIgaGVpZ2h0PSIxOCIgdmlld0JveD0iMCAwIDE4IDE4Ij48ZGVmcz48bGluZWFyR3JhZGllbnQgaWQ9ImZlNWNlNDNmLTI4MjMtNDYxNy1iYjU0LTU3ZGY5ZTc3ODM3MiIgeDE9IjkuMDEiIHkxPSIwLjc1IiB4Mj0iOS4wMSIgeTI9IjE3LjI1IiBncmFkaWVudFVuaXRzPSJ1c2VyU3BhY2VPblVzZSI+PHN0b3Agb2Zmc2V0PSIwIiBzdG9wLWNvbG9yPSIjNWVhMGVmIi8+PHN0b3Agb2Zmc2V0PSIwLjE4IiBzdG9wLWNvbG9yPSIjNTU5Y2VjIi8+PHN0b3Agb2Zmc2V0PSIwLjQ3IiBzdG9wLWNvbG9yPSIjM2M5MWU1Ii8+PHN0b3Agb2Zmc2V0PSIwLjg0IiBzdG9wLWNvbG9yPSIjMTM4MGRhIi8+PHN0b3Agb2Zmc2V0PSIxIiBzdG9wLWNvbG9yPSIjMDA3OGQ0Ii8+PC9saW5lYXJHcmFkaWVudD48L2RlZnM+PHRpdGxlPkljb24tbmV0d29ya2luZy02NzwvdGl0bGU+PHBhdGggZD0iTTE2LjM2LDguNGMwLDQuODQtNS44NSw4Ljc0LTcuMTIsOS41M2EuNDYuNDYsMCwwLDEtLjQ4LDBjLTEuMjctLjc5LTcuMTItNC42OS03LjEyLTkuNTNWMi41OGEuNDYuNDYsMCwwLDEsLjQ1LS40NkM2LjY0LDIsNS41OSwwLDksMHMyLjM2LDIsNi45MSwyLjEyYS40Ni40NiwwLDAsMSwuNDUuNDZaIiBmaWxsPSIjMDA3OGQ0Ii8+PHBhdGggZD0iTTE1Ljc1LDguNDVjMCw0LjQ0LTUuMzYsOC02LjUzLDguNzRhLjQzLjQzLDAsMCwxLS40NCwwYy0xLjE3LS43Mi02LjUzLTQuMy02LjUzLTguNzRWMy4xMWEuNDIuNDIsMCwwLDEsLjQxLS40MkM2LjgzLDIuNTgsNS44Ny43NSw5LC43NXMyLjE3LDEuODMsNi4zNCwxLjk0YS40Mi40MiwwLDAsMSwuNDEuNDJaIiBmaWxsPSIjNmJiOWYyIi8+PHBhdGggZD0iTTksOVYuNzVjMy4xMywwLDIuMTcsMS44Myw2LjM0LDEuOTRhLjQzLjQzLDAsMCwxLC40MS40M1Y4LjQ2YTQuODksNC44OSwwLDAsMSwwLC41NFpNOSw5SDIuMjhjLjQsNC4xOCw1LjM4LDcuNSw2LjUsOC4xOWEuMzkuMzksMCwwLDAsLjE4LjA2SDlaIiBmaWxsPSJ1cmwoI2ZlNWNlNDNmLTI4MjMtNDYxNy1iYjU0LTU3ZGY5ZTc3ODM3MikiLz48cGF0aCBkPSJNMi42NiwyLjY5QzYuODMsMi41OCw1Ljg3Ljc1LDksLjc1VjlIMi4yOGE0Ljg5LDQuODksMCwwLDEsMC0uNTRWMy4xMkEuNDMuNDMsMCwwLDEsMi42NiwyLjY5WiIgZmlsbD0iIzUwZTZmZiIvPjxwYXRoIGQ9Ik0xNS43Miw5SDl2OC4yNUg5YS4zOS4zOSwwLDAsMCwuMTgtLjA2QzEwLjM0LDE2LjUsMTUuMzIsMTMuMTgsMTUuNzIsOVoiIGZpbGw9IiM1MGU2ZmYiLz48L3N2Zz4=;strokeColor=#00FFFF;fillColor=none;" parent="1" vertex="1">
                    <mxGeometry x="1430" y="755" width="40" height="40" as="geometry"/>
                </mxCell>
                <mxCell id="62" value="" style="shape=image;verticalLabelPosition=bottom;verticalAlign=top;imageAspect=0;aspect=fixed;image=data:image/svg+xml,PHN2ZyB4bWxucz0iaHR0cDovL3d3dy53My5vcmcvMjAwMC9zdmciIGlkPSJiNzU5NDNiYS0xYTNmLTQ4NWQtYjQ1ZC0zZmVlMDBlZDdlNWUiIHdpZHRoPSIxOCIgaGVpZ2h0PSIxOCIgdmlld0JveD0iMCAwIDE4IDE4Ij48ZGVmcz48bGluZWFyR3JhZGllbnQgaWQ9ImZlNWNlNDNmLTI4MjMtNDYxNy1iYjU0LTU3ZGY5ZTc3ODM3MiIgeDE9IjkuMDEiIHkxPSIwLjc1IiB4Mj0iOS4wMSIgeTI9IjE3LjI1IiBncmFkaWVudFVuaXRzPSJ1c2VyU3BhY2VPblVzZSI+PHN0b3Agb2Zmc2V0PSIwIiBzdG9wLWNvbG9yPSIjNWVhMGVmIi8+PHN0b3Agb2Zmc2V0PSIwLjE4IiBzdG9wLWNvbG9yPSIjNTU5Y2VjIi8+PHN0b3Agb2Zmc2V0PSIwLjQ3IiBzdG9wLWNvbG9yPSIjM2M5MWU1Ii8+PHN0b3Agb2Zmc2V0PSIwLjg0IiBzdG9wLWNvbG9yPSIjMTM4MGRhIi8+PHN0b3Agb2Zmc2V0PSIxIiBzdG9wLWNvbG9yPSIjMDA3OGQ0Ii8+PC9saW5lYXJHcmFkaWVudD48L2RlZnM+PHRpdGxlPkljb24tbmV0d29ya2luZy02NzwvdGl0bGU+PHBhdGggZD0iTTE2LjM2LDguNGMwLDQuODQtNS44NSw4Ljc0LTcuMTIsOS41M2EuNDYuNDYsMCwwLDEtLjQ4LDBjLTEuMjctLjc5LTcuMTItNC42OS03LjEyLTkuNTNWMi41OGEuNDYuNDYsMCwwLDEsLjQ1LS40NkM2LjY0LDIsNS41OSwwLDksMHMyLjM2LDIsNi45MSwyLjEyYS40Ni40NiwwLDAsMSwuNDUuNDZaIiBmaWxsPSIjMDA3OGQ0Ii8+PHBhdGggZD0iTTE1Ljc1LDguNDVjMCw0LjQ0LTUuMzYsOC02LjUzLDguNzRhLjQzLjQzLDAsMCwxLS40NCwwYy0xLjE3LS43Mi02LjUzLTQuMy02LjUzLTguNzRWMy4xMWEuNDIuNDIsMCwwLDEsLjQxLS40MkM2LjgzLDIuNTgsNS44Ny43NSw5LC43NXMyLjE3LDEuODMsNi4zNCwxLjk0YS40Mi40MiwwLDAsMSwuNDEuNDJaIiBmaWxsPSIjNmJiOWYyIi8+PHBhdGggZD0iTTksOVYuNzVjMy4xMywwLDIuMTcsMS44Myw2LjM0LDEuOTRhLjQzLjQzLDAsMCwxLC40MS40M1Y4LjQ2YTQuODksNC44OSwwLDAsMSwwLC41NFpNOSw5SDIuMjhjLjQsNC4xOCw1LjM4LDcuNSw2LjUsOC4xOWEuMzkuMzksMCwwLDAsLjE4LjA2SDlaIiBmaWxsPSJ1cmwoI2ZlNWNlNDNmLTI4MjMtNDYxNy1iYjU0LTU3ZGY5ZTc3ODM3MikiLz48cGF0aCBkPSJNMi42NiwyLjY5QzYuODMsMi41OCw1Ljg3Ljc1LDksLjc1VjlIMi4yOGE0Ljg5LDQuODksMCwwLDEsMC0uNTRWMy4xMkEuNDMuNDMsMCwwLDEsMi42NiwyLjY5WiIgZmlsbD0iIzUwZTZmZiIvPjxwYXRoIGQ9Ik0xNS43Miw5SDl2OC4yNUg5YS4zOS4zOSwwLDAsMCwuMTgtLjA2QzEwLjM0LDE2LjUsMTUuMzIsMTMuMTgsMTUuNzIsOVoiIGZpbGw9IiM1MGU2ZmYiLz48L3N2Zz4=;strokeColor=#00FFFF;fillColor=none;" parent="1" vertex="1">
                    <mxGeometry x="1430" y="835" width="40" height="40" as="geometry"/>
                </mxCell>
                <mxCell id="63" value="" style="aspect=fixed;html=1;points=[];align=center;image;fontSize=12;image=img/lib/azure2/networking/Route_Tables.svg;strokeColor=#00FFFF;fillColor=none;" parent="1" vertex="1">
                    <mxGeometry x="1200" y="660" width="30.97" height="30" as="geometry"/>
                </mxCell>
                <mxCell id="65" value="" style="whiteSpace=wrap;html=1;fillColor=none;strokeColor=#00FFFF;" parent="1" vertex="1">
                    <mxGeometry x="1610" y="448" width="280" height="292" as="geometry"/>
                </mxCell>
                <mxCell id="66" value="" style="shape=image;verticalLabelPosition=bottom;verticalAlign=top;imageAspect=0;aspect=fixed;image=data:image/svg+xml,PHN2ZyB4bWxucz0iaHR0cDovL3d3dy53My5vcmcvMjAwMC9zdmciIGlkPSJhMTYwNmE1Mi1mYjE0LTQ2MzctODdkZS00ZDUyNGJiYTE4MjkiIHdpZHRoPSIxOCIgaGVpZ2h0PSIxOCIgdmlld0JveD0iMCAwIDE4IDE4Ij4mI3hhOyAgICA8ZGVmcz4mI3hhOyAgICAgICAgPGxpbmVhckdyYWRpZW50IGlkPSJmMDIwZmI3ZS0yMjQzLTQ1MDEtODE1My01ZDY5YmQzYzM0ZjciIHgxPSI5Ljg4IiB5MT0iOC41OSIgeDI9IjExLjUyIiB5Mj0iMTAuMjMiIGdyYWRpZW50VHJhbnNmb3JtPSJ0cmFuc2xhdGUoMi4wMyAtMC40KSByb3RhdGUoLTAuMDgpIiBncmFkaWVudFVuaXRzPSJ1c2VyU3BhY2VPblVzZSI+JiN4YTsgICAgICAgICAgICA8c3RvcCBvZmZzZXQ9IjAiIHN0b3AtY29sb3I9IiM4NmQ2MzMiLz4mI3hhOzxzdG9wIG9mZnNldD0iMSIgc3RvcC1jb2xvcj0iIzVlOTYyNCIvPiYjeGE7ICAgICAgICA8L2xpbmVhckdyYWRpZW50PiYjeGE7ICAgICAgICA8bGluZWFyR3JhZGllbnQgaWQ9ImIzYzJiYzk0LThjN2MtNDhhMi05NzE5LTZlZTg5OWE0M2E5NyIgeDE9IjYuMTgiIHkxPSI4LjU5IiB4Mj0iNy44MSIgeTI9IjEwLjIzIiBncmFkaWVudFVuaXRzPSJ1c2VyU3BhY2VPblVzZSI+JiN4YTsgICAgICAgICAgICAgICAgICAgIDxzdG9wIG9mZnNldD0iMCIgc3RvcC1jb2xvcj0iIzg2ZDYzMyIvPiYjeGE7PHN0b3Agb2Zmc2V0PSIxIiBzdG9wLWNvbG9yPSIjNWU5NjI0Ii8+JiN4YTsgICAgICAgIDwvbGluZWFyR3JhZGllbnQ+JiN4YTsgICAgICAgIDxsaW5lYXJHcmFkaWVudCBpZD0iZTkwMGMzNWQtMDk1OC00ZDRmLWIyOGYtMzAyZWVhYWY1MmY1IiB4MT0iMi40OCIgeTE9IjguNTkiIHgyPSI0LjExIiB5Mj0iMTAuMjMiIGdyYWRpZW50VW5pdHM9InVzZXJTcGFjZU9uVXNlIj4mI3hhOyAgICAgICAgICAgICAgICAgICAgPHN0b3Agb2Zmc2V0PSIwIiBzdG9wLWNvbG9yPSIjODZkNjMzIi8+JiN4YTs8c3RvcCBvZmZzZXQ9IjEiIHN0b3AtY29sb3I9IiM1ZTk2MjQiLz4mI3hhOyAgICAgICAgPC9saW5lYXJHcmFkaWVudD4mI3hhOyAgICA8L2RlZnM+JiN4YTsgICAgPHRpdGxlPkljb24tbmV0d29ya2luZy02MTwvdGl0bGU+JiN4YTsgICAgPGNpcmNsZSBjeD0iMTIuNzQiIGN5PSI4Ljk5IiByPSIxLjE2IiBmaWxsPSJ1cmwoI2YwMjBmYjdlLTIyNDMtNDUwMS04MTUzLTVkNjliZDNjMzRmNykiLz4mI3hhOyAgICA8Y2lyY2xlIGN4PSI5LjA0IiBjeT0iOSIgcj0iMS4xNiIgZmlsbD0idXJsKCNiM2MyYmM5NC04YzdjLTQ4YTItOTcxOS02ZWU4OTlhNDNhOTcpIi8+JiN4YTsgICAgPGNpcmNsZSBjeD0iNS4zNCIgY3k9IjkiIHI9IjEuMTYiIGZpbGw9InVybCgjZTkwMGMzNWQtMDk1OC00ZDRmLWIyOGYtMzAyZWVhYWY1MmY1KSIvPiYjeGE7ICAgIDxwYXRoIGQ9Ik0yLjYxLDcuMjhoLjk0YS4zLjMsMCwwLDEsLjMuM3Y2Ljk0YS42LjYsMCwwLDEtLjYuNkgyLjMxYTAsMCwwLDAsMSwwLDBWNy41OGEuMy4zLDAsMCwxLC4zLS4zWiIgdHJhbnNmb3JtPSJ0cmFuc2xhdGUoMTMuMTggMTYuOTMpIHJvdGF0ZSgxMzQuOTIpIiBmaWxsPSIjNTBlNmZmIi8+JiN4YTsgICAgPHBhdGggZD0iTTIuNTYsMi45MUgzLjVhLjMuMywwLDAsMSwuMy4zdjcuNDNhMCwwLDAsMCwxLDAsMEgyLjg2YS42LjYsMCwwLDEtLjYtLjZWMy4yMWEuMy4zLDAsMCwxLC4zLS4zWiIgdHJhbnNmb3JtPSJ0cmFuc2xhdGUoNS42NiAtMC4xNikgcm90YXRlKDQ0LjkyKSIgZmlsbD0iIzE0OTBkZiIvPiYjeGE7ICAgIDxwYXRoIGQ9Ik0xNC4xNSw3LjI4aC45NGEuNi42LDAsMCwxLC42LjZ2Ni45NGEuMy4zLDAsMCwxLS4zLjNoLS45NGEuMy4zLDAsMCwxLS4zLS4zVjcuMjhhMCwwLDAsMCwxLDAsMFoiIHRyYW5zZm9ybT0idHJhbnNsYXRlKDEyLjMyIC03LjI4KSByb3RhdGUoNDUuMDgpIiBmaWxsPSIjNTBlNmZmIi8+JiN4YTsgICAgPHBhdGggZD0iTTE0LjgxLDIuOTFoLjk0YTAsMCwwLDAsMSwwLDB2Ny40M2EuMy4zLDAsMCwxLS4zLjNIMTQuNWEuMy4zLDAsMCwxLS4zLS4zVjMuNTFhLjYuNiwwLDAsMSwuNi0uNloiIHRyYW5zZm9ybT0idHJhbnNsYXRlKDMwLjM2IDAuOTkpIHJvdGF0ZSgxMzUuMDgpIiBmaWxsPSIjMTQ5MGRmIi8+JiN4YTs8L3N2Zz4=" parent="1" vertex="1">
                    <mxGeometry x="1625.49" y="700" width="40" height="40" as="geometry"/>
                </mxCell>
                <mxCell id="67" value="" style="whiteSpace=wrap;html=1;fillColor=none;strokeColor=#00FFFF;" parent="1" vertex="1">
                    <mxGeometry x="1620" y="458" width="260" height="70" as="geometry"/>
                </mxCell>
                <mxCell id="68" value="" style="shape=image;verticalLabelPosition=bottom;labelBackgroundColor=default;verticalAlign=top;aspect=fixed;imageAspect=0;image=data:image/svg+xml,PHN2ZyB4bWxucz0iaHR0cDovL3d3dy53My5vcmcvMjAwMC9zdmciIHZpZXdCb3g9IjAgMCAxOCAxOCIgaGVpZ2h0PSIxOCIgd2lkdGg9IjE4Ij48ZGVmcz48bGluZWFyR3JhZGllbnQgZ3JhZGllbnRVbml0cz0idXNlclNwYWNlT25Vc2UiIHkyPSI3LjY5NSIgeDI9IjkuMDMzIiB5MT0iMTAuMzA1IiB4MT0iOS4wMzMiIGlkPSJiY2ViNjBkZC04YjhjLTQwOTgtOTRmOC1hZWI0ZGIyZWRhZWYiPjxzdG9wIHN0b3AtY29sb3I9IiM1ZTk2MjQiIG9mZnNldD0iMCIvPjxzdG9wIHN0b3AtY29sb3I9IiM2ZmIwMmEiIG9mZnNldD0iMC4yNDEiLz48c3RvcCBzdG9wLWNvbG9yPSIjN2NjNTJmIiBvZmZzZXQ9IjAuNTAxIi8+PHN0b3Agc3RvcC1jb2xvcj0iIzgzZDIzMiIgb2Zmc2V0PSIwLjc1NiIvPjxzdG9wIHN0b3AtY29sb3I9IiM4NmQ2MzMiIG9mZnNldD0iMSIvPjwvbGluZWFyR3JhZGllbnQ+PC9kZWZzPjxnIGlkPSJhYzc1YzIxZS0yYTkzLTQ2NGYtODA0OC1mMTUxOGRhYjhiNzUiPjxnPjxwYXRoIGZpbGw9InVybCgjYmNlYjYwZGQtOGI4Yy00MDk4LTk0ZjgtYWViNGRiMmVkYWVmKSIgZD0iTTkuMDMxLDcuN0ExLjMwNSwxLjMwNSwwLDEsMCwxMC4zMzgsOSwxLjMwNSwxLjMwNSwwLDAsMCw5LjAzMSw3LjdaIi8+PGc+PHBhdGggZmlsbD0iIzUwZTZmZiIgdHJhbnNmb3JtPSJ0cmFuc2xhdGUoMTMuNjUzIDE2LjQ4NSkgcm90YXRlKDEzNC45MTkpIiBkPSJNMi45NjEsNy4zNzRoLjg4OGEuMjg0LjI4NCwwLDAsMSwuMjg0LjI4NHY2LjU1MWEuNTY4LjU2OCwwLDAsMS0uNTY4LjU2OEgyLjY3N2EwLDAsMCwwLDEsMCwwVjcuNjU5QS4yODQuMjg0LDAsMCwxLDIuOTYxLDcuMzc0WiIvPjxwYXRoIGZpbGw9IiMxNDkwZGYiIHRyYW5zZm9ybT0idHJhbnNsYXRlKDUuODQ3IC0wLjM1OCkgcm90YXRlKDQ0LjkxOSkiIGQ9Ik0yLjkxMywzLjI0NEgzLjhhLjI4NC4yODQsMCwwLDEsLjI4NC4yODR2Ny4wMTVhMCwwLDAsMCwxLDAsMEgzLjJhLjU2OC41NjgsMCwwLDEtLjU2OC0uNTY4VjMuNTI4YS4yODQuMjg0LDAsMCwxLC4yODQtLjI4NFoiLz48cGF0aCBmaWxsPSIjNTBlNmZmIiB0cmFuc2Zvcm09InRyYW5zbGF0ZSgxMi4xMzIgLTcuMDc5KSByb3RhdGUoNDUuMDgxKSIgZD0iTTEzLjg2Nyw3LjM3NGguODg4YS41NjguNTY4LDAsMCwxLC41NjguNTY4djYuNTUxYS4yODQuMjg0LDAsMCwxLS4yODQuMjg0aC0uODg4YS4yODQuMjg0LDAsMCwxLS4yODQtLjI4NFY3LjM3NGEwLDAsMCwwLDEsMCwwWiIvPjxwYXRoIGZpbGw9IiMxNDkwZGYiIHRyYW5zZm9ybT0idHJhbnNsYXRlKDI5Ljg3OSAxLjQzNSkgcm90YXRlKDEzNS4wODEpIiBkPSJNMTQuNDgzLDMuMjQ0aC44ODhhMCwwLDAsMCwxLDAsMHY3LjAxNWEuMjg0LjI4NCwwLDAsMS0uMjg0LjI4NEgxNC4yYS4yODQuMjg0LDAsMCwxLS4yODQtLjI4NFYzLjgxMmEuNTY4LjU2OCwwLDAsMSwuNTY4LS41NjhaIi8+PC9nPjwvZz48L2c+PC9zdmc+;" parent="1" vertex="1">
                    <mxGeometry x="1630" y="488" width="40" height="40" as="geometry"/>
                </mxCell>
                <mxCell id="69" value="" style="whiteSpace=wrap;html=1;fillColor=none;strokeColor=#00FFFF;" parent="1" vertex="1">
                    <mxGeometry x="1620" y="538" width="260" height="70" as="geometry"/>
                </mxCell>
                <mxCell id="70" value="" style="shape=image;verticalLabelPosition=bottom;labelBackgroundColor=default;verticalAlign=top;aspect=fixed;imageAspect=0;image=data:image/svg+xml,PHN2ZyB4bWxucz0iaHR0cDovL3d3dy53My5vcmcvMjAwMC9zdmciIHZpZXdCb3g9IjAgMCAxOCAxOCIgaGVpZ2h0PSIxOCIgd2lkdGg9IjE4Ij48ZGVmcz48bGluZWFyR3JhZGllbnQgZ3JhZGllbnRVbml0cz0idXNlclNwYWNlT25Vc2UiIHkyPSI3LjY5NSIgeDI9IjkuMDMzIiB5MT0iMTAuMzA1IiB4MT0iOS4wMzMiIGlkPSJiY2ViNjBkZC04YjhjLTQwOTgtOTRmOC1hZWI0ZGIyZWRhZWYiPjxzdG9wIHN0b3AtY29sb3I9IiM1ZTk2MjQiIG9mZnNldD0iMCIvPjxzdG9wIHN0b3AtY29sb3I9IiM2ZmIwMmEiIG9mZnNldD0iMC4yNDEiLz48c3RvcCBzdG9wLWNvbG9yPSIjN2NjNTJmIiBvZmZzZXQ9IjAuNTAxIi8+PHN0b3Agc3RvcC1jb2xvcj0iIzgzZDIzMiIgb2Zmc2V0PSIwLjc1NiIvPjxzdG9wIHN0b3AtY29sb3I9IiM4NmQ2MzMiIG9mZnNldD0iMSIvPjwvbGluZWFyR3JhZGllbnQ+PC9kZWZzPjxnIGlkPSJhYzc1YzIxZS0yYTkzLTQ2NGYtODA0OC1mMTUxOGRhYjhiNzUiPjxnPjxwYXRoIGZpbGw9InVybCgjYmNlYjYwZGQtOGI4Yy00MDk4LTk0ZjgtYWViNGRiMmVkYWVmKSIgZD0iTTkuMDMxLDcuN0ExLjMwNSwxLjMwNSwwLDEsMCwxMC4zMzgsOSwxLjMwNSwxLjMwNSwwLDAsMCw5LjAzMSw3LjdaIi8+PGc+PHBhdGggZmlsbD0iIzUwZTZmZiIgdHJhbnNmb3JtPSJ0cmFuc2xhdGUoMTMuNjUzIDE2LjQ4NSkgcm90YXRlKDEzNC45MTkpIiBkPSJNMi45NjEsNy4zNzRoLjg4OGEuMjg0LjI4NCwwLDAsMSwuMjg0LjI4NHY2LjU1MWEuNTY4LjU2OCwwLDAsMS0uNTY4LjU2OEgyLjY3N2EwLDAsMCwwLDEsMCwwVjcuNjU5QS4yODQuMjg0LDAsMCwxLDIuOTYxLDcuMzc0WiIvPjxwYXRoIGZpbGw9IiMxNDkwZGYiIHRyYW5zZm9ybT0idHJhbnNsYXRlKDUuODQ3IC0wLjM1OCkgcm90YXRlKDQ0LjkxOSkiIGQ9Ik0yLjkxMywzLjI0NEgzLjhhLjI4NC4yODQsMCwwLDEsLjI4NC4yODR2Ny4wMTVhMCwwLDAsMCwxLDAsMEgzLjJhLjU2OC41NjgsMCwwLDEtLjU2OC0uNTY4VjMuNTI4YS4yODQuMjg0LDAsMCwxLC4yODQtLjI4NFoiLz48cGF0aCBmaWxsPSIjNTBlNmZmIiB0cmFuc2Zvcm09InRyYW5zbGF0ZSgxMi4xMzIgLTcuMDc5KSByb3RhdGUoNDUuMDgxKSIgZD0iTTEzLjg2Nyw3LjM3NGguODg4YS41NjguNTY4LDAsMCwxLC41NjguNTY4djYuNTUxYS4yODQuMjg0LDAsMCwxLS4yODQuMjg0aC0uODg4YS4yODQuMjg0LDAsMCwxLS4yODQtLjI4NFY3LjM3NGEwLDAsMCwwLDEsMCwwWiIvPjxwYXRoIGZpbGw9IiMxNDkwZGYiIHRyYW5zZm9ybT0idHJhbnNsYXRlKDI5Ljg3OSAxLjQzNSkgcm90YXRlKDEzNS4wODEpIiBkPSJNMTQuNDgzLDMuMjQ0aC44ODhhMCwwLDAsMCwxLDAsMHY3LjAxNWEuMjg0LjI4NCwwLDAsMS0uMjg0LjI4NEgxNC4yYS4yODQuMjg0LDAsMCwxLS4yODQtLjI4NFYzLjgxMmEuNTY4LjU2OCwwLDAsMSwuNTY4LS41NjhaIi8+PC9nPjwvZz48L2c+PC9zdmc+;" parent="1" vertex="1">
                    <mxGeometry x="1630" y="568" width="40" height="40" as="geometry"/>
                </mxCell>
                <mxCell id="71" value="" style="whiteSpace=wrap;html=1;fillColor=none;strokeColor=#00FFFF;" parent="1" vertex="1">
                    <mxGeometry x="1620" y="618" width="260" height="70" as="geometry"/>
                </mxCell>
                <mxCell id="72" value="" style="shape=image;verticalLabelPosition=bottom;labelBackgroundColor=default;verticalAlign=top;aspect=fixed;imageAspect=0;image=data:image/svg+xml,PHN2ZyB4bWxucz0iaHR0cDovL3d3dy53My5vcmcvMjAwMC9zdmciIHZpZXdCb3g9IjAgMCAxOCAxOCIgaGVpZ2h0PSIxOCIgd2lkdGg9IjE4Ij48ZGVmcz48bGluZWFyR3JhZGllbnQgZ3JhZGllbnRVbml0cz0idXNlclNwYWNlT25Vc2UiIHkyPSI3LjY5NSIgeDI9IjkuMDMzIiB5MT0iMTAuMzA1IiB4MT0iOS4wMzMiIGlkPSJiY2ViNjBkZC04YjhjLTQwOTgtOTRmOC1hZWI0ZGIyZWRhZWYiPjxzdG9wIHN0b3AtY29sb3I9IiM1ZTk2MjQiIG9mZnNldD0iMCIvPjxzdG9wIHN0b3AtY29sb3I9IiM2ZmIwMmEiIG9mZnNldD0iMC4yNDEiLz48c3RvcCBzdG9wLWNvbG9yPSIjN2NjNTJmIiBvZmZzZXQ9IjAuNTAxIi8+PHN0b3Agc3RvcC1jb2xvcj0iIzgzZDIzMiIgb2Zmc2V0PSIwLjc1NiIvPjxzdG9wIHN0b3AtY29sb3I9IiM4NmQ2MzMiIG9mZnNldD0iMSIvPjwvbGluZWFyR3JhZGllbnQ+PC9kZWZzPjxnIGlkPSJhYzc1YzIxZS0yYTkzLTQ2NGYtODA0OC1mMTUxOGRhYjhiNzUiPjxnPjxwYXRoIGZpbGw9InVybCgjYmNlYjYwZGQtOGI4Yy00MDk4LTk0ZjgtYWViNGRiMmVkYWVmKSIgZD0iTTkuMDMxLDcuN0ExLjMwNSwxLjMwNSwwLDEsMCwxMC4zMzgsOSwxLjMwNSwxLjMwNSwwLDAsMCw5LjAzMSw3LjdaIi8+PGc+PHBhdGggZmlsbD0iIzUwZTZmZiIgdHJhbnNmb3JtPSJ0cmFuc2xhdGUoMTMuNjUzIDE2LjQ4NSkgcm90YXRlKDEzNC45MTkpIiBkPSJNMi45NjEsNy4zNzRoLjg4OGEuMjg0LjI4NCwwLDAsMSwuMjg0LjI4NHY2LjU1MWEuNTY4LjU2OCwwLDAsMS0uNTY4LjU2OEgyLjY3N2EwLDAsMCwwLDEsMCwwVjcuNjU5QS4yODQuMjg0LDAsMCwxLDIuOTYxLDcuMzc0WiIvPjxwYXRoIGZpbGw9IiMxNDkwZGYiIHRyYW5zZm9ybT0idHJhbnNsYXRlKDUuODQ3IC0wLjM1OCkgcm90YXRlKDQ0LjkxOSkiIGQ9Ik0yLjkxMywzLjI0NEgzLjhhLjI4NC4yODQsMCwwLDEsLjI4NC4yODR2Ny4wMTVhMCwwLDAsMCwxLDAsMEgzLjJhLjU2OC41NjgsMCwwLDEtLjU2OC0uNTY4VjMuNTI4YS4yODQuMjg0LDAsMCwxLC4yODQtLjI4NFoiLz48cGF0aCBmaWxsPSIjNTBlNmZmIiB0cmFuc2Zvcm09InRyYW5zbGF0ZSgxMi4xMzIgLTcuMDc5KSByb3RhdGUoNDUuMDgxKSIgZD0iTTEzLjg2Nyw3LjM3NGguODg4YS41NjguNTY4LDAsMCwxLC41NjguNTY4djYuNTUxYS4yODQuMjg0LDAsMCwxLS4yODQuMjg0aC0uODg4YS4yODQuMjg0LDAsMCwxLS4yODQtLjI4NFY3LjM3NGEwLDAsMCwwLDEsMCwwWiIvPjxwYXRoIGZpbGw9IiMxNDkwZGYiIHRyYW5zZm9ybT0idHJhbnNsYXRlKDI5Ljg3OSAxLjQzNSkgcm90YXRlKDEzNS4wODEpIiBkPSJNMTQuNDgzLDMuMjQ0aC44ODhhMCwwLDAsMCwxLDAsMHY3LjAxNWEuMjg0LjI4NCwwLDAsMS0uMjg0LjI4NEgxNC4yYS4yODQuMjg0LDAsMCwxLS4yODQtLjI4NFYzLjgxMmEuNTY4LjU2OCwwLDAsMSwuNTY4LS41NjhaIi8+PC9nPjwvZz48L2c+PC9zdmc+;" parent="1" vertex="1">
                    <mxGeometry x="1630" y="648" width="40" height="40" as="geometry"/>
                </mxCell>
                <mxCell id="75" value="&lt;font color=&quot;#ffffff&quot;&gt;applicationGatewaySubnet&lt;/font&gt;" style="text;strokeColor=none;align=left;fillColor=none;html=1;verticalAlign=middle;whiteSpace=wrap;rounded=0;" parent="1" vertex="1">
                    <mxGeometry x="1670" y="502" width="60" height="30" as="geometry"/>
                </mxCell>
                <mxCell id="76" value="&lt;font color=&quot;#ffffff&quot;&gt;privateLinkSubnet&lt;/font&gt;" style="text;strokeColor=none;align=left;fillColor=none;html=1;verticalAlign=middle;whiteSpace=wrap;rounded=0;" parent="1" vertex="1">
                    <mxGeometry x="1670" y="584" width="60" height="30" as="geometry"/>
                </mxCell>
                <mxCell id="77" value="&lt;font color=&quot;#ffffff&quot;&gt;applicationServerSubnet&lt;/font&gt;" style="text;strokeColor=none;align=left;fillColor=none;html=1;verticalAlign=middle;whiteSpace=wrap;rounded=0;" parent="1" vertex="1">
                    <mxGeometry x="1670" y="662" width="60" height="30" as="geometry"/>
                </mxCell>
                <mxCell id="83" value="&lt;font color=&quot;#ffffff&quot;&gt;spoke01Vnet&lt;/font&gt;" style="text;strokeColor=none;align=left;fillColor=none;html=1;verticalAlign=middle;whiteSpace=wrap;rounded=0;" parent="1" vertex="1">
                    <mxGeometry x="1670" y="710" width="60" height="30" as="geometry"/>
                </mxCell>
                <mxCell id="84" value="" style="shape=image;verticalLabelPosition=bottom;verticalAlign=top;imageAspect=0;aspect=fixed;image=data:image/svg+xml,PHN2ZyB4bWxucz0iaHR0cDovL3d3dy53My5vcmcvMjAwMC9zdmciIGlkPSJiNzU5NDNiYS0xYTNmLTQ4NWQtYjQ1ZC0zZmVlMDBlZDdlNWUiIHdpZHRoPSIxOCIgaGVpZ2h0PSIxOCIgdmlld0JveD0iMCAwIDE4IDE4Ij48ZGVmcz48bGluZWFyR3JhZGllbnQgaWQ9ImZlNWNlNDNmLTI4MjMtNDYxNy1iYjU0LTU3ZGY5ZTc3ODM3MiIgeDE9IjkuMDEiIHkxPSIwLjc1IiB4Mj0iOS4wMSIgeTI9IjE3LjI1IiBncmFkaWVudFVuaXRzPSJ1c2VyU3BhY2VPblVzZSI+PHN0b3Agb2Zmc2V0PSIwIiBzdG9wLWNvbG9yPSIjNWVhMGVmIi8+PHN0b3Agb2Zmc2V0PSIwLjE4IiBzdG9wLWNvbG9yPSIjNTU5Y2VjIi8+PHN0b3Agb2Zmc2V0PSIwLjQ3IiBzdG9wLWNvbG9yPSIjM2M5MWU1Ii8+PHN0b3Agb2Zmc2V0PSIwLjg0IiBzdG9wLWNvbG9yPSIjMTM4MGRhIi8+PHN0b3Agb2Zmc2V0PSIxIiBzdG9wLWNvbG9yPSIjMDA3OGQ0Ii8+PC9saW5lYXJHcmFkaWVudD48L2RlZnM+PHRpdGxlPkljb24tbmV0d29ya2luZy02NzwvdGl0bGU+PHBhdGggZD0iTTE2LjM2LDguNGMwLDQuODQtNS44NSw4Ljc0LTcuMTIsOS41M2EuNDYuNDYsMCwwLDEtLjQ4LDBjLTEuMjctLjc5LTcuMTItNC42OS03LjEyLTkuNTNWMi41OGEuNDYuNDYsMCwwLDEsLjQ1LS40NkM2LjY0LDIsNS41OSwwLDksMHMyLjM2LDIsNi45MSwyLjEyYS40Ni40NiwwLDAsMSwuNDUuNDZaIiBmaWxsPSIjMDA3OGQ0Ii8+PHBhdGggZD0iTTE1Ljc1LDguNDVjMCw0LjQ0LTUuMzYsOC02LjUzLDguNzRhLjQzLjQzLDAsMCwxLS40NCwwYy0xLjE3LS43Mi02LjUzLTQuMy02LjUzLTguNzRWMy4xMWEuNDIuNDIsMCwwLDEsLjQxLS40MkM2LjgzLDIuNTgsNS44Ny43NSw5LC43NXMyLjE3LDEuODMsNi4zNCwxLjk0YS40Mi40MiwwLDAsMSwuNDEuNDJaIiBmaWxsPSIjNmJiOWYyIi8+PHBhdGggZD0iTTksOVYuNzVjMy4xMywwLDIuMTcsMS44Myw2LjM0LDEuOTRhLjQzLjQzLDAsMCwxLC40MS40M1Y4LjQ2YTQuODksNC44OSwwLDAsMSwwLC41NFpNOSw5SDIuMjhjLjQsNC4xOCw1LjM4LDcuNSw2LjUsOC4xOWEuMzkuMzksMCwwLDAsLjE4LjA2SDlaIiBmaWxsPSJ1cmwoI2ZlNWNlNDNmLTI4MjMtNDYxNy1iYjU0LTU3ZGY5ZTc3ODM3MikiLz48cGF0aCBkPSJNMi42NiwyLjY5QzYuODMsMi41OCw1Ljg3Ljc1LDksLjc1VjlIMi4yOGE0Ljg5LDQuODksMCwwLDEsMC0uNTRWMy4xMkEuNDMuNDMsMCwwLDEsMi42NiwyLjY5WiIgZmlsbD0iIzUwZTZmZiIvPjxwYXRoIGQ9Ik0xNS43Miw5SDl2OC4yNUg5YS4zOS4zOSwwLDAsMCwuMTgtLjA2QzEwLjM0LDE2LjUsMTUuMzIsMTMuMTgsMTUuNzIsOVoiIGZpbGw9IiM1MGU2ZmYiLz48L3N2Zz4=;strokeColor=#00FFFF;fillColor=none;" parent="1" vertex="1">
                    <mxGeometry x="1860" y="633" width="40" height="40" as="geometry"/>
                </mxCell>
                <mxCell id="85" value="" style="shape=image;verticalLabelPosition=bottom;verticalAlign=top;imageAspect=0;aspect=fixed;image=data:image/svg+xml,PHN2ZyB4bWxucz0iaHR0cDovL3d3dy53My5vcmcvMjAwMC9zdmciIGlkPSJiNzU5NDNiYS0xYTNmLTQ4NWQtYjQ1ZC0zZmVlMDBlZDdlNWUiIHdpZHRoPSIxOCIgaGVpZ2h0PSIxOCIgdmlld0JveD0iMCAwIDE4IDE4Ij48ZGVmcz48bGluZWFyR3JhZGllbnQgaWQ9ImZlNWNlNDNmLTI4MjMtNDYxNy1iYjU0LTU3ZGY5ZTc3ODM3MiIgeDE9IjkuMDEiIHkxPSIwLjc1IiB4Mj0iOS4wMSIgeTI9IjE3LjI1IiBncmFkaWVudFVuaXRzPSJ1c2VyU3BhY2VPblVzZSI+PHN0b3Agb2Zmc2V0PSIwIiBzdG9wLWNvbG9yPSIjNWVhMGVmIi8+PHN0b3Agb2Zmc2V0PSIwLjE4IiBzdG9wLWNvbG9yPSIjNTU5Y2VjIi8+PHN0b3Agb2Zmc2V0PSIwLjQ3IiBzdG9wLWNvbG9yPSIjM2M5MWU1Ii8+PHN0b3Agb2Zmc2V0PSIwLjg0IiBzdG9wLWNvbG9yPSIjMTM4MGRhIi8+PHN0b3Agb2Zmc2V0PSIxIiBzdG9wLWNvbG9yPSIjMDA3OGQ0Ii8+PC9saW5lYXJHcmFkaWVudD48L2RlZnM+PHRpdGxlPkljb24tbmV0d29ya2luZy02NzwvdGl0bGU+PHBhdGggZD0iTTE2LjM2LDguNGMwLDQuODQtNS44NSw4Ljc0LTcuMTIsOS41M2EuNDYuNDYsMCwwLDEtLjQ4LDBjLTEuMjctLjc5LTcuMTItNC42OS03LjEyLTkuNTNWMi41OGEuNDYuNDYsMCwwLDEsLjQ1LS40NkM2LjY0LDIsNS41OSwwLDksMHMyLjM2LDIsNi45MSwyLjEyYS40Ni40NiwwLDAsMSwuNDUuNDZaIiBmaWxsPSIjMDA3OGQ0Ii8+PHBhdGggZD0iTTE1Ljc1LDguNDVjMCw0LjQ0LTUuMzYsOC02LjUzLDguNzRhLjQzLjQzLDAsMCwxLS40NCwwYy0xLjE3LS43Mi02LjUzLTQuMy02LjUzLTguNzRWMy4xMWEuNDIuNDIsMCwwLDEsLjQxLS40MkM2LjgzLDIuNTgsNS44Ny43NSw5LC43NXMyLjE3LDEuODMsNi4zNCwxLjk0YS40Mi40MiwwLDAsMSwuNDEuNDJaIiBmaWxsPSIjNmJiOWYyIi8+PHBhdGggZD0iTTksOVYuNzVjMy4xMywwLDIuMTcsMS44Myw2LjM0LDEuOTRhLjQzLjQzLDAsMCwxLC40MS40M1Y4LjQ2YTQuODksNC44OSwwLDAsMSwwLC41NFpNOSw5SDIuMjhjLjQsNC4xOCw1LjM4LDcuNSw2LjUsOC4xOWEuMzkuMzksMCwwLDAsLjE4LjA2SDlaIiBmaWxsPSJ1cmwoI2ZlNWNlNDNmLTI4MjMtNDYxNy1iYjU0LTU3ZGY5ZTc3ODM3MikiLz48cGF0aCBkPSJNMi42NiwyLjY5QzYuODMsMi41OCw1Ljg3Ljc1LDksLjc1VjlIMi4yOGE0Ljg5LDQuODksMCwwLDEsMC0uNTRWMy4xMkEuNDMuNDMsMCwwLDEsMi42NiwyLjY5WiIgZmlsbD0iIzUwZTZmZiIvPjxwYXRoIGQ9Ik0xNS43Miw5SDl2OC4yNUg5YS4zOS4zOSwwLDAsMCwuMTgtLjA2QzEwLjM0LDE2LjUsMTUuMzIsMTMuMTgsMTUuNzIsOVoiIGZpbGw9IiM1MGU2ZmYiLz48L3N2Zz4=;strokeColor=#00FFFF;fillColor=none;" parent="1" vertex="1">
                    <mxGeometry x="1860" y="475" width="40" height="40" as="geometry"/>
                </mxCell>
                <mxCell id="87" value="" style="aspect=fixed;html=1;points=[];align=center;image;fontSize=12;image=img/lib/azure2/networking/Route_Tables.svg;strokeColor=#00FFFF;fillColor=none;" parent="1" vertex="1">
                    <mxGeometry x="1630" y="458" width="30.97" height="30" as="geometry"/>
                </mxCell>
                <mxCell id="88" value="" style="aspect=fixed;html=1;points=[];align=center;image;fontSize=12;image=img/lib/azure2/networking/Route_Tables.svg;strokeColor=#00FFFF;fillColor=none;" parent="1" vertex="1">
                    <mxGeometry x="1630" y="620" width="30.97" height="30" as="geometry"/>
                </mxCell>
                <mxCell id="89" value="" style="shape=image;verticalLabelPosition=bottom;verticalAlign=top;imageAspect=0;aspect=fixed;image=data:image/svg+xml,PHN2ZyB4bWxucz0iaHR0cDovL3d3dy53My5vcmcvMjAwMC9zdmciIGlkPSJlMWU3MWUyOS0wNjVhLTQ2ZjctYWQ0Yi01MmFmMzZhMGJmY2IiIHdpZHRoPSIxOCIgaGVpZ2h0PSIxOCIgdmlld0JveD0iMCAwIDE4IDE4Ij4mI3hhOyAgPGRlZnM+JiN4YTsgICAgPGxpbmVhckdyYWRpZW50IGlkPSJlZjg0NjYzYS1hN2I2LTQ2YTctYTI3NS0xZTQxOWY1ZWFlNjIiIHgxPSI5IiB5MT0iMTkuODUiIHgyPSI5IiB5Mj0iLTEuMDIiIGdyYWRpZW50VW5pdHM9InVzZXJTcGFjZU9uVXNlIj4mI3hhOyAgICAgIDxzdG9wIG9mZnNldD0iMCIgc3RvcC1jb2xvcj0iIzVlOTYyNCIvPiYjeGE7ICAgICAgPHN0b3Agb2Zmc2V0PSIwLjAyIiBzdG9wLWNvbG9yPSIjNWY5NzI0Ii8+JiN4YTsgICAgICA8c3RvcCBvZmZzZXQ9IjEiIHN0b3AtY29sb3I9IiM3NmJjMmQiLz4mI3hhOyAgICA8L2xpbmVhckdyYWRpZW50PiYjeGE7ICA8L2RlZnM+JiN4YTsgIDx0aXRsZT5JY29uLW5ldHdvcmtpbmctNjI8L3RpdGxlPiYjeGE7ICA8cGF0aCBkPSJNLjE4LDguNTcsOC41Ny4xOGEuNi42LDAsMCwxLC44NiwwbDguMzksOC4zOWEuNi42LDAsMCwxLDAsLjg2bC04LjQsOC40YS42LjYsMCwwLDEtLjg0LDBMLjE4LDkuNDNBLjYuNiwwLDAsMSwuMTgsOC41N1oiIGZpbGw9InVybCgjZWY4NDY2M2EtYTdiNi00NmE3LWEyNzUtMWU0MTlmNWVhZTYyKSIvPiYjeGE7ICA8cGF0aCBkPSJNMTEuMiw0LDkuMDgsMS44OWEuMTIuMTIsMCwwLDAtLjE2LDBMNi44LDRhLjEuMSwwLDAsMCwuMDguMThIOC4xMmEuMTEuMTEsMCwwLDEsLjExLjExdjJhLjExLjExLDAsMCwwLC4xMS4xMUg5LjY2YS4xMS4xMSwwLDAsMCwuMTEtLjExdi0yYS4xMS4xMSwwLDAsMSwuMTEtLjExaDEuMjRBLjEuMSwwLDAsMCwxMS4yLDRaIiBmaWxsPSIjYjRlYzM2Ii8+JiN4YTsgIDxwYXRoIGQ9Ik00LDYuNjEsMS45LDguNzRhLjExLjExLDAsMCwwLDAsLjE1TDQsMTFhLjExLjExLDAsMCwwLC4xOS0uMDhWOS42OWEuMTEuMTEsMCwwLDEsLjExLS4xMWgyYS4xLjEsMCwwLDAsLjEtLjExVjguMTVBLjEuMSwwLDAsMCw2LjMzLDhoLTJhLjEuMSwwLDAsMS0uMTEtLjFWNi42OUEuMTEuMTEsMCwwLDAsNCw2LjYxWiIgZmlsbD0iI2I0ZWMzNiIvPiYjeGE7ICA8cGF0aCBkPSJNMTQuMDgsMTFsMi4xMy0yLjEyYS4xMS4xMSwwLDAsMCwwLS4xNUwxNC4wOCw2LjYxYS4xMS4xMSwwLDAsMC0uMTguMDhWNy45NGEuMS4xLDAsMCwxLS4xMS4xaC0yYS4xLjEsMCwwLDAtLjEuMTFWOS40N2EuMS4xLDAsMCwwLC4xLjExaDJhLjExLjExLDAsMCwxLC4xMS4xMXYxLjI0QS4xMS4xMSwwLDAsMCwxNC4wOCwxMVoiIGZpbGw9IiNiNGVjMzYiLz4mI3hhOyAgPHBhdGggZD0iTTExLjc5LDlhMi43OSwyLjc5LDAsMSwwLTMuNTQsMi42N3YuOTVhMS43MSwxLjcxLDAsMSwwLDEuNTcsMHYtMUEyLjc3LDIuNzcsMCwwLDAsMTEuNzksOVoiIGZpbGw9IiNmZmYiLz4mI3hhOyAgPGNpcmNsZSBpZD0iZTk5YzMzODctMTVjMy00ZjI4LWJkNGItY2IyMDliNDMwZTA2IiBjeD0iOS4wMSIgY3k9IjguOTkiIHI9IjEuNjIiIGZpbGw9IiM1ZWEwZWYiLz4mI3hhOzwvc3ZnPg==;strokeColor=#00FFFF;fontColor=#FFFFFF;fillColor=none;" parent="1" vertex="1">
                    <mxGeometry x="1680" y="626" width="40" height="40" as="geometry"/>
                </mxCell>
                <mxCell id="90" value="" style="shape=image;verticalLabelPosition=bottom;verticalAlign=top;imageAspect=0;aspect=fixed;image=data:image/svg+xml,PHN2ZyB4bWxucz0iaHR0cDovL3d3dy53My5vcmcvMjAwMC9zdmciIGlkPSJhY2FjNWEzNC1hMDMyLTQ5ZjktOTM5Ny0zN2Y0ZjFiNGFlOWEiIHdpZHRoPSIxOCIgaGVpZ2h0PSIxOCIgdmlld0JveD0iMCAwIDE4IDE4Ij4mI3hhOyAgPGRlZnM+JiN4YTsgICAgPGxpbmVhckdyYWRpZW50IGlkPSJmNmQ1Mzk5Yi1hNWNiLTRjMDktOTZjYy05ZTNiYjFhZjIzODYiIHgxPSI5IiB5MT0iMTkuMjUiIHgyPSI5IiB5Mj0iLTAuNDYiIGdyYWRpZW50VHJhbnNmb3JtPSJ0cmFuc2xhdGUoOSAtMy43Mykgcm90YXRlKDQ1KSIgZ3JhZGllbnRVbml0cz0idXNlclNwYWNlT25Vc2UiPiYjeGE7ICAgICAgPHN0b3Agb2Zmc2V0PSIwIiBzdG9wLWNvbG9yPSIjNWU5NjI0Ii8+JiN4YTsgICAgICA8c3RvcCBvZmZzZXQ9IjAuNTUiIHN0b3AtY29sb3I9IiM2ZGFkMmEiLz4mI3hhOyAgICAgIDxzdG9wIG9mZnNldD0iMSIgc3RvcC1jb2xvcj0iIzc2YmMyZCIvPiYjeGE7ICAgIDwvbGluZWFyR3JhZGllbnQ+JiN4YTsgICAgPGxpbmVhckdyYWRpZW50IGlkPSJhNDMyNDJhMi00ZDk1LTRmNmQtODg3MC0yNzAyY2ViNmFlYmMiIHgxPSI3LjU0IiB5MT0iNi40NCIgeDI9IjcuNTMiIHkyPSI1LjE4IiBncmFkaWVudFVuaXRzPSJ1c2VyU3BhY2VPblVzZSI+JiN4YTsgICAgICA8c3RvcCBvZmZzZXQ9IjAiIHN0b3AtY29sb3I9IiNjY2MiLz4mI3hhOyAgICAgIDxzdG9wIG9mZnNldD0iMC4xMiIgc3RvcC1jb2xvcj0iI2Q3ZDdkNyIvPiYjeGE7ICAgICAgPHN0b3Agb2Zmc2V0PSIwLjQyIiBzdG9wLWNvbG9yPSIjZWJlYmViIi8+JiN4YTsgICAgICA8c3RvcCBvZmZzZXQ9IjAuNzIiIHN0b3AtY29sb3I9IiNmOGY4ZjgiLz4mI3hhOyAgICAgIDxzdG9wIG9mZnNldD0iMSIgc3RvcC1jb2xvcj0iI2ZjZmNmYyIvPiYjeGE7ICAgIDwvbGluZWFyR3JhZGllbnQ+JiN4YTsgICAgPGxpbmVhckdyYWRpZW50IGlkPSJlZWRjZTZkZC03MDZhLTQzYzQtYWM2Ni02NmI3MzU3ODIyMWQiIHgxPSI5LjM2IiB5MT0iNy42OSIgeDI9IjkuMzYiIHkyPSI2LjU3IiBocmVmPSIjYTQzMjQyYTItNGQ5NS00ZjZkLTg4NzAtMjcwMmNlYjZhZWJjIi8+JiN4YTsgIDwvZGVmcz4mI3hhOyAgPHRpdGxlPkljb24tbmV0d29ya2luZy03NjwvdGl0bGU+JiN4YTsgIDxyZWN0IHg9IjIuODIiIHk9IjIuODIiIHdpZHRoPSIxMi4zNSIgaGVpZ2h0PSIxMi4zNSIgcng9IjAuNTciIHRyYW5zZm9ybT0idHJhbnNsYXRlKC0zLjczIDkpIHJvdGF0ZSgtNDUpIiBmaWxsPSJ1cmwoI2Y2ZDUzOTliLWE1Y2ItNGMwOS05NmNjLTllM2JiMWFmMjM4NikiLz4mI3hhOyAgPGc+JiN4YTsgICAgPHBhdGggZD0iTTEwLjg5LDEwLjUxaDIuODRhLjExLjExLDAsMCwwLC4xLS4xMVY3LjU3YS4xLjEsMCwwLDAtLjE4LS4wN2wtLjc4Ljc4LDAsLjA1YS4xLjEsMCwwLDEtLjE0LDBMOS4yNiw0LjkxYS4xLjEsMCwwLDAtLjE0LDBsLS44OC44OGEuMTEuMTEsMCwwLDAsMCwuMTVsMy40MSwzLjQxYS4xMS4xMSwwLDAsMSwwLC4xNWwtLjA1LjA1LS43OC43OEEuMTEuMTEsMCwwLDAsMTAuODksMTAuNTFaIiBmaWxsPSIjZmZmIi8+JiN4YTsgICAgPHBhdGggZD0iTTYuOTIsMTAuNTFINC4wOEEuMTEuMTEsMCwwLDEsNCwxMC40VjcuNTdhLjEuMSwwLDAsMSwuMTctLjA3bC43OS43OCwwLC4wNWEuMS4xLDAsMCwwLC4xNCwwTDguNTUsNC45MWEuMS4xLDAsMCwxLC4xNCwwbC44OC44OGEuMTEuMTEsMCwwLDEsMCwuMTVMNi4xNiw5LjM1YS4xMS4xMSwwLDAsMCwwLC4xNWwwLC4wNS43OC43OEEuMTEuMTEsMCwwLDEsNi45MiwxMC41MVoiIGZpbGw9IiNmZmYiLz4mI3hhOyAgICA8cGF0aCBkPSJNNi44MiwxMy4wN2wyLDJhLjEuMSwwLDAsMCwuMTQsMGwyLTJhLjEuMSwwLDAsMC0uMDctLjE3SDkuNzJhLjExLjExLDAsMCwxLS4xLS4xVjhhLjEuMSwwLDAsMC0uMS0uMTFIOC4yOEEuMTEuMTEsMCwwLDAsOC4xNyw4VjEyLjhhLjEuMSwwLDAsMS0uMS4xSDYuODlBLjEuMSwwLDAsMCw2LjgyLDEzLjA3WiIgZmlsbD0iI2ZmZiIvPiYjeGE7ICA8L2c+JiN4YTsgIDxwYXRoIGlkPSJhYzBhOWMwYy0yZThjLTQ4NDMtYjAyYi0yZmFkZjc2YjI3ZDAiIGQ9Ik0xMC42NSw3Ljc4QTIuNzEsMi43MSwwLDAsMSw3LjMzLDMuNWwwLDBhMi43MSwyLjcxLDAsMCwxLDMuMjksNC4zIiBmaWxsPSIjMDA3OGQ0Ii8+JiN4YTsgIDxjaXJjbGUgY3g9IjcuNTMiIGN5PSI1LjU1IiByPSIwLjg3IiBmaWxsPSJ1cmwoI2E0MzI0MmEyLTRkOTUtNGY2ZC04ODcwLTI3MDJjZWI2YWViYykiLz4mI3hhOyAgPGc+JiN4YTsgICAgPHBhdGggZD0iTTYuNjcsN2wuMTkuM0w3LDcuNWE1Ljk0LDUuOTQsMCwwLDEsLjM0LTEuMS44NS44NSwwLDAsMS0uNDUtLjIzQTYuNzEsNi43MSwwLDAsMCw2LjY3LDdaIiBmaWxsPSIjZjJmMmYyIiBvcGFjaXR5PSIwLjU1Ii8+JiN4YTsgICAgPHBhdGggZD0iTTcuMjQsNC43M0E0LDQsMCwwLDEsNywzLjhhMi40OCwyLjQ4LDAsMCwwLS4zNC40NkEzLjUxLDMuNTEsMCwwLDAsNi44Niw1LDEsMSwwLDAsMSw3LjI0LDQuNzNaIiBmaWxsPSIjZjJmMmYyIiBvcGFjaXR5PSIwLjU1Ii8+JiN4YTsgICAgPHBhdGggZD0iTTguMTcsNi4xNGEuODcuODcsMCwwLDEtLjQ4LjI2LDQuNjIsNC42MiwwLDAsMCwuNDYuNDEsNC4xNCw0LjE0LDAsMCwwLC42NS4zOVY3LjEzQS41My41MywwLDAsMSw5LDYuNzMsMy42LDMuNiwwLDAsMSw4LjE3LDYuMTRaIiBmaWxsPSIjZjJmMmYyIiBvcGFjaXR5PSIwLjU1Ii8+JiN4YTsgICAgPHBhdGggZD0iTTEwLjc5LDcuMmE0LjE0LDQuMTQsMCwwLDEtLjg3LS4xdjBhLjU1LjU1LDAsMCwxLS4xNi4zOSwzLjg0LDMuODQsMCwwLDAsMS4wOC4wOCwyLjkzLDIuOTMsMCwwLDAsLjM3LS40MloiIGZpbGw9IiNmMmYyZjIiIG9wYWNpdHk9IjAuNTUiLz4mI3hhOyAgPC9nPiYjeGE7ICA8Y2lyY2xlIGN4PSI5LjM2IiBjeT0iNy4xMyIgcj0iMC41NiIgZmlsbD0idXJsKCNlZWRjZTZkZC03MDZhLTQzYzQtYWM2Ni02NmI3MzU3ODIyMWQpIi8+JiN4YTsgIDxjaXJjbGUgY3g9IjEwLjY0IiBjeT0iNS43NCIgcj0iMC42IiBmaWxsPSIjZjJmMmYyIi8+JiN4YTsgIDxnPiYjeGE7ICAgIDxwYXRoIGQ9Ik05LjIxLDQuNDJBNC4yOSw0LjI5LDAsMCwxLDExLjA5LDRhMi4yNCwyLjI0LDAsMCwwLS40Ny0uNDUsNC41LDQuNSwwLDAsMC0xLjQ5LjM1Yy0uMSwwLS4xOS4xMS0uMjkuMTZoMGE1Ljg1LDUuODUsMCwwLDEtLjYzLS45M2wtLjM0LjEzYTUuMzUsNS4zNSwwLDAsMCwuNjUsMSwzLjkyLDMuOTIsMCwwLDAtLjY3LjU1Ljg3Ljg3LDAsMCwxLC40My4zNSwzLjI5LDMuMjksMCwwLDEsLjYxLS40OCw5LjE2LDkuMTYsMCwwLDAsMS4xNywxLC41Ny41NywwLDAsMSwuMi0uMzJBOC40NCw4LjQ0LDAsMCwxLDkuMjEsNC40MloiIGZpbGw9IiNmMmYyZjIiIG9wYWNpdHk9IjAuNTUiLz4mI3hhOyAgICA8cGF0aCBkPSJNMTEuNTUsNi4wOWgwbC0uMSwwaDBsLS4wOCwwaDBsLS4xLS4wNmEuNjEuNjEsMCwwLDEtLjIuM2wuMTIuMDdoMGwuMTEuMDZoMGwuMjguMTRoMGEzLjU4LDMuNTgsMCwwLDAsLjA5LS4zNVoiIGZpbGw9IiNmMmYyZjIiIG9wYWNpdHk9IjAuNTUiLz4mI3hhOyAgPC9nPiYjeGE7ICA8Y2lyY2xlIGN4PSI3LjUzIiBjeT0iNS41NSIgcj0iMC44NyIgZmlsbD0iI2YyZjJmMiIvPiYjeGE7ICA8Y2lyY2xlIGN4PSI5LjM2IiBjeT0iNy4xMyIgcj0iMC41NiIgZmlsbD0iI2YyZjJmMiIvPiYjeGE7PC9zdmc+;strokeColor=#00FFFF;fontColor=#FFFFFF;fillColor=none;" parent="1" vertex="1">
                    <mxGeometry x="1680" y="470" width="40" height="40" as="geometry"/>
                </mxCell>
                <mxCell id="91" value="" style="shape=image;verticalLabelPosition=bottom;verticalAlign=top;imageAspect=0;aspect=fixed;image=data:image/svg+xml,PHN2ZyB4bWxucz0iaHR0cDovL3d3dy53My5vcmcvMjAwMC9zdmciIGlkPSJlMDA1MDcyMS1lOGQ4LTRjNzktYWU1MC1kOGZjMjg3MWQ5MzIiIHdpZHRoPSIxOCIgaGVpZ2h0PSIxOCIgdmlld0JveD0iMCAwIDE4IDE4Ij48ZGVmcz48bGluZWFyR3JhZGllbnQgaWQ9ImZjYWQzMjg3LWI3MWMtNDRmYS05NzFhLTZhMThiY2YzODRhMCIgeDE9IjkuMDEiIHkxPSIxNi41IiB4Mj0iOS4wMSIgeTI9IjEuNSIgZ3JhZGllbnRVbml0cz0idXNlclNwYWNlT25Vc2UiPjxzdG9wIG9mZnNldD0iMCIgc3RvcC1jb2xvcj0iIzVlOTY0MSIvPjxzdG9wIG9mZnNldD0iMC4zNCIgc3RvcC1jb2xvcj0iIzZiYWE0MiIvPjxzdG9wIG9mZnNldD0iMC42NyIgc3RvcC1jb2xvcj0iIzczYjc0MyIvPjxzdG9wIG9mZnNldD0iMSIgc3RvcC1jb2xvcj0iIzc2YmI0MyIvPjwvbGluZWFyR3JhZGllbnQ+PC9kZWZzPjx0aXRsZT5JY29uLW5ldHdvcmtpbmctODA8L3RpdGxlPjxwYXRoIGQ9Ik0xNS44OSwyLjkxaDEuMjdhLjM0LjM0LDAsMCwxLC4zNC4zNHYzLjVhLjM0LjM0LDAsMCwxLS4zNC4zNEgxNS44OWEwLDAsMCwwLDEsMCwwVjIuOTFBMCwwLDAsMCwxLDE1Ljg5LDIuOTFaIiBmaWxsPSIjZmZjYTAwIi8+PHBhdGggZD0iTTE1Ljg5LDloMS4yN2EuMzQuMzQsMCwwLDEsLjM0LjM0djUuODZhLjM0LjM0LDAsMCwxLS4zNC4zNEgxNS44OWEwLDAsMCwwLDEsMCwwVjlBMCwwLDAsMCwxLDE1Ljg5LDlaIiBmaWxsPSIjZmZjYTAwIi8+PHJlY3QgeD0iMi4xMyIgeT0iMS41IiB3aWR0aD0iMTMuNzYiIGhlaWdodD0iMTUiIHJ4PSIwLjY5IiBmaWxsPSJ1cmwoI2ZjYWQzMjg3LWI3MWMtNDRmYS05NzFhLTZhMThiY2YzODRhMCkiLz48cGF0aCBkPSJNNS45LDEyLjlINS4xOUEuMi4yLDAsMCwxLDUsMTIuNjlWNC4zNGEuMTkuMTksMCwwLDEsLjE5LS4ySDcuMTJhLjE5LjE5LDAsMCwxLC4xOS4yLjIuMiwwLDAsMS0uMTkuMjFINS4zOHY3LjkzSDUuOWEuMi4yLDAsMCwxLC4xOS4yMUEuMjEuMjEsMCwwLDEsNS45LDEyLjlaIiBmaWxsPSIjYjRlYzM2Ii8+PHBhdGggZD0iTTYsMTMuOTJINC40YS4yLjIsMCwwLDEtLjE5LS4yMUw0LjA4LDMuMzhhLjIuMiwwLDAsMSwuMDYtLjE1LjE2LjE2LDAsMCwxLC4xMy0uMDZINy4xMnYuNDFINC40N2wuMTIsOS45Mkg2WiIgZmlsbD0iI2I0ZWMzNiIvPjxwYXRoIGQ9Ik0xMiwxM0gxMC40MWEuMTkuMTksMCwwLDEtLjE0LS4wNy4xOC4xOCwwLDAsMS0uMDYtLjE0VjcuOWEuMTkuMTksMCwwLDEsLjE5LS4ybC45MSwwLDAtMi4yNWguMzhsMCwyLjQ0YS4yLjIsMCwwLDEtLjE4LjIxbC0uOTEsMHY0LjQySDEyWiIgZmlsbD0iI2I0ZWMzNiIvPjxyZWN0IHg9IjcuMDciIHk9IjIuMjkiIHdpZHRoPSI2LjE0IiBoZWlnaHQ9IjMuMTEiIHJ4PSIwLjI2IiBmaWxsPSIjMzY1NjE1Ii8+PHJlY3QgeD0iNS44NiIgeT0iMTIuNjkiIHdpZHRoPSI0LjkiIGhlaWdodD0iMS4wOSIgcng9IjAuMjYiIHRyYW5zZm9ybT0idHJhbnNsYXRlKDIxLjU0IDQuOTMpIHJvdGF0ZSg5MCkiIGZpbGw9IiMzNjU2MTUiLz48cmVjdCB4PSIzLjk5IiB5PSIxMi43MSIgd2lkdGg9IjQuOSIgaGVpZ2h0PSIxLjA5IiByeD0iMC4yNiIgdHJhbnNmb3JtPSJ0cmFuc2xhdGUoMTkuNyA2LjgyKSByb3RhdGUoOTApIiBmaWxsPSIjMzY1NjE1Ii8+PHJlY3QgeD0iOS45OCIgeT0iMTIuNzEiIHdpZHRoPSI0LjkiIGhlaWdodD0iMS4wOSIgcng9IjAuMjYiIHRyYW5zZm9ybT0idHJhbnNsYXRlKDI1LjY4IDAuODMpIHJvdGF0ZSg5MCkiIGZpbGw9IiNmMmYyZjIiLz48ZWxsaXBzZSBjeD0iOC4xMSIgY3k9IjguMDYiIHJ4PSIxLjA0IiByeT0iMS4xMiIgZmlsbD0iI2YyZjJmMiIvPjxwYXRoIGQ9Ik0uNSw1LjdIMS43N0EuMzQuMzQsMCwwLDEsMi4xMSw2djUuODZhLjM0LjM0LDAsMCwxLS4zNC4zNEguNWEwLDAsMCwwLDEsMCwwVjUuN0EwLDAsMCwwLDEsLjUsNS43WiIgdHJhbnNmb3JtPSJ0cmFuc2xhdGUoMi42MSAxNy45NSkgcm90YXRlKDE4MCkiIGZpbGw9IiMzYjNiM2IiLz48L3N2Zz4=;strokeColor=#00FFFF;fontColor=#FFFFFF;fillColor=none;" parent="1" vertex="1">
                    <mxGeometry x="1680" y="549" width="40" height="40" as="geometry"/>
                </mxCell>
                <mxCell id="92" value="" style="shape=image;verticalLabelPosition=bottom;labelBackgroundColor=default;verticalAlign=top;aspect=fixed;imageAspect=0;image=data:image/svg+xml,PHN2ZyB4bWxucz0iaHR0cDovL3d3dy53My5vcmcvMjAwMC9zdmciIHZpZXdCb3g9IjAgMCAxOCAxOCIgaGVpZ2h0PSIxOCIgd2lkdGg9IjE4Ij48ZGVmcz48bGluZWFyR3JhZGllbnQgZ3JhZGllbnRVbml0cz0idXNlclNwYWNlT25Vc2UiIGdyYWRpZW50VHJhbnNmb3JtPSJ0cmFuc2xhdGUoMCAtMjUwKSIgeTI9IjI2My43MTEiIHgyPSI3LjY5OSIgeTE9IjI1OS4yMiIgeDE9IjcuNjk5IiBpZD0iZmQwNjEyMjgtMjJiZS00MjVlLTkxMzEtMGI4Y2NhMGU1ZDE3Ij48c3RvcCBzdG9wLWNvbG9yPSIjNWVhMGVmIiBvZmZzZXQ9IjAuMjMiLz48c3RvcCBzdG9wLWNvbG9yPSIjNWI5ZmVlIiBvZmZzZXQ9IjAuMzIiLz48c3RvcCBzdG9wLWNvbG9yPSIjNTA5YWViIiBvZmZzZXQ9IjAuNDgiLz48c3RvcCBzdG9wLWNvbG9yPSIjM2Y5MmU2IiBvZmZzZXQ9IjAuNTciLz48c3RvcCBzdG9wLWNvbG9yPSIjMjY4OGRmIiBvZmZzZXQ9IjAuNzUiLz48c3RvcCBzdG9wLWNvbG9yPSIjMTI3ZmQ5IiBvZmZzZXQ9IjAuOTMiLz48L2xpbmVhckdyYWRpZW50PjxsaW5lYXJHcmFkaWVudCBncmFkaWVudFVuaXRzPSJ1c2VyU3BhY2VPblVzZSIgZ3JhZGllbnRUcmFuc2Zvcm09InRyYW5zbGF0ZSgwIC0yNTApIiB5Mj0iMjY1LjU4MiIgeDI9IjkuOTI3IiB5MT0iMjYxLjA5MSIgeDE9IjkuOTI3IiBpZD0iZWE5NjQ5YTYtMDRiNS00N2Q2LTgyNDctZWQzYWI5ZmY5ZDA2Ij48c3RvcCBzdG9wLWNvbG9yPSIjNWVhMGVmIiBvZmZzZXQ9IjAuMDIiLz48c3RvcCBzdG9wLWNvbG9yPSIjNWI5ZmVlIiBvZmZzZXQ9IjAuMTQiLz48c3RvcCBzdG9wLWNvbG9yPSIjNWI5ZmVlIiBvZmZzZXQ9IjAuMjMiLz48c3RvcCBzdG9wLWNvbG9yPSIjNTA5YWViIiBvZmZzZXQ9IjAuMzQiLz48c3RvcCBzdG9wLWNvbG9yPSIjM2Y5MmU2IiBvZmZzZXQ9IjAuNDQiLz48c3RvcCBzdG9wLWNvbG9yPSIjMjY4OGRmIiBvZmZzZXQ9IjAuNjMiLz48c3RvcCBzdG9wLWNvbG9yPSIjMTI3ZmQ5IiBvZmZzZXQ9IjAuOTMiLz48L2xpbmVhckdyYWRpZW50PjwvZGVmcz48cGF0aCBmaWxsPSIjN2E3YTdhIiBkPSJNOC4yNTIsMi41MjFIOS4zNzRWOS41OTRIOC4yNTJaIi8+PHBhdGggZmlsbD0iIzE0OTBkZiIgZD0iTTEwLjQ1OSwyLjNBMS42NDcsMS42NDcsMCwxLDEsOC44MTMuNjVoMEExLjY0NiwxLjY0NiwwLDAsMSwxMC40NTksMi4zWiIvPjxwYXRoIGZpbGw9InVybCgjZmQwNjEyMjgtMjJiZS00MjVlLTkxMzEtMGI4Y2NhMGU1ZDE3KSIgZD0iTTguNTg4LDkuMjJoLTEuOGEyLjI0NiwyLjI0NiwwLDAsMC0uMzQ4LDQuNDYxLDIuNDE1LDIuNDE1LDAsMCwxLC4wMjItLjgzNSwxLjQxOCwxLjQxOCwwLDAsMSwuMzI2LTIuOGgxLjhhMS40MjIsMS40MjIsMCwwLDEsMCwyLjg0NEg4LjA5NGExLjA3OCwxLjA3OCwwLDAsMC0uMS40NSwxLjAyMiwxLjAyMiwwLDAsMCwuMDcxLjM3NGguNTI3YTIuMjQ2LDIuMjQ2LDAsMSwwLDAtNC40OTFaIi8+PHBhdGggZmlsbD0idXJsKCNlYTk2NDlhNi0wNGI1LTQ3ZDYtODI0Ny1lZDNhYjlmZjlkMDYpIiBkPSJNMTEuMTgyLDExLjEyMWEyLjY0MiwyLjY0MiwwLDAsMSwuMDI2LjM0NCwyLjMxNywyLjMxNywwLDAsMS0uMDQ5LjQ5MSwxLjQxOCwxLjQxOCwwLDAsMS0uMzI1LDIuOGgtMS44YTEuNDIzLDEuNDIzLDAsMCwxLDAtMi44NDVoLjQ5NGExLjA0MiwxLjA0MiwwLDAsMCwuMS0uNDQ5LDEuMDE4LDEuMDE4LDAsMCwwLS4wNzEtLjM3NEg5LjAzN2EyLjI0NiwyLjI0NiwwLDAsMCwwLDQuNDkxaDEuOGEyLjI0NiwyLjI0NiwwLDAsMCwuMzQ4LTQuNDYxWiIvPjxwYXRoIGZpbGw9IiM1MGU2ZmYiIGQ9Ik01LjU4LDE2LjUyNWwtLjQxMi40MTVhLjI4LjI4LDAsMCwxLS40LDBsLTQuNjA3LTQuNmEuNTY2LjU2NiwwLDAsMSwwLS44bC40MTYtLjQxMiw1LDQuOTkyYS4yNzYuMjc2LDAsMCwxLDAsLjM5MWgwWiIvPjxwYXRoIGZpbGw9IiMxNDkwZGYiIGQ9Ik01LjA4Miw3LjAybC40Ni40NmEuMjgyLjI4MiwwLDAsMSwwLC40TC42MjUsMTIuODA5bC0uNDYxLS40NTdhLjU2Ni41NjYsMCwwLDEsMC0uOEw0LjY4NSw3LjAyQS4yOC4yOCwwLDAsMSw1LjA4Miw3LjAyWiIvPjxwYXRoIGZpbGw9IiM1MGU2ZmYiIGQ9Ik0xMi40MTcsMTYuODUxYS4yNzguMjc4LDAsMCwxLS4wMDYtLjM5MmgwbC4wMDYsMCw1LTQuOTg5LjQxNi40MTZhLjU2Ni41NjYsMCwwLDEsMCwuOGwtNC42MTEsNC41ODhhLjI3Ny4yNzcsMCwwLDEtLjM5MS4wMDZoMGwtLjAwNi0uMDA1WiIvPjxwYXRoIGZpbGw9IiMxNDkwZGYiIGQ9Ik0xMy4zMTEsNy4zNDlsNC41MjUsNC41MzZhLjU2My41NjMsMCwwLDEsMCwuNzkzbC0uNDYxLjQ2TDEyLjQ1NCw4LjIwNmEuMjg5LjI4OSwwLDAsMSwwLS40bC40Ni0uNDU2QS4yODIuMjgyLDAsMCwxLDEzLjMxMSw3LjM0OVoiLz48L3N2Zz4=;strokeColor=#00FFFF;fontColor=#FFFFFF;fillColor=none;" parent="1" vertex="1">
                    <mxGeometry x="1800" y="549" width="40" height="40" as="geometry"/>
                </mxCell>
                <mxCell id="93" value="" style="shape=image;verticalLabelPosition=bottom;verticalAlign=top;imageAspect=0;aspect=fixed;image=data:image/svg+xml,PHN2ZyB4bWxucz0iaHR0cDovL3d3dy53My5vcmcvMjAwMC9zdmciIGlkPSJmZDQ1NGYxYy01NTA2LTQ0YjgtODc0ZS04ODE0YjhiMmY3MGIiIHdpZHRoPSIxOCIgaGVpZ2h0PSIxOCIgdmlld0JveD0iMCAwIDE4IDE4Ij48ZGVmcz48bGluZWFyR3JhZGllbnQgaWQ9ImYzNGQ5NTY5LTJiZDAtNDAwMi04ZjE2LTNkMDFkODEwNmNiNSIgeDE9IjguODgiIHkxPSIxMi4yMSIgeDI9IjguODgiIHkyPSIwLjIxIiBncmFkaWVudFVuaXRzPSJ1c2VyU3BhY2VPblVzZSI+PHN0b3Agb2Zmc2V0PSIwIiBzdG9wLWNvbG9yPSIjMDA3OGQ0Ii8+PHN0b3Agb2Zmc2V0PSIwLjgyIiBzdG9wLWNvbG9yPSIjNWVhMGVmIi8+PC9saW5lYXJHcmFkaWVudD48bGluZWFyR3JhZGllbnQgaWQ9ImJkYjQ1YTBiLWViNTgtNDk3MC1hNjBhLWZiMmNlMzE0Zjg2NiIgeDE9IjguODgiIHkxPSIxNi44NCIgeDI9IjguODgiIHkyPSIxMi4yMSIgZ3JhZGllbnRVbml0cz0idXNlclNwYWNlT25Vc2UiPjxzdG9wIG9mZnNldD0iMC4xNSIgc3RvcC1jb2xvcj0iI2NjYyIvPjxzdG9wIG9mZnNldD0iMSIgc3RvcC1jb2xvcj0iIzcwNzA3MCIvPjwvbGluZWFyR3JhZGllbnQ+PC9kZWZzPjx0aXRsZT5JY29uLWNvbXB1dGUtMjE8L3RpdGxlPjxyZWN0IHg9Ii0wLjEyIiB5PSIwLjIxIiB3aWR0aD0iMTgiIGhlaWdodD0iMTIiIHJ4PSIwLjYiIGZpbGw9InVybCgjZjM0ZDk1NjktMmJkMC00MDAyLThmMTYtM2QwMWQ4MTA2Y2I1KSIvPjxwb2x5Z29uIHBvaW50cz0iMTEuODggNC40NiAxMS44OCA3Ljk1IDguODggOS43MSA4Ljg4IDYuMjEgMTEuODggNC40NiIgZmlsbD0iIzUwZTZmZiIvPjxwb2x5Z29uIHBvaW50cz0iMTEuODggNC40NiA4Ljg4IDYuMjIgNS44OCA0LjQ2IDguODggMi43MSAxMS44OCA0LjQ2IiBmaWxsPSIjYzNmMWZmIi8+PHBvbHlnb24gcG9pbnRzPSI4Ljg4IDYuMjIgOC44OCA5LjcxIDUuODggNy45NSA1Ljg4IDQuNDYgOC44OCA2LjIyIiBmaWxsPSIjOWNlYmZmIi8+PHBvbHlnb24gcG9pbnRzPSI1Ljg4IDcuOTUgOC44OCA2LjIxIDguODggOS43MSA1Ljg4IDcuOTUiIGZpbGw9IiNjM2YxZmYiLz48cG9seWdvbiBwb2ludHM9IjExLjg4IDcuOTUgOC44OCA2LjIxIDguODggOS43MSAxMS44OCA3Ljk1IiBmaWxsPSIjOWNlYmZmIi8+PHBhdGggZD0iTTEyLjQ5LDE1Ljg0Yy0xLjc4LS4yOC0xLjg1LTEuNTYtMS44NS0zLjYzSDcuMTFjMCwyLjA3LS4wNiwzLjM1LTEuODQsMy42M2ExLDEsMCwwLDAtLjg5LDFoOUExLDEsMCwwLDAsMTIuNDksMTUuODRaIiBmaWxsPSJ1cmwoI2JkYjQ1YTBiLWViNTgtNDk3MC1hNjBhLWZiMmNlMzE0Zjg2NikiLz48L3N2Zz4=;strokeColor=#00FFFF;fillColor=none;" parent="1" vertex="1">
                    <mxGeometry x="1740" y="626" width="40" height="40" as="geometry"/>
                </mxCell>
                <mxCell id="94" value="" style="shape=image;verticalLabelPosition=bottom;verticalAlign=top;imageAspect=0;aspect=fixed;image=data:image/svg+xml,PHN2ZyB4bWxucz0iaHR0cDovL3d3dy53My5vcmcvMjAwMC9zdmciIGlkPSJmZDQ1NGYxYy01NTA2LTQ0YjgtODc0ZS04ODE0YjhiMmY3MGIiIHdpZHRoPSIxOCIgaGVpZ2h0PSIxOCIgdmlld0JveD0iMCAwIDE4IDE4Ij48ZGVmcz48bGluZWFyR3JhZGllbnQgaWQ9ImYzNGQ5NTY5LTJiZDAtNDAwMi04ZjE2LTNkMDFkODEwNmNiNSIgeDE9IjguODgiIHkxPSIxMi4yMSIgeDI9IjguODgiIHkyPSIwLjIxIiBncmFkaWVudFVuaXRzPSJ1c2VyU3BhY2VPblVzZSI+PHN0b3Agb2Zmc2V0PSIwIiBzdG9wLWNvbG9yPSIjMDA3OGQ0Ii8+PHN0b3Agb2Zmc2V0PSIwLjgyIiBzdG9wLWNvbG9yPSIjNWVhMGVmIi8+PC9saW5lYXJHcmFkaWVudD48bGluZWFyR3JhZGllbnQgaWQ9ImJkYjQ1YTBiLWViNTgtNDk3MC1hNjBhLWZiMmNlMzE0Zjg2NiIgeDE9IjguODgiIHkxPSIxNi44NCIgeDI9IjguODgiIHkyPSIxMi4yMSIgZ3JhZGllbnRVbml0cz0idXNlclNwYWNlT25Vc2UiPjxzdG9wIG9mZnNldD0iMC4xNSIgc3RvcC1jb2xvcj0iI2NjYyIvPjxzdG9wIG9mZnNldD0iMSIgc3RvcC1jb2xvcj0iIzcwNzA3MCIvPjwvbGluZWFyR3JhZGllbnQ+PC9kZWZzPjx0aXRsZT5JY29uLWNvbXB1dGUtMjE8L3RpdGxlPjxyZWN0IHg9Ii0wLjEyIiB5PSIwLjIxIiB3aWR0aD0iMTgiIGhlaWdodD0iMTIiIHJ4PSIwLjYiIGZpbGw9InVybCgjZjM0ZDk1NjktMmJkMC00MDAyLThmMTYtM2QwMWQ4MTA2Y2I1KSIvPjxwb2x5Z29uIHBvaW50cz0iMTEuODggNC40NiAxMS44OCA3Ljk1IDguODggOS43MSA4Ljg4IDYuMjEgMTEuODggNC40NiIgZmlsbD0iIzUwZTZmZiIvPjxwb2x5Z29uIHBvaW50cz0iMTEuODggNC40NiA4Ljg4IDYuMjIgNS44OCA0LjQ2IDguODggMi43MSAxMS44OCA0LjQ2IiBmaWxsPSIjYzNmMWZmIi8+PHBvbHlnb24gcG9pbnRzPSI4Ljg4IDYuMjIgOC44OCA5LjcxIDUuODggNy45NSA1Ljg4IDQuNDYgOC44OCA2LjIyIiBmaWxsPSIjOWNlYmZmIi8+PHBvbHlnb24gcG9pbnRzPSI1Ljg4IDcuOTUgOC44OCA2LjIxIDguODggOS43MSA1Ljg4IDcuOTUiIGZpbGw9IiNjM2YxZmYiLz48cG9seWdvbiBwb2ludHM9IjExLjg4IDcuOTUgOC44OCA2LjIxIDguODggOS43MSAxMS44OCA3Ljk1IiBmaWxsPSIjOWNlYmZmIi8+PHBhdGggZD0iTTEyLjQ5LDE1Ljg0Yy0xLjc4LS4yOC0xLjg1LTEuNTYtMS44NS0zLjYzSDcuMTFjMCwyLjA3LS4wNiwzLjM1LTEuODQsMy42M2ExLDEsMCwwLDAtLjg5LDFoOUExLDEsMCwwLDAsMTIuNDksMTUuODRaIiBmaWxsPSJ1cmwoI2JkYjQ1YTBiLWViNTgtNDk3MC1hNjBhLWZiMmNlMzE0Zjg2NikiLz48L3N2Zz4=;strokeColor=#00FFFF;fillColor=none;" parent="1" vertex="1">
                    <mxGeometry x="1800" y="626" width="40" height="40" as="geometry"/>
                </mxCell>
                <mxCell id="95" value="" style="whiteSpace=wrap;html=1;fillColor=none;strokeColor=#00FFFF;" parent="1" vertex="1">
                    <mxGeometry x="1610" y="795" width="280" height="145" as="geometry"/>
                </mxCell>
                <mxCell id="96" value="" style="shape=image;verticalLabelPosition=bottom;verticalAlign=top;imageAspect=0;aspect=fixed;image=data:image/svg+xml,PHN2ZyB4bWxucz0iaHR0cDovL3d3dy53My5vcmcvMjAwMC9zdmciIGlkPSJhMTYwNmE1Mi1mYjE0LTQ2MzctODdkZS00ZDUyNGJiYTE4MjkiIHdpZHRoPSIxOCIgaGVpZ2h0PSIxOCIgdmlld0JveD0iMCAwIDE4IDE4Ij4mI3hhOyAgICA8ZGVmcz4mI3hhOyAgICAgICAgPGxpbmVhckdyYWRpZW50IGlkPSJmMDIwZmI3ZS0yMjQzLTQ1MDEtODE1My01ZDY5YmQzYzM0ZjciIHgxPSI5Ljg4IiB5MT0iOC41OSIgeDI9IjExLjUyIiB5Mj0iMTAuMjMiIGdyYWRpZW50VHJhbnNmb3JtPSJ0cmFuc2xhdGUoMi4wMyAtMC40KSByb3RhdGUoLTAuMDgpIiBncmFkaWVudFVuaXRzPSJ1c2VyU3BhY2VPblVzZSI+JiN4YTsgICAgICAgICAgICA8c3RvcCBvZmZzZXQ9IjAiIHN0b3AtY29sb3I9IiM4NmQ2MzMiLz4mI3hhOzxzdG9wIG9mZnNldD0iMSIgc3RvcC1jb2xvcj0iIzVlOTYyNCIvPiYjeGE7ICAgICAgICA8L2xpbmVhckdyYWRpZW50PiYjeGE7ICAgICAgICA8bGluZWFyR3JhZGllbnQgaWQ9ImIzYzJiYzk0LThjN2MtNDhhMi05NzE5LTZlZTg5OWE0M2E5NyIgeDE9IjYuMTgiIHkxPSI4LjU5IiB4Mj0iNy44MSIgeTI9IjEwLjIzIiBncmFkaWVudFVuaXRzPSJ1c2VyU3BhY2VPblVzZSI+JiN4YTsgICAgICAgICAgICAgICAgICAgIDxzdG9wIG9mZnNldD0iMCIgc3RvcC1jb2xvcj0iIzg2ZDYzMyIvPiYjeGE7PHN0b3Agb2Zmc2V0PSIxIiBzdG9wLWNvbG9yPSIjNWU5NjI0Ii8+JiN4YTsgICAgICAgIDwvbGluZWFyR3JhZGllbnQ+JiN4YTsgICAgICAgIDxsaW5lYXJHcmFkaWVudCBpZD0iZTkwMGMzNWQtMDk1OC00ZDRmLWIyOGYtMzAyZWVhYWY1MmY1IiB4MT0iMi40OCIgeTE9IjguNTkiIHgyPSI0LjExIiB5Mj0iMTAuMjMiIGdyYWRpZW50VW5pdHM9InVzZXJTcGFjZU9uVXNlIj4mI3hhOyAgICAgICAgICAgICAgICAgICAgPHN0b3Agb2Zmc2V0PSIwIiBzdG9wLWNvbG9yPSIjODZkNjMzIi8+JiN4YTs8c3RvcCBvZmZzZXQ9IjEiIHN0b3AtY29sb3I9IiM1ZTk2MjQiLz4mI3hhOyAgICAgICAgPC9saW5lYXJHcmFkaWVudD4mI3hhOyAgICA8L2RlZnM+JiN4YTsgICAgPHRpdGxlPkljb24tbmV0d29ya2luZy02MTwvdGl0bGU+JiN4YTsgICAgPGNpcmNsZSBjeD0iMTIuNzQiIGN5PSI4Ljk5IiByPSIxLjE2IiBmaWxsPSJ1cmwoI2YwMjBmYjdlLTIyNDMtNDUwMS04MTUzLTVkNjliZDNjMzRmNykiLz4mI3hhOyAgICA8Y2lyY2xlIGN4PSI5LjA0IiBjeT0iOSIgcj0iMS4xNiIgZmlsbD0idXJsKCNiM2MyYmM5NC04YzdjLTQ4YTItOTcxOS02ZWU4OTlhNDNhOTcpIi8+JiN4YTsgICAgPGNpcmNsZSBjeD0iNS4zNCIgY3k9IjkiIHI9IjEuMTYiIGZpbGw9InVybCgjZTkwMGMzNWQtMDk1OC00ZDRmLWIyOGYtMzAyZWVhYWY1MmY1KSIvPiYjeGE7ICAgIDxwYXRoIGQ9Ik0yLjYxLDcuMjhoLjk0YS4zLjMsMCwwLDEsLjMuM3Y2Ljk0YS42LjYsMCwwLDEtLjYuNkgyLjMxYTAsMCwwLDAsMSwwLDBWNy41OGEuMy4zLDAsMCwxLC4zLS4zWiIgdHJhbnNmb3JtPSJ0cmFuc2xhdGUoMTMuMTggMTYuOTMpIHJvdGF0ZSgxMzQuOTIpIiBmaWxsPSIjNTBlNmZmIi8+JiN4YTsgICAgPHBhdGggZD0iTTIuNTYsMi45MUgzLjVhLjMuMywwLDAsMSwuMy4zdjcuNDNhMCwwLDAsMCwxLDAsMEgyLjg2YS42LjYsMCwwLDEtLjYtLjZWMy4yMWEuMy4zLDAsMCwxLC4zLS4zWiIgdHJhbnNmb3JtPSJ0cmFuc2xhdGUoNS42NiAtMC4xNikgcm90YXRlKDQ0LjkyKSIgZmlsbD0iIzE0OTBkZiIvPiYjeGE7ICAgIDxwYXRoIGQ9Ik0xNC4xNSw3LjI4aC45NGEuNi42LDAsMCwxLC42LjZ2Ni45NGEuMy4zLDAsMCwxLS4zLjNoLS45NGEuMy4zLDAsMCwxLS4zLS4zVjcuMjhhMCwwLDAsMCwxLDAsMFoiIHRyYW5zZm9ybT0idHJhbnNsYXRlKDEyLjMyIC03LjI4KSByb3RhdGUoNDUuMDgpIiBmaWxsPSIjNTBlNmZmIi8+JiN4YTsgICAgPHBhdGggZD0iTTE0LjgxLDIuOTFoLjk0YTAsMCwwLDAsMSwwLDB2Ny40M2EuMy4zLDAsMCwxLS4zLjNIMTQuNWEuMy4zLDAsMCwxLS4zLS4zVjMuNTFhLjYuNiwwLDAsMSwuNi0uNloiIHRyYW5zZm9ybT0idHJhbnNsYXRlKDMwLjM2IDAuOTkpIHJvdGF0ZSgxMzUuMDgpIiBmaWxsPSIjMTQ5MGRmIi8+JiN4YTs8L3N2Zz4=" parent="1" vertex="1">
                    <mxGeometry x="1620" y="895" width="40" height="40" as="geometry"/>
                </mxCell>
                <mxCell id="97" value="" style="whiteSpace=wrap;html=1;fillColor=none;strokeColor=#00FFFF;" parent="1" vertex="1">
                    <mxGeometry x="1620" y="805" width="260" height="70" as="geometry"/>
                </mxCell>
                <mxCell id="98" value="" style="shape=image;verticalLabelPosition=bottom;labelBackgroundColor=default;verticalAlign=top;aspect=fixed;imageAspect=0;image=data:image/svg+xml,PHN2ZyB4bWxucz0iaHR0cDovL3d3dy53My5vcmcvMjAwMC9zdmciIHZpZXdCb3g9IjAgMCAxOCAxOCIgaGVpZ2h0PSIxOCIgd2lkdGg9IjE4Ij48ZGVmcz48bGluZWFyR3JhZGllbnQgZ3JhZGllbnRVbml0cz0idXNlclNwYWNlT25Vc2UiIHkyPSI3LjY5NSIgeDI9IjkuMDMzIiB5MT0iMTAuMzA1IiB4MT0iOS4wMzMiIGlkPSJiY2ViNjBkZC04YjhjLTQwOTgtOTRmOC1hZWI0ZGIyZWRhZWYiPjxzdG9wIHN0b3AtY29sb3I9IiM1ZTk2MjQiIG9mZnNldD0iMCIvPjxzdG9wIHN0b3AtY29sb3I9IiM2ZmIwMmEiIG9mZnNldD0iMC4yNDEiLz48c3RvcCBzdG9wLWNvbG9yPSIjN2NjNTJmIiBvZmZzZXQ9IjAuNTAxIi8+PHN0b3Agc3RvcC1jb2xvcj0iIzgzZDIzMiIgb2Zmc2V0PSIwLjc1NiIvPjxzdG9wIHN0b3AtY29sb3I9IiM4NmQ2MzMiIG9mZnNldD0iMSIvPjwvbGluZWFyR3JhZGllbnQ+PC9kZWZzPjxnIGlkPSJhYzc1YzIxZS0yYTkzLTQ2NGYtODA0OC1mMTUxOGRhYjhiNzUiPjxnPjxwYXRoIGZpbGw9InVybCgjYmNlYjYwZGQtOGI4Yy00MDk4LTk0ZjgtYWViNGRiMmVkYWVmKSIgZD0iTTkuMDMxLDcuN0ExLjMwNSwxLjMwNSwwLDEsMCwxMC4zMzgsOSwxLjMwNSwxLjMwNSwwLDAsMCw5LjAzMSw3LjdaIi8+PGc+PHBhdGggZmlsbD0iIzUwZTZmZiIgdHJhbnNmb3JtPSJ0cmFuc2xhdGUoMTMuNjUzIDE2LjQ4NSkgcm90YXRlKDEzNC45MTkpIiBkPSJNMi45NjEsNy4zNzRoLjg4OGEuMjg0LjI4NCwwLDAsMSwuMjg0LjI4NHY2LjU1MWEuNTY4LjU2OCwwLDAsMS0uNTY4LjU2OEgyLjY3N2EwLDAsMCwwLDEsMCwwVjcuNjU5QS4yODQuMjg0LDAsMCwxLDIuOTYxLDcuMzc0WiIvPjxwYXRoIGZpbGw9IiMxNDkwZGYiIHRyYW5zZm9ybT0idHJhbnNsYXRlKDUuODQ3IC0wLjM1OCkgcm90YXRlKDQ0LjkxOSkiIGQ9Ik0yLjkxMywzLjI0NEgzLjhhLjI4NC4yODQsMCwwLDEsLjI4NC4yODR2Ny4wMTVhMCwwLDAsMCwxLDAsMEgzLjJhLjU2OC41NjgsMCwwLDEtLjU2OC0uNTY4VjMuNTI4YS4yODQuMjg0LDAsMCwxLC4yODQtLjI4NFoiLz48cGF0aCBmaWxsPSIjNTBlNmZmIiB0cmFuc2Zvcm09InRyYW5zbGF0ZSgxMi4xMzIgLTcuMDc5KSByb3RhdGUoNDUuMDgxKSIgZD0iTTEzLjg2Nyw3LjM3NGguODg4YS41NjguNTY4LDAsMCwxLC41NjguNTY4djYuNTUxYS4yODQuMjg0LDAsMCwxLS4yODQuMjg0aC0uODg4YS4yODQuMjg0LDAsMCwxLS4yODQtLjI4NFY3LjM3NGEwLDAsMCwwLDEsMCwwWiIvPjxwYXRoIGZpbGw9IiMxNDkwZGYiIHRyYW5zZm9ybT0idHJhbnNsYXRlKDI5Ljg3OSAxLjQzNSkgcm90YXRlKDEzNS4wODEpIiBkPSJNMTQuNDgzLDMuMjQ0aC44ODhhMCwwLDAsMCwxLDAsMHY3LjAxNWEuMjg0LjI4NCwwLDAsMS0uMjg0LjI4NEgxNC4yYS4yODQuMjg0LDAsMCwxLS4yODQtLjI4NFYzLjgxMmEuNTY4LjU2OCwwLDAsMSwuNTY4LS41NjhaIi8+PC9nPjwvZz48L2c+PC9zdmc+;" parent="1" vertex="1">
                    <mxGeometry x="1630" y="835" width="40" height="40" as="geometry"/>
                </mxCell>
                <mxCell id="103" value="&lt;font color=&quot;#ffffff&quot;&gt;applicationGatewaySubnet&lt;/font&gt;" style="text;strokeColor=none;align=left;fillColor=none;html=1;verticalAlign=middle;whiteSpace=wrap;rounded=0;" parent="1" vertex="1">
                    <mxGeometry x="1670" y="849" width="60" height="30" as="geometry"/>
                </mxCell>
                <mxCell id="106" value="&lt;font color=&quot;#ffffff&quot;&gt;spoke02Vnet&lt;/font&gt;" style="text;strokeColor=none;align=left;fillColor=none;html=1;verticalAlign=middle;whiteSpace=wrap;rounded=0;" parent="1" vertex="1">
                    <mxGeometry x="1665.49" y="905" width="60" height="30" as="geometry"/>
                </mxCell>
                <mxCell id="108" value="" style="shape=image;verticalLabelPosition=bottom;verticalAlign=top;imageAspect=0;aspect=fixed;image=data:image/svg+xml,PHN2ZyB4bWxucz0iaHR0cDovL3d3dy53My5vcmcvMjAwMC9zdmciIGlkPSJiNzU5NDNiYS0xYTNmLTQ4NWQtYjQ1ZC0zZmVlMDBlZDdlNWUiIHdpZHRoPSIxOCIgaGVpZ2h0PSIxOCIgdmlld0JveD0iMCAwIDE4IDE4Ij48ZGVmcz48bGluZWFyR3JhZGllbnQgaWQ9ImZlNWNlNDNmLTI4MjMtNDYxNy1iYjU0LTU3ZGY5ZTc3ODM3MiIgeDE9IjkuMDEiIHkxPSIwLjc1IiB4Mj0iOS4wMSIgeTI9IjE3LjI1IiBncmFkaWVudFVuaXRzPSJ1c2VyU3BhY2VPblVzZSI+PHN0b3Agb2Zmc2V0PSIwIiBzdG9wLWNvbG9yPSIjNWVhMGVmIi8+PHN0b3Agb2Zmc2V0PSIwLjE4IiBzdG9wLWNvbG9yPSIjNTU5Y2VjIi8+PHN0b3Agb2Zmc2V0PSIwLjQ3IiBzdG9wLWNvbG9yPSIjM2M5MWU1Ii8+PHN0b3Agb2Zmc2V0PSIwLjg0IiBzdG9wLWNvbG9yPSIjMTM4MGRhIi8+PHN0b3Agb2Zmc2V0PSIxIiBzdG9wLWNvbG9yPSIjMDA3OGQ0Ii8+PC9saW5lYXJHcmFkaWVudD48L2RlZnM+PHRpdGxlPkljb24tbmV0d29ya2luZy02NzwvdGl0bGU+PHBhdGggZD0iTTE2LjM2LDguNGMwLDQuODQtNS44NSw4Ljc0LTcuMTIsOS41M2EuNDYuNDYsMCwwLDEtLjQ4LDBjLTEuMjctLjc5LTcuMTItNC42OS03LjEyLTkuNTNWMi41OGEuNDYuNDYsMCwwLDEsLjQ1LS40NkM2LjY0LDIsNS41OSwwLDksMHMyLjM2LDIsNi45MSwyLjEyYS40Ni40NiwwLDAsMSwuNDUuNDZaIiBmaWxsPSIjMDA3OGQ0Ii8+PHBhdGggZD0iTTE1Ljc1LDguNDVjMCw0LjQ0LTUuMzYsOC02LjUzLDguNzRhLjQzLjQzLDAsMCwxLS40NCwwYy0xLjE3LS43Mi02LjUzLTQuMy02LjUzLTguNzRWMy4xMWEuNDIuNDIsMCwwLDEsLjQxLS40MkM2LjgzLDIuNTgsNS44Ny43NSw5LC43NXMyLjE3LDEuODMsNi4zNCwxLjk0YS40Mi40MiwwLDAsMSwuNDEuNDJaIiBmaWxsPSIjNmJiOWYyIi8+PHBhdGggZD0iTTksOVYuNzVjMy4xMywwLDIuMTcsMS44Myw2LjM0LDEuOTRhLjQzLjQzLDAsMCwxLC40MS40M1Y4LjQ2YTQuODksNC44OSwwLDAsMSwwLC41NFpNOSw5SDIuMjhjLjQsNC4xOCw1LjM4LDcuNSw2LjUsOC4xOWEuMzkuMzksMCwwLDAsLjE4LjA2SDlaIiBmaWxsPSJ1cmwoI2ZlNWNlNDNmLTI4MjMtNDYxNy1iYjU0LTU3ZGY5ZTc3ODM3MikiLz48cGF0aCBkPSJNMi42NiwyLjY5QzYuODMsMi41OCw1Ljg3Ljc1LDksLjc1VjlIMi4yOGE0Ljg5LDQuODksMCwwLDEsMC0uNTRWMy4xMkEuNDMuNDMsMCwwLDEsMi42NiwyLjY5WiIgZmlsbD0iIzUwZTZmZiIvPjxwYXRoIGQ9Ik0xNS43Miw5SDl2OC4yNUg5YS4zOS4zOSwwLDAsMCwuMTgtLjA2QzEwLjM0LDE2LjUsMTUuMzIsMTMuMTgsMTUuNzIsOVoiIGZpbGw9IiM1MGU2ZmYiLz48L3N2Zz4=;strokeColor=#00FFFF;fillColor=none;" parent="1" vertex="1">
                    <mxGeometry x="1860" y="822" width="40" height="40" as="geometry"/>
                </mxCell>
                <mxCell id="109" value="" style="aspect=fixed;html=1;points=[];align=center;image;fontSize=12;image=img/lib/azure2/networking/Route_Tables.svg;strokeColor=#00FFFF;fillColor=none;" parent="1" vertex="1">
                    <mxGeometry x="1630" y="805" width="30.97" height="30" as="geometry"/>
                </mxCell>
                <mxCell id="117" value="" style="shape=image;verticalLabelPosition=bottom;verticalAlign=top;imageAspect=0;aspect=fixed;image=data:image/svg+xml,PHN2ZyB4bWxucz0iaHR0cDovL3d3dy53My5vcmcvMjAwMC9zdmciIGlkPSJmZDQ1NGYxYy01NTA2LTQ0YjgtODc0ZS04ODE0YjhiMmY3MGIiIHdpZHRoPSIxOCIgaGVpZ2h0PSIxOCIgdmlld0JveD0iMCAwIDE4IDE4Ij48ZGVmcz48bGluZWFyR3JhZGllbnQgaWQ9ImYzNGQ5NTY5LTJiZDAtNDAwMi04ZjE2LTNkMDFkODEwNmNiNSIgeDE9IjguODgiIHkxPSIxMi4yMSIgeDI9IjguODgiIHkyPSIwLjIxIiBncmFkaWVudFVuaXRzPSJ1c2VyU3BhY2VPblVzZSI+PHN0b3Agb2Zmc2V0PSIwIiBzdG9wLWNvbG9yPSIjMDA3OGQ0Ii8+PHN0b3Agb2Zmc2V0PSIwLjgyIiBzdG9wLWNvbG9yPSIjNWVhMGVmIi8+PC9saW5lYXJHcmFkaWVudD48bGluZWFyR3JhZGllbnQgaWQ9ImJkYjQ1YTBiLWViNTgtNDk3MC1hNjBhLWZiMmNlMzE0Zjg2NiIgeDE9IjguODgiIHkxPSIxNi44NCIgeDI9IjguODgiIHkyPSIxMi4yMSIgZ3JhZGllbnRVbml0cz0idXNlclNwYWNlT25Vc2UiPjxzdG9wIG9mZnNldD0iMC4xNSIgc3RvcC1jb2xvcj0iI2NjYyIvPjxzdG9wIG9mZnNldD0iMSIgc3RvcC1jb2xvcj0iIzcwNzA3MCIvPjwvbGluZWFyR3JhZGllbnQ+PC9kZWZzPjx0aXRsZT5JY29uLWNvbXB1dGUtMjE8L3RpdGxlPjxyZWN0IHg9Ii0wLjEyIiB5PSIwLjIxIiB3aWR0aD0iMTgiIGhlaWdodD0iMTIiIHJ4PSIwLjYiIGZpbGw9InVybCgjZjM0ZDk1NjktMmJkMC00MDAyLThmMTYtM2QwMWQ4MTA2Y2I1KSIvPjxwb2x5Z29uIHBvaW50cz0iMTEuODggNC40NiAxMS44OCA3Ljk1IDguODggOS43MSA4Ljg4IDYuMjEgMTEuODggNC40NiIgZmlsbD0iIzUwZTZmZiIvPjxwb2x5Z29uIHBvaW50cz0iMTEuODggNC40NiA4Ljg4IDYuMjIgNS44OCA0LjQ2IDguODggMi43MSAxMS44OCA0LjQ2IiBmaWxsPSIjYzNmMWZmIi8+PHBvbHlnb24gcG9pbnRzPSI4Ljg4IDYuMjIgOC44OCA5LjcxIDUuODggNy45NSA1Ljg4IDQuNDYgOC44OCA2LjIyIiBmaWxsPSIjOWNlYmZmIi8+PHBvbHlnb24gcG9pbnRzPSI1Ljg4IDcuOTUgOC44OCA2LjIxIDguODggOS43MSA1Ljg4IDcuOTUiIGZpbGw9IiNjM2YxZmYiLz48cG9seWdvbiBwb2ludHM9IjExLjg4IDcuOTUgOC44OCA2LjIxIDguODggOS43MSAxMS44OCA3Ljk1IiBmaWxsPSIjOWNlYmZmIi8+PHBhdGggZD0iTTEyLjQ5LDE1Ljg0Yy0xLjc4LS4yOC0xLjg1LTEuNTYtMS44NS0zLjYzSDcuMTFjMCwyLjA3LS4wNiwzLjM1LTEuODQsMy42M2ExLDEsMCwwLDAtLjg5LDFoOUExLDEsMCwwLDAsMTIuNDksMTUuODRaIiBmaWxsPSJ1cmwoI2JkYjQ1YTBiLWViNTgtNDk3MC1hNjBhLWZiMmNlMzE0Zjg2NikiLz48L3N2Zz4=;strokeColor=#00FFFF;fillColor=none;" parent="1" vertex="1">
                    <mxGeometry x="1740" y="809" width="40" height="40" as="geometry"/>
                </mxCell>
                <mxCell id="118" value="" style="edgeStyle=none;orthogonalLoop=1;jettySize=auto;html=1;fontColor=#FFFFFF;endArrow=none;endFill=0;shape=link;elbow=vertical;entryX=-0.028;entryY=0.726;entryDx=0;entryDy=0;entryPerimeter=0;strokeColor=#FFFFFF;" parent="1" target="65" edge="1">
                    <mxGeometry width="80" relative="1" as="geometry">
                        <mxPoint x="1470" y="660" as="sourcePoint"/>
                        <mxPoint x="1550" y="660" as="targetPoint"/>
                        <Array as="points"/>
                    </mxGeometry>
                </mxCell>
                <mxCell id="119" value="" style="edgeStyle=none;orthogonalLoop=1;jettySize=auto;html=1;fontColor=#FFFFFF;endArrow=none;endFill=0;shape=link;elbow=vertical;entryX=-0.028;entryY=0.726;entryDx=0;entryDy=0;entryPerimeter=0;strokeColor=#FFFFFF;" parent="1" edge="1">
                    <mxGeometry width="80" relative="1" as="geometry">
                        <mxPoint x="1467.84" y="914.59" as="sourcePoint"/>
                        <mxPoint x="1609.9999999999998" y="914.412" as="targetPoint"/>
                        <Array as="points"/>
                    </mxGeometry>
                </mxCell>
                <mxCell id="120" value="" style="shape=image;verticalLabelPosition=bottom;labelBackgroundColor=default;verticalAlign=top;aspect=fixed;imageAspect=0;image=data:image/svg+xml,PHN2ZyB4bWxuczp4bGluaz0iaHR0cDovL3d3dy53My5vcmcvMTk5OS94bGluayIgeG1sbnM9Imh0dHA6Ly93d3cudzMub3JnLzIwMDAvc3ZnIiBkYXRhLXR5cGU9IjEiIGlkPSJGeFN5bWJvbDAtMDcxIiByb2xlPSJwcmVzZW50YXRpb24iIGNsYXNzPSIiIHZpZXdCb3g9IjAgMCAxOCAxOCI+PGc+PHBhdGggZmlsbD0idXJsKCNiZTdlNWM4My01MTM0LTRlYTMtOGMxYy1lNjljZjBhZTYwZTgpIiBkPSJNMTMuNjI1IDYuOTcyYTEuMDkzIDEuMDkzIDAgMSAxLTEuMS0xLjA5MSAxLjA5MyAxLjA5MyAwIDAgMSAxLjEgMS4wOTFaTTkuMDMyIDUuODg2YTEuMDkzIDEuMDkzIDAgMSAwIDEuMDk0IDEuMDkxIDEuMDkzIDEuMDkzIDAgMCAwLTEuMDk0LTEuMDkxWm0tMy40OTQgMGExLjA5MyAxLjA5MyAwIDEgMCAxLjA5NCAxLjA5NiAxLjA5MyAxLjA5MyAwIDAgMC0xLjA5NC0xLjA5MVoiLz48cGF0aCBmaWxsPSIjNTBlNmZmIiBkPSJtNi4zNCAxMS4zNTctLjYyNy42MjlhLjI4NC4yODQgMCAwIDEtLjQwMiAwTC42NzIgNy4zNjFhLjU2OC41NjggMCAwIDEgMC0uODA0bC42MjYtLjYyOCA1LjA0MSA1LjAyNmEuMjg0LjI4NCAwIDAgMSAwIC40MDJaIi8+PHBhdGggZmlsbD0iIzE0OTBkZiIgZD0ibTUuNjIgMS45NzguNjI4LjYyNmEuMjg0LjI4NCAwIDAgMSAwIC40MDJMMS4yOTYgNy45NzMuNjcgNy4zNWEuNTY4LjU2OCAwIDAgMSAwLS44MDNMNS4yMiAxLjk4YS4yODQuMjg0IDAgMCAxIC40MDEgMFoiLz48cGF0aCBmaWxsPSIjNTBlNmZmIiBkPSJtMTYuNzAxIDUuOTMuNjI3LjYyOWEuNTY4LjU2OCAwIDAgMSAwIC44MDNsLTQuNjQgNC42MjZhLjI4NC4yODQgMCAwIDEtLjQwMSAwbC0uNjI3LS42M2EuMjg0LjI4NCAwIDAgMSAwLS40MDFsNS4wNDEtNS4wMjdaIi8+PHBhdGggZmlsbD0iIzE0OTBkZiIgZD0ibTE3LjMzMyA3LjM0Ni0uNjI5LjYyNy00Ljk1My00Ljk2N2EuMjg0LjI4NCAwIDAgMSAwLS40MDJsLjYyOC0uNjI2YS4yODQuMjg0IDAgMCAxIC40MDIgMGw0LjU1MiA0LjU2NmEuNTY4LjU2OCAwIDAgMSAwIC44MDNaIi8+PGNpcmNsZSBmaWxsPSJ1cmwoI2JlN2U1YzgzLTUxMzQtNGVhMy04YzFjLWU2OWNmMGFlNjBlOSkiIHI9IjMuNzY5IiBjeT0iMTIuMzM2IiBjeD0iMTMuMTU5Ii8+PHBhdGggZmlsbD0iI2ZmZmZmZiIgY2xhc3M9Im1zcG9ydGFsZngtc3ZnLWMwMSIgZD0iTTEyLjc4OSAxMC4zNjFoLTEuMTJhMS40IDEuNCAwIDAgMC0uMjE3IDIuNzc0IDEuNDkgMS40OSAwIDAgMSAuMDE3LS41Mi44NzkuODc5IDAgMCAxIC4yLTEuNzQyaDEuMTE3YS44ODUuODg1IDAgMCAxIDAgMS43NjloLS4zMWEuNjYxLjY2MSAwIDAgMC0uMDYyLjI4LjYzNy42MzcgMCAwIDAgLjA0NC4yMzJoLjMyOGExLjQgMS40IDAgMCAwIC4wNTgtMi43OTNaIi8+PHBhdGggZmlsbD0iI2ZmZmZmZiIgY2xhc3M9Im1zcG9ydGFsZngtc3ZnLWMwMSIgZD0iTTE0LjY4MiAxMS41NDNhMS43MTQgMS43MTQgMCAwIDEgLjAxNi4yMTUgMS40MjkgMS40MjkgMCAwIDEtLjAzMS4zMDUuODc4Ljg3OCAwIDAgMS0uMiAxLjc0aC0xLjEyMWEuODg1Ljg4NSAwIDAgMSAwLTEuNzY4aC4zMDhhLjY1NS42NTUgMCAwIDAgLjAxNy0uNTEyaC0uMzIzYTEuNCAxLjQgMCAwIDAgMCAyLjc5M2gxLjExOWExLjQgMS40IDAgMCAwIC4yMTctMi43NzVaIi8+PC9nPjxkZWZzPgo8bGluZWFyR3JhZGllbnQgZ3JhZGllbnRVbml0cz0idXNlclNwYWNlT25Vc2UiIHkyPSI1Ljg4MSIgeDI9IjkuMDM2IiB5MT0iOC4wNzciIHgxPSI5LjAzNiIgaWQ9ImJlN2U1YzgzLTUxMzQtNGVhMy04YzFjLWU2OWNmMGFlNjBlOCI+PHN0b3Agc3RvcC1jb2xvcj0iIzVlOTYyNCIgb2Zmc2V0PSIwIi8+PHN0b3Agc3RvcC1jb2xvcj0iIzZmYjAyYSIgb2Zmc2V0PSIuMjQxIi8+PHN0b3Agc3RvcC1jb2xvcj0iIzdjYzUyZiIgb2Zmc2V0PSIuNTAxIi8+PHN0b3Agc3RvcC1jb2xvcj0iIzgzZDIzMiIgb2Zmc2V0PSIuNzU2Ii8+PHN0b3Agc3RvcC1jb2xvcj0iIzg2ZDYzMyIgb2Zmc2V0PSIxIi8+PC9saW5lYXJHcmFkaWVudD4KPGxpbmVhckdyYWRpZW50IGdyYWRpZW50VW5pdHM9InVzZXJTcGFjZU9uVXNlIiBncmFkaWVudFRyYW5zZm9ybT0ibWF0cml4KDEgMCAwIC0xIDQyNy4xMjYgLTIwNS43NTgpIiB5Mj0iLTIxNC4zMjQiIHgyPSItNDEzLjk2OCIgeTE9Ii0yMjEuODYzIiB4MT0iLTQxMy45NjgiIGlkPSJiZTdlNWM4My01MTM0LTRlYTMtOGMxYy1lNjljZjBhZTYwZTkiPjxzdG9wIHN0b3AtY29sb3I9IiMwMDViYTEiIG9mZnNldD0iMCIvPjxzdG9wIHN0b3AtY29sb3I9IiMwZjY2YWUiIG9mZnNldD0iLjEyNiIvPjxzdG9wIHN0b3AtY29sb3I9IiMzYTg2ZDEiIG9mZnNldD0iLjUxNSIvPjxzdG9wIHN0b3AtY29sb3I9IiM1NDk5ZTciIG9mZnNldD0iLjgxOSIvPjxzdG9wIHN0b3AtY29sb3I9IiM1ZWEwZWYiIG9mZnNldD0iMSIvPjwvbGluZWFyR3JhZGllbnQ+CjwvZGVmcz4KPC9zdmc+;" parent="1" vertex="1">
                    <mxGeometry x="1520" y="875" width="40" height="40" as="geometry"/>
                </mxCell>
                <mxCell id="121" value="" style="shape=image;verticalLabelPosition=bottom;labelBackgroundColor=default;verticalAlign=top;aspect=fixed;imageAspect=0;image=data:image/svg+xml,PHN2ZyB4bWxuczp4bGluaz0iaHR0cDovL3d3dy53My5vcmcvMTk5OS94bGluayIgeG1sbnM9Imh0dHA6Ly93d3cudzMub3JnLzIwMDAvc3ZnIiBkYXRhLXR5cGU9IjEiIGlkPSJGeFN5bWJvbDAtMDcxIiByb2xlPSJwcmVzZW50YXRpb24iIGNsYXNzPSIiIHZpZXdCb3g9IjAgMCAxOCAxOCI+PGc+PHBhdGggZmlsbD0idXJsKCNiZTdlNWM4My01MTM0LTRlYTMtOGMxYy1lNjljZjBhZTYwZTgpIiBkPSJNMTMuNjI1IDYuOTcyYTEuMDkzIDEuMDkzIDAgMSAxLTEuMS0xLjA5MSAxLjA5MyAxLjA5MyAwIDAgMSAxLjEgMS4wOTFaTTkuMDMyIDUuODg2YTEuMDkzIDEuMDkzIDAgMSAwIDEuMDk0IDEuMDkxIDEuMDkzIDEuMDkzIDAgMCAwLTEuMDk0LTEuMDkxWm0tMy40OTQgMGExLjA5MyAxLjA5MyAwIDEgMCAxLjA5NCAxLjA5NiAxLjA5MyAxLjA5MyAwIDAgMC0xLjA5NC0xLjA5MVoiLz48cGF0aCBmaWxsPSIjNTBlNmZmIiBkPSJtNi4zNCAxMS4zNTctLjYyNy42MjlhLjI4NC4yODQgMCAwIDEtLjQwMiAwTC42NzIgNy4zNjFhLjU2OC41NjggMCAwIDEgMC0uODA0bC42MjYtLjYyOCA1LjA0MSA1LjAyNmEuMjg0LjI4NCAwIDAgMSAwIC40MDJaIi8+PHBhdGggZmlsbD0iIzE0OTBkZiIgZD0ibTUuNjIgMS45NzguNjI4LjYyNmEuMjg0LjI4NCAwIDAgMSAwIC40MDJMMS4yOTYgNy45NzMuNjcgNy4zNWEuNTY4LjU2OCAwIDAgMSAwLS44MDNMNS4yMiAxLjk4YS4yODQuMjg0IDAgMCAxIC40MDEgMFoiLz48cGF0aCBmaWxsPSIjNTBlNmZmIiBkPSJtMTYuNzAxIDUuOTMuNjI3LjYyOWEuNTY4LjU2OCAwIDAgMSAwIC44MDNsLTQuNjQgNC42MjZhLjI4NC4yODQgMCAwIDEtLjQwMSAwbC0uNjI3LS42M2EuMjg0LjI4NCAwIDAgMSAwLS40MDFsNS4wNDEtNS4wMjdaIi8+PHBhdGggZmlsbD0iIzE0OTBkZiIgZD0ibTE3LjMzMyA3LjM0Ni0uNjI5LjYyNy00Ljk1My00Ljk2N2EuMjg0LjI4NCAwIDAgMSAwLS40MDJsLjYyOC0uNjI2YS4yODQuMjg0IDAgMCAxIC40MDIgMGw0LjU1MiA0LjU2NmEuNTY4LjU2OCAwIDAgMSAwIC44MDNaIi8+PGNpcmNsZSBmaWxsPSJ1cmwoI2JlN2U1YzgzLTUxMzQtNGVhMy04YzFjLWU2OWNmMGFlNjBlOSkiIHI9IjMuNzY5IiBjeT0iMTIuMzM2IiBjeD0iMTMuMTU5Ii8+PHBhdGggZmlsbD0iI2ZmZmZmZiIgY2xhc3M9Im1zcG9ydGFsZngtc3ZnLWMwMSIgZD0iTTEyLjc4OSAxMC4zNjFoLTEuMTJhMS40IDEuNCAwIDAgMC0uMjE3IDIuNzc0IDEuNDkgMS40OSAwIDAgMSAuMDE3LS41Mi44NzkuODc5IDAgMCAxIC4yLTEuNzQyaDEuMTE3YS44ODUuODg1IDAgMCAxIDAgMS43NjloLS4zMWEuNjYxLjY2MSAwIDAgMC0uMDYyLjI4LjYzNy42MzcgMCAwIDAgLjA0NC4yMzJoLjMyOGExLjQgMS40IDAgMCAwIC4wNTgtMi43OTNaIi8+PHBhdGggZmlsbD0iI2ZmZmZmZiIgY2xhc3M9Im1zcG9ydGFsZngtc3ZnLWMwMSIgZD0iTTE0LjY4MiAxMS41NDNhMS43MTQgMS43MTQgMCAwIDEgLjAxNi4yMTUgMS40MjkgMS40MjkgMCAwIDEtLjAzMS4zMDUuODc4Ljg3OCAwIDAgMS0uMiAxLjc0aC0xLjEyMWEuODg1Ljg4NSAwIDAgMSAwLTEuNzY4aC4zMDhhLjY1NS42NTUgMCAwIDAgLjAxNy0uNTEyaC0uMzIzYTEuNCAxLjQgMCAwIDAgMCAyLjc5M2gxLjExOWExLjQgMS40IDAgMCAwIC4yMTctMi43NzVaIi8+PC9nPjxkZWZzPgo8bGluZWFyR3JhZGllbnQgZ3JhZGllbnRVbml0cz0idXNlclNwYWNlT25Vc2UiIHkyPSI1Ljg4MSIgeDI9IjkuMDM2IiB5MT0iOC4wNzciIHgxPSI5LjAzNiIgaWQ9ImJlN2U1YzgzLTUxMzQtNGVhMy04YzFjLWU2OWNmMGFlNjBlOCI+PHN0b3Agc3RvcC1jb2xvcj0iIzVlOTYyNCIgb2Zmc2V0PSIwIi8+PHN0b3Agc3RvcC1jb2xvcj0iIzZmYjAyYSIgb2Zmc2V0PSIuMjQxIi8+PHN0b3Agc3RvcC1jb2xvcj0iIzdjYzUyZiIgb2Zmc2V0PSIuNTAxIi8+PHN0b3Agc3RvcC1jb2xvcj0iIzgzZDIzMiIgb2Zmc2V0PSIuNzU2Ii8+PHN0b3Agc3RvcC1jb2xvcj0iIzg2ZDYzMyIgb2Zmc2V0PSIxIi8+PC9saW5lYXJHcmFkaWVudD4KPGxpbmVhckdyYWRpZW50IGdyYWRpZW50VW5pdHM9InVzZXJTcGFjZU9uVXNlIiBncmFkaWVudFRyYW5zZm9ybT0ibWF0cml4KDEgMCAwIC0xIDQyNy4xMjYgLTIwNS43NTgpIiB5Mj0iLTIxNC4zMjQiIHgyPSItNDEzLjk2OCIgeTE9Ii0yMjEuODYzIiB4MT0iLTQxMy45NjgiIGlkPSJiZTdlNWM4My01MTM0LTRlYTMtOGMxYy1lNjljZjBhZTYwZTkiPjxzdG9wIHN0b3AtY29sb3I9IiMwMDViYTEiIG9mZnNldD0iMCIvPjxzdG9wIHN0b3AtY29sb3I9IiMwZjY2YWUiIG9mZnNldD0iLjEyNiIvPjxzdG9wIHN0b3AtY29sb3I9IiMzYTg2ZDEiIG9mZnNldD0iLjUxNSIvPjxzdG9wIHN0b3AtY29sb3I9IiM1NDk5ZTciIG9mZnNldD0iLjgxOSIvPjxzdG9wIHN0b3AtY29sb3I9IiM1ZWEwZWYiIG9mZnNldD0iMSIvPjwvbGluZWFyR3JhZGllbnQ+CjwvZGVmcz4KPC9zdmc+;" parent="1" vertex="1">
                    <mxGeometry x="1520" y="622" width="40" height="40" as="geometry"/>
                </mxCell>
                <mxCell id="131" value="" style="shape=image;verticalLabelPosition=bottom;labelBackgroundColor=default;verticalAlign=top;aspect=fixed;imageAspect=0;image=data:image/svg+xml,PHN2ZyB4bWxucz0iaHR0cDovL3d3dy53My5vcmcvMjAwMC9zdmciIHZpZXdCb3g9IjAgMCAxOCAxOCIgaGVpZ2h0PSIxOCIgd2lkdGg9IjE4Ij48ZyBpZD0iZWZjNzg2YjgtOTYzMC00MDc0LThkNzAtNWFiMGIxM2ZiN2MwIj48Zz48cGF0aCBmaWxsPSIjODIxMDEwIiBkPSJNNiwxMC41OFY4LjYzSDE2LjM1VjMuMTFhLjY0LjY0LDAsMCwwLS42NC0uNjRILjY0QS42NC42NCwwLDAsMCwwLDMuMTF2Ny43NWEuNjQuNjQsMCwwLDAsLjY0LjY0SDl2LS45MlpNNy44NSw4SDMuNDJWNkg3Ljg1Wk0xMyw4SDguNTNWNkgxM1ptMi41OSwwSDEzLjcxVjZoMS44NFpNMTEuMTIsMy4zN2g0LjQzdjJIMTEuMTJaTTYsMy4zN2g0LjQzdjJINlpNLjksMy4zN0g1LjM0djJILjlaTS45LDZIMi43NVY4SC45Wm00LjQ0LDQuNThILjlWOC42M0g1LjM0WiIvPjxyZWN0IGZpbGw9IiNlNjIzMjMiIGhlaWdodD0iMS45NiIgd2lkdGg9IjQuNDMiIHk9IjMuMzciIHg9IjAuOSIvPjxyZWN0IGZpbGw9IiNmZjczODEiIGhlaWdodD0iMS45NiIgd2lkdGg9IjQuNDMiIHk9IjMuMzciIHg9IjYuMDEiLz48cmVjdCBmaWxsPSIjZTYyMzIzIiBoZWlnaHQ9IjEuOTYiIHdpZHRoPSI0LjQzIiB5PSIzLjM3IiB4PSIxMS4xMiIvPjxyZWN0IGZpbGw9IiNlNjIzMjMiIGhlaWdodD0iMS45NiIgd2lkdGg9IjEuODQiIHk9IjYiIHg9IjAuOSIvPjxyZWN0IGZpbGw9IiNmZjczODEiIGhlaWdodD0iMS45NiIgd2lkdGg9IjEuODQiIHk9IjYiIHg9IjEzLjcxIi8+PHJlY3QgZmlsbD0iI2ZmNzM4MSIgaGVpZ2h0PSIxLjk2IiB3aWR0aD0iNC40MyIgeT0iNiIgeD0iMy40MiIvPjxyZWN0IGZpbGw9IiNlNjIzMjMiIGhlaWdodD0iMS45NiIgd2lkdGg9IjQuNDMiIHk9IjYiIHg9IjguNTMiLz48cmVjdCBmaWxsPSIjZTYyMzIzIiBoZWlnaHQ9IjEuOTYiIHdpZHRoPSI0LjQzIiB5PSI4LjYzIiB4PSIwLjkiLz48cGF0aCBmaWxsPSIjZmY3MzgxIiBkPSJNOSw4Ljg3YS4yNS4yNSwwLDAsMSwuMjYtLjI0SDZ2MS45NUg5VjguODhaIi8+PHBhdGggZmlsbD0iI2U2ZTZlNiIgZD0iTTE4LDguODh2Ljk1SDl2NS40NGEuMjcuMjcsMCwwLDAsLjI4LjI2aDguNDFhLjI4LjI4LDAsMCwwLC4yOS0uMjZWOC44OFpNOS43MiwxMS4yMWEuMzcuMzcsMCwxLDEsLjM3LjM3QS4zOC4zOCwwLDAsMSw5LjcyLDExLjIxWm0uMzcsMy4zNmEuMzcuMzcsMCwxLDEsLjM3LS4zN0EuMzguMzgsMCwwLDEsMTAuMDksMTQuNTdabTAtMS41OGEuMzguMzgsMCwwLDEtLjM3LS4zNy4zNy4zNywwLDAsMSwuNzQsMEEuMzguMzgsMCwwLDEsMTAuMDksMTNaTTE3LDE0LjM1YzAsLjA3LS4xLjEzLS4yMi4xM0gxMS4yM2MtLjEyLDAtLjIyLS4wNi0uMjItLjEzVjE0YzAtLjA2LjEtLjEyLjIyLS4xMmg1LjU1Yy4xMiwwLC4yMi4wNi4yMi4xMlptMC0xLjU4YzAsLjA3LS4xLjEzLS4yMi4xM0gxMS4yM2MtLjEyLDAtLjIyLS4wNi0uMjItLjEzdi0uMzFjMC0uMDcuMS0uMTIuMjItLjEyaDUuNTVjLjEyLDAsLjIyLjA1LjIyLjEyWm0wLTEuNDFjMCwuMDctLjEuMTMtLjIyLjEzSDExLjIzYy0uMTIsMC0uMjItLjA2LS4yMi0uMTN2LS4zMWMwLS4wNi4xLS4xMi4yMi0uMTJoNS41NWMuMTIsMCwuMjIuMDYuMjIuMTJaIi8+PHBhdGggZmlsbD0iIzY2NiIgZD0iTTkuMjksOC42MmgwQS4yNS4yNSwwLDAsMCw5LDguODdIOXYuOTVoOVY4Ljg4aDBhLjI2LjI2LDAsMCwwLS4yNy0uMjRIOS4yOVoiLz48cGF0aCBmaWxsPSIjNjY2IiBkPSJNMTYuNzgsMTIuMzRIMTEuMjNjLS4xMiwwLS4yMi4wNS0uMjIuMTJ2LjMxYzAsLjA3LjEuMTMuMjIuMTNoNS41NWMuMTIsMCwuMjItLjA2LjIyLS4xM3YtLjMxQzE3LDEyLjM5LDE2LjksMTIuMzQsMTYuNzgsMTIuMzRaIi8+PHBhdGggZmlsbD0iIzY2NiIgZD0iTTE2Ljc4LDEwLjkzSDExLjIzYy0uMTIsMC0uMjIuMDYtLjIyLjEydi4zMWMwLC4wNy4xLjEzLjIyLjEzaDUuNTVjLjEyLDAsLjIyLS4wNi4yMi0uMTN2LS4zMUMxNywxMSwxNi45LDEwLjkzLDE2Ljc4LDEwLjkzWiIvPjxwYXRoIGZpbGw9IiM2NjYiIGQ9Ik0xNi43OCwxMy45MkgxMS4yM2MtLjEyLDAtLjIyLjA2LS4yMi4xMnYuMzFjMCwuMDcuMS4xMy4yMi4xM2g1LjU1Yy4xMiwwLC4yMi0uMDYuMjItLjEzVjE0QzE3LDE0LDE2LjksMTMuOTIsMTYuNzgsMTMuOTJaIi8+PGNpcmNsZSBmaWxsPSIjNjY2IiByPSIwLjM3IiBjeT0iMTEuMjEiIGN4PSIxMC4wOSIvPjxjaXJjbGUgZmlsbD0iIzY2NiIgcj0iMC4zNyIgY3k9IjEyLjYyIiBjeD0iMTAuMDkiLz48Y2lyY2xlIGZpbGw9IiM2NjYiIHI9IjAuMzciIGN5PSIxNC4yIiBjeD0iMTAuMDkiLz48L2c+PC9nPjwvc3ZnPg==;strokeColor=#00FFFF;fontColor=#FFFFFF;fillColor=none;" parent="1" vertex="1">
                    <mxGeometry x="1364" y="675" width="40" height="40" as="geometry"/>
                </mxCell>
                <mxCell id="133" value="" style="edgeStyle=none;orthogonalLoop=1;jettySize=auto;html=1;fontColor=#FFFFFF;endArrow=classicThin;endFill=1;shape=link;elbow=vertical;fillColor=#f0a30a;strokeColor=#BD7000;" parent="1" target="91" edge="1">
                    <mxGeometry width="80" relative="1" as="geometry">
                        <mxPoint x="1330" y="840" as="sourcePoint"/>
                        <mxPoint x="1510" y="780" as="targetPoint"/>
                        <Array as="points"/>
                    </mxGeometry>
                </mxCell>
                <mxCell id="134" value="" style="edgeStyle=none;orthogonalLoop=1;jettySize=auto;html=1;fontColor=#FFFFFF;endArrow=classicThin;endFill=1;shape=link;elbow=vertical;entryX=-0.069;entryY=0.644;entryDx=0;entryDy=0;entryPerimeter=0;fillColor=#f0a30a;strokeColor=#BD7000;exitX=0.883;exitY=0.267;exitDx=0;exitDy=0;exitPerimeter=0;" parent="1" source="20" target="92" edge="1">
                    <mxGeometry width="80" relative="1" as="geometry">
                        <mxPoint x="1410" y="850" as="sourcePoint"/>
                        <mxPoint x="1690" y="596.25" as="targetPoint"/>
                        <Array as="points"/>
                    </mxGeometry>
                </mxCell>
                <mxCell id="135" value="" style="edgeStyle=none;orthogonalLoop=1;jettySize=auto;html=1;fontColor=#FFFFFF;endArrow=classicThin;endFill=1;shape=link;elbow=vertical;entryX=0.506;entryY=0.969;entryDx=0;entryDy=0;entryPerimeter=0;fillColor=#f0a30a;strokeColor=#BD7000;exitX=1.019;exitY=0.469;exitDx=0;exitDy=0;exitPerimeter=0;" parent="1" source="89" target="92" edge="1">
                    <mxGeometry width="80" relative="1" as="geometry">
                        <mxPoint x="1405.32" y="845.6800000000001" as="sourcePoint"/>
                        <mxPoint x="1813.32" y="576.32" as="targetPoint"/>
                        <Array as="points"/>
                    </mxGeometry>
                </mxCell>
                <mxCell id="136" value="" style="edgeStyle=none;orthogonalLoop=1;jettySize=auto;html=1;fontColor=#FFFFFF;endArrow=classicThin;endFill=1;shape=link;elbow=vertical;entryX=0.494;entryY=0.994;entryDx=0;entryDy=0;entryPerimeter=0;fillColor=#f0a30a;strokeColor=#BD7000;exitX=0.494;exitY=-0.044;exitDx=0;exitDy=0;exitPerimeter=0;" parent="1" source="91" target="90" edge="1">
                    <mxGeometry width="80" relative="1" as="geometry">
                        <mxPoint x="1730.76" y="654.76" as="sourcePoint"/>
                        <mxPoint x="1830.24" y="597.76" as="targetPoint"/>
                        <Array as="points"/>
                    </mxGeometry>
                </mxCell>
                <mxCell id="149" value="" style="shape=image;verticalLabelPosition=bottom;verticalAlign=top;imageAspect=0;aspect=fixed;image=data:image/svg+xml,PHN2ZyB4bWxucz0iaHR0cDovL3d3dy53My5vcmcvMjAwMC9zdmciIGlkPSJhY2E0ZGVmNC03MDQ2LTQ4YTctODNmYi03ODBiOWY2ZDY1YWMiIHdpZHRoPSIxOCIgaGVpZ2h0PSIxOCIgdmlld0JveD0iMCAwIDE4IDE4Ij48ZGVmcz48cmFkaWFsR3JhZGllbnQgaWQ9ImVjOTQ1MTc1LWM4MGItNDZmZC04OWRiLTdlYWMxMDQyMDkzMyIgY3g9IjYuNjEiIGN5PSI0NS4xMyIgcj0iNi40IiBncmFkaWVudFRyYW5zZm9ybT0idHJhbnNsYXRlKDUuMDQgLTM1Ljg5KSBzY2FsZSgwLjk0KSIgZ3JhZGllbnRVbml0cz0idXNlclNwYWNlT25Vc2UiPjxzdG9wIG9mZnNldD0iMCIgc3RvcC1jb2xvcj0iIzVlYTBlZiIvPjxzdG9wIG9mZnNldD0iMC4yOCIgc3RvcC1jb2xvcj0iIzViOWZlZSIvPjxzdG9wIG9mZnNldD0iMC40NyIgc3RvcC1jb2xvcj0iIzUyOWJlYyIvPjxzdG9wIG9mZnNldD0iMC42NCIgc3RvcC1jb2xvcj0iIzQzOTRlNyIvPjxzdG9wIG9mZnNldD0iMC43OSIgc3RvcC1jb2xvcj0iIzJkOGJlMSIvPjxzdG9wIG9mZnNldD0iMC45MyIgc3RvcC1jb2xvcj0iIzExN2ZkOSIvPjxzdG9wIG9mZnNldD0iMSIgc3RvcC1jb2xvcj0iIzAwNzhkNCIvPjwvcmFkaWFsR3JhZGllbnQ+PC9kZWZzPjx0aXRsZT5JY29uLW5ldHdvcmtpbmctNjY8L3RpdGxlPjxyZWN0IHg9Ii0wLjE1IiB5PSIxNC41MyIgd2lkdGg9IjUuODkiIGhlaWdodD0iMS4zNCIgcng9IjAuNjMiIHRyYW5zZm9ybT0idHJhbnNsYXRlKC05LjkzIDYuNDMpIHJvdGF0ZSgtNDUpIiBmaWxsPSIjMTk4YWIzIi8+PHBhdGggZD0iTTE3LDQuMzVBNi40NCw2LjQ0LDAsMCwwLDE2LjI1LDMsNi4yNCw2LjI0LDAsMCwwLDcuNTEsMS43NmwtLjA2LjA1QTYuMTgsNi4xOCwwLDAsMCw1LjI0LDUuMTRjMCwuMjItLjEuNDQtLjEzLjY2QTYuMjUsNi4yNSwwLDAsMCw3LDExLjI2SDdhMi4wOSwyLjA5LDAsMCwwLC4yMi4ybDAsMCwuMjIuMThoMGE1Ljc2LDUuNzYsMCwwLDAsLjk0LjZsLjEuMDYuMTcuMDcuMTQuMDcuMTUuMDYuMTYuMDYuMTQuMDUuMi4wNi4xMSwwLC4yOS4wOGgwbC4zMi4wN2guMDhhMS45LDEuOSwwLDAsMCwuMjUsMGwuMSwwaDEuMDdsLjIzLDBoMGwuMTIsMGE1LjEsNS4xLDAsMCwwLC43Ni0uMTVoMGE2LjIsNi4yLDAsMCwwLDIuMjEtMS4xLDYuMzYsNi4zNiwwLDAsMCwxLjEzLTEuMTNBNi4yOCw2LjI4LDAsMCwwLDE3LDQuMzVabS0xLjQ1LS45M0gxNC4zM2E1LjkyLDUuOTIsMCwwLDAtLjg4LTEuNjZBNS4zNCw1LjM0LDAsMCwxLDE1LjU4LDMuNDJabS0zLjkxLTJhMy4yNywzLjI3LDAsMCwxLDEuOCwyaC0xLjhabTAsMi44NGgyLjA3YTkuMjMsOS4yMywwLDAsMSwuMzMsMi4xMWgtMi40Wm0wLDIuOTFoMi40YTkuMjMsOS4yMywwLDAsMS0uMzMsMi4xMkgxMS42N1Y3LjEzWk04LjUyLDUuNzRBOC43Myw4LjczLDAsMCwxLDguOCw0LjIyaDIuMDdWNi4zM0g4LjQ4QzguNDksNi4xMyw4LjUsNS45Myw4LjUyLDUuNzRabTIuMzUtNC4zNnYySDkuMDhBMy4yMywzLjIzLDAsMCwxLDEwLjg3LDEuMzhaTTcuOTQsMi40NGwwLDBhNS44Myw1LjgzLDAsMCwxLDEuMS0uNjQsNi4xMiw2LjEyLDAsMCwwLS44OCwxLjY3SDdBNS42OCw1LjY4LDAsMCwxLDcuOTQsMi40NFpNNi40NSw0LjIySDhhOS4xMSw5LjExLDAsMCwwLS4yNCwxLjM0YzAsLjI1LS4wNS41MS0uMDUuNzdINS44NUE2LjQ2LDYuNDYsMCwwLDEsNiw1LjU4LDYsNiwwLDAsMSw2LjQ1LDQuMjJabS0uNiwyLjkxSDcuNjhBOS4zNSw5LjM1LDAsMCwwLDgsOS4yNUg2LjQ1QTUuMzYsNS4zNiwwLDAsMSw1Ljg1LDcuMTNaTTcsMTAuMDdsMCwwSDguMjFhNS45Miw1LjkyLDAsMCwwLC44OCwxLjY2QTUuMzEsNS4zMSwwLDAsMSw3LDEwLjA3Wm0zLjg5LDJhMy4yMywzLjIzLDAsMCwxLTEuNzktMmgxLjc5Wm0wLTIuODRIOC44YTkuMjQsOS4yNCwwLDAsMS0uMzItMi4xMmgyLjM5VjkuMjVabTEuNTMsMi40MmEyLDIsMCwwLDEtLjczLjQydi0yaDEuOEE0LjQ0LDQuNDQsMCwwLDEsMTIuNCwxMS42N1pNMTQuNiwxMWgwYTUuMTksNS4xOSwwLDAsMS0xLjE1LjY4LDUuOTIsNS45MiwwLDAsMCwuODgtMS42NmgxLjI1QTUuMzUsNS4zNSwwLDAsMSwxNC42LDExWm0xLjQ4LTEuNzhoLTEuNWExMC42NCwxMC42NCwwLDAsMCwuMjktMi4xMmgxLjgxQTUuMjcsNS4yNywwLDAsMSwxNi4wOCw5LjI1Wk0xNC44Nyw2LjMzYTEwLjY0LDEwLjY0LDAsMCwwLS4yOS0yLjExaDEuNTFhNS41NCw1LjU0LDAsMCwxLC42LDIuMTFaIiBmaWxsPSJ1cmwoI2VjOTQ1MTc1LWM4MGItNDZmZC04OWRiLTdlYWMxMDQyMDkzMykiLz48Y2lyY2xlIGN4PSI2LjM2IiBjeT0iMTAuOTQiIHI9IjQuMDQiIGZpbGw9IiM1MGU2ZmYiLz48Y2lyY2xlIGN4PSI2LjM1IiBjeT0iMTAuODciIHI9IjMuMTciIGZpbGw9IiNmZmYiLz48cGF0aCBkPSJNNC43MiwxMC45NGwuOCwxLjg2LjgxLTIuMzlMNywxMS43N2wuODMtMS40SDkuMTJBMy41NywzLjU3LDAsMCwwLDksOS45SDcuNjFsLS41NC45MUw2LjI0LDkuMjMsNS40NywxMS41bC0uNy0xLjYxLS44NiwxLjU3SDMuNDVhMi41NywyLjU3LDAsMCwwLC4xNS40N2guNThaIiBmaWxsPSIjNzZiYzJkIi8+PC9zdmc+" parent="1" vertex="1">
                    <mxGeometry x="1380" y="1050" width="60" height="60" as="geometry"/>
                </mxCell>
                <mxCell id="150" value="" style="edgeStyle=none;orthogonalLoop=1;jettySize=auto;html=1;entryX=0.05;entryY=-0.008;entryDx=0;entryDy=0;entryPerimeter=0;strokeWidth=3;dashed=1;fillColor=#f8cecc;strokeColor=#b85450;gradientColor=#ea6b66;" parent="1" source="48" target="149" edge="1">
                    <mxGeometry width="80" relative="1" as="geometry">
                        <mxPoint x="1060" y="695.3299999999999" as="sourcePoint"/>
                        <mxPoint x="1311.32" y="865" as="targetPoint"/>
                        <Array as="points"/>
                    </mxGeometry>
                </mxCell>
                <mxCell id="153" value="" style="edgeStyle=none;orthogonalLoop=1;jettySize=auto;html=1;strokeWidth=3;fillColor=#e6d0de;gradientColor=#d5739d;strokeColor=#996185;exitX=0.5;exitY=1.117;exitDx=0;exitDy=0;exitPerimeter=0;entryX=1;entryY=0;entryDx=0;entryDy=0;entryPerimeter=0;dashed=1;" parent="1" source="117" target="149" edge="1">
                    <mxGeometry width="80" relative="1" as="geometry">
                        <mxPoint x="1780" y="810" as="sourcePoint"/>
                        <mxPoint x="1823.5064935064934" y="676" as="targetPoint"/>
                        <Array as="points"/>
                    </mxGeometry>
                </mxCell>
                <mxCell id="154" value="&lt;font color=&quot;#ffffff&quot;&gt;Network Watcher&lt;br&gt;Connection Monitor&lt;/font&gt;" style="text;strokeColor=none;align=left;fillColor=none;html=1;verticalAlign=middle;whiteSpace=wrap;rounded=0;" parent="1" vertex="1">
                    <mxGeometry x="1364" y="1110" width="110" height="30" as="geometry"/>
                </mxCell>
            </root>
        </mxGraphModel>
    </diagram>
</mxfile>